<svg width="100" height="100" viewBox="0 0 100 100" fill="none" xmlns="http://www.w3.org/2000/svg">
<circle cx="50" cy="50" r="50" fill="white"/>
<rect x="15" y="44" width="11" height="11" fill="white"/>
<path d="M14 48.5L87.5 43.5L86.5 49V54.5L86 59L81.5 60.5L80 62H78.5L75 61L70.5 62.5L66 62L62 64H54L51 62.5L45.75 64H37.5L34.5 62H27.5L26 60.5L23 62L20.5 61.5L19.5 60.5L16 59.5L14 56V48.5Z" fill="white"/>
<path d="M14 40L17.5 37.5L24.5 36H32L50 38L65 36L80 36.5L86.5 39L87.5 44L86.5 50L85.5 47H84L82.5 48L82 50.5L81 47L79 46.5L77 48L75 52L73.5 47.5H71L68.5 48.5L65.5 52.5L64 47.5L61 45.5H56.5L52.5 48.5L50.5 55.5L47 47L41 45L37.5 46.5L35 52.5L32.5 48.5L29 47L27 48L25.5 51L22.5 47L20 46.5L19 50L18 47.5L16 47L14 49L13.5 44L14 40Z" fill="#FFCCD1"/>
<mask id="mask0_1326_124" style="mask-type:alpha" maskUnits="userSpaceOnUse" x="10" y="30" width="80" height="40">
<rect x="10" y="30" width="80" height="40" fill="#D9D9D9"/>
</mask>
<g mask="url(#mask0_1326_124)">
<mask id="mask1_1326_124" style="mask-type:alpha" maskUnits="userSpaceOnUse" x="34" y="45" width="16" height="19">
<path d="M35.2308 50.6596L37.6924 46.2128L41.3847 45L46.3078 46.2128L49.5898 52.2766L50.0001 59.5532L49.5898 63.1915L46.3078 64H41.7949L35.6411 63.1915L34.4103 61.5745L34.0001 55.9149L35.2308 50.6596Z" fill="url(#paint0_linear_1326_124)"/>
</mask>
<g mask="url(#mask1_1326_124)">
<g filter="url(#filter0_ng_1326_124)">
<path d="M33.5385 49.8511L36.6154 44.4681L41.2308 43L47.3847 44.4681L51.4872 51.8085L52.0001 60.617L51.4872 65.0213L47.3847 66H41.7437L34.0513 65.0213L32.5129 63.0638L32.0001 56.2128L33.5385 49.8511Z" fill="url(#paint1_linear_1326_124)"/>
</g>
</g>
<path d="M50.3789 62.5023C50.3809 62.4698 50.3954 62.4485 50.4224 62.4384C50.4312 62.4351 50.4409 62.435 50.4499 62.4382C50.4589 62.4413 50.4667 62.4475 50.4719 62.4556C50.6588 62.7602 50.7648 63.0109 51.1012 63.2749C51.5241 63.6065 52.0107 63.8308 52.5609 63.9479C53.3711 64.1205 53.9914 64.2071 54.4217 64.2078C54.6062 64.2078 54.8756 64.2234 55.2299 64.2545C55.9336 64.3161 57.1314 64.3137 58.8231 64.2474C58.9241 64.2433 59.0242 64.2406 59.1231 64.2393C60.029 64.2278 60.8115 64.2 61.4708 64.156C62.6689 64.0758 63.9327 63.8423 64.9277 63.1601C65.3608 62.8644 65.7022 62.5226 65.9521 62.1348C65.9778 62.0945 66.0166 62.0642 66.062 62.0491C66.1074 62.0339 66.1566 62.0348 66.2016 62.0516C66.6521 62.2208 67.103 62.3375 67.5542 62.4018C69.1523 62.6285 70.6942 62.5954 72.1799 62.3023C73.1679 62.1084 74.1043 61.7125 74.7518 60.9329C74.8963 60.7582 75.0276 60.6273 75.2064 60.8252C75.4206 61.0618 75.6802 61.3176 75.9651 61.4861C76.7638 61.9572 77.6292 62.1896 78.5613 62.1835C79.1357 62.1802 79.5873 62.1162 79.916 61.9917C80.6645 61.7084 81.1322 61.1136 81.3918 60.3877C81.4018 60.3603 81.4174 60.3352 81.4376 60.3143C81.4578 60.2934 81.4822 60.277 81.5091 60.2662C81.536 60.2555 81.5649 60.2506 81.5938 60.2519C81.6227 60.2533 81.651 60.2608 81.6767 60.274C82.2192 60.5532 82.8849 60.5958 83.4739 60.4395C84.8457 60.075 85.9205 58.9319 86.3751 57.6082C86.6829 56.7141 86.8435 55.772 86.857 54.7819C86.8701 53.8429 86.8853 52.8754 86.7994 51.9465C86.7334 51.2264 86.6512 50.5077 86.5529 49.7903C86.535 49.6576 86.5488 49.5225 86.5933 49.3964C86.9132 48.4888 87.1452 47.5654 87.2893 46.626C87.3611 46.1621 87.359 45.8555 87.4207 45.358C87.455 45.0799 87.4735 44.7618 87.4762 44.4038C87.4816 43.639 87.4254 42.8428 87.3075 42.0151C87.0375 40.1289 86.1899 38.7083 84.7649 37.7534C83.5011 36.9067 81.7535 36.4367 80.1938 36.2235C78.9788 36.057 77.7205 35.9298 76.4187 35.8418C76.252 35.8306 76.0368 35.857 75.9136 35.8377C75.2549 35.7352 74.4185 35.7829 73.8366 35.7636C71.6701 35.6885 69.7113 35.6889 67.9603 35.7647C66.2154 35.8411 64.53 35.9816 62.9043 36.1859C61.1432 36.4079 59.5148 36.6516 58.019 36.9169C56.8748 37.1199 55.9131 37.2597 55.1339 37.3361C54.1163 37.437 53.1469 37.5074 52.2256 37.5473C51.3117 37.5872 50.4911 37.5811 49.7637 37.529C49.2 37.4891 48.6508 37.4634 48.1161 37.4519C47.644 37.4417 47.0948 37.3974 46.4685 37.3189C45.4677 37.193 44.374 37.0262 43.1874 36.8184C39.0345 36.0915 34.8896 35.7301 30.6832 35.7159C30.0171 35.7132 28.6931 35.7234 26.7111 35.7464C26.4209 35.7498 26.072 35.7667 25.6646 35.7971C25.5171 35.808 25.1689 35.8256 24.62 35.8499C24.185 35.8682 23.3883 35.9386 22.2299 36.0611C21.706 36.1166 21.2328 36.1812 20.8106 36.255C20.1391 36.3727 19.6697 36.4628 19.4024 36.525C18.2447 36.7951 16.9799 37.2123 16.0364 37.8295C14.2443 39.0031 13.6352 40.7441 13.3857 42.8688C13.2934 43.6559 13.2799 44.5276 13.3453 45.4839C13.4247 46.6304 13.5924 47.6808 13.8483 48.635C13.8813 48.7569 13.9648 49.0069 14.0989 49.3852C14.1615 49.5629 14.1686 49.7111 14.1403 49.8908C14.0521 50.464 13.9918 50.9594 13.9595 51.377C13.9406 51.6152 13.9025 52.1083 13.8453 52.8561C13.7557 54.0161 13.8285 55.2631 14.0635 56.597C14.244 57.6264 14.7407 58.576 15.5535 59.4456C15.5757 59.4692 15.6005 59.4897 15.6273 59.5065C15.6515 59.5221 15.8004 59.6256 16.0738 59.8172C16.9897 60.4594 17.9713 60.5985 19.0185 60.2344C19.0687 60.2171 19.1235 60.2188 19.1725 60.2392C19.2214 60.2595 19.2612 60.2972 19.2842 60.3451C19.4249 60.6388 19.5532 60.8767 19.6691 61.0587C19.8105 61.2821 19.991 61.4726 20.2105 61.6303C20.5904 61.9044 21.0753 62.0522 21.6652 62.0739C23.0195 62.1233 24.1712 61.7897 25.1201 61.0729C25.2413 60.9809 25.3521 60.8757 25.4524 60.7572C25.4794 60.7247 25.5019 60.7122 25.5201 60.7197C25.5396 60.7271 25.5565 60.7494 25.5706 60.7867C25.1457 61.236 24.6018 61.5856 23.9391 61.8353C22.5501 62.3582 20.5146 62.5114 19.5872 61.1633C19.4034 60.896 19.2657 60.6283 19.1741 60.3603C19.1705 60.3495 19.1647 60.3397 19.1569 60.3313C19.1492 60.323 19.1398 60.3165 19.1294 60.3122C19.119 60.3078 19.1077 60.3058 19.0964 60.3062C19.0851 60.3067 19.0741 60.3095 19.064 60.3146C18.2871 60.7034 17.2749 60.5714 16.5142 60.2141C14.512 59.2741 13.8544 57.0803 13.7443 55.0377C13.6483 53.2449 13.8019 51.5151 14.0352 49.7406C14.0459 49.6585 14.0372 49.575 14.01 49.4969C13.4382 47.8868 13.1691 46.0626 13.2028 44.0241C13.2402 41.7633 13.72 39.532 15.4727 38.0965C16.8648 36.9565 19.0084 36.4144 20.9268 36.1189C22.3343 35.9017 23.7007 35.7663 25.0261 35.7129C28.3463 35.5789 31.4775 35.5731 34.4199 35.6956C34.4563 35.697 34.566 35.7034 34.7492 35.7149C37.0437 35.8543 39.2338 36.0868 41.3195 36.4123C43.3783 36.7338 44.8168 36.9575 45.6351 37.0834C46.7059 37.2485 47.682 37.3419 48.5636 37.3636C49.6506 37.3899 50.783 37.462 51.8962 37.4346C53.9318 37.3859 55.8128 37.1808 58.013 36.7961C60.2866 36.3974 62.5578 36.0858 64.8267 35.8611C68.226 35.5251 71.6 35.5728 75.2064 35.6784C76.1217 35.7054 77.1224 35.7718 78.2087 35.8773C81.8252 36.2306 86.165 36.8885 87.2338 41.1197C87.9167 43.8241 87.5985 46.9021 86.661 49.5467C86.6327 49.6252 86.6354 49.7612 86.6691 49.9548C86.9223 51.4342 87.0317 53.0263 86.9974 54.7311C86.9752 55.8181 86.7785 56.8437 86.4074 57.8081C85.996 58.8748 85.3259 59.6679 84.3972 60.1877C83.5506 60.6618 82.4333 60.8415 81.5676 60.3349C81.5616 60.3315 81.5549 60.3295 81.5481 60.3289C81.5412 60.3284 81.5343 60.3294 81.5279 60.3318C81.5215 60.3342 81.5158 60.3381 81.5111 60.343C81.5065 60.3479 81.503 60.3538 81.5009 60.3603C81.0605 61.748 80.0766 62.3013 78.6471 62.3125C77.3642 62.3226 75.8843 61.8658 75.0387 60.8618C75.0338 60.8558 75.0275 60.851 75.0204 60.8477C75.0133 60.8445 75.0056 60.8429 74.9978 60.8431C74.9901 60.8433 74.9824 60.8453 74.9755 60.8489C74.9686 60.8525 74.9626 60.8576 74.9579 60.8638C74.4555 61.5162 73.774 61.971 72.9133 62.2282C71.1828 62.747 69.2887 62.7642 67.5108 62.5094C66.9909 62.435 66.5346 62.3128 66.142 62.1429C66.1275 62.1367 66.1113 62.1357 66.0962 62.1401C66.0811 62.1446 66.068 62.1542 66.0591 62.1673C65.0904 63.5743 63.5943 64.0535 61.9598 64.2362C61.8675 64.2464 61.3543 64.2768 60.4202 64.3276C59.204 64.3946 58.0412 64.3733 56.6694 64.3956C55.2642 64.419 53.855 64.358 52.4993 64.0494C51.6013 63.8454 50.7769 63.3652 50.3789 62.5023Z" fill="#787B83"/>
<path d="M50.3788 62.5023C50.362 62.486 50.3397 62.4816 50.3121 62.4891C50.2515 62.4742 50.2128 62.4837 50.1959 62.5175C49.806 63.2921 49.0423 63.7103 48.2008 63.9134C47.6957 64.0359 47.195 64.1167 46.6987 64.156C45.84 64.223 44.747 64.2846 43.4196 64.3408C41.8787 64.399 40.3274 64.3705 38.7656 64.2555C37.8362 64.1871 36.9668 63.9679 36.1573 63.5977C35.496 63.2951 34.9717 62.796 34.5844 62.1003C34.578 62.0887 34.5675 62.08 34.5549 62.0758C34.5424 62.0717 34.5288 62.0724 34.5167 62.0779C34.0446 62.2938 33.521 62.4319 32.9459 62.4921C31.3548 62.6596 29.7426 62.6891 28.1879 62.3165C27.205 62.081 26.313 61.5947 25.6816 60.7481C25.6439 60.6973 25.6068 60.7102 25.5705 60.7866C25.5563 60.7494 25.5395 60.7271 25.52 60.7196C25.5018 60.7122 25.4792 60.7247 25.4523 60.7572C25.3519 60.8756 25.2412 60.9809 25.1199 61.0729C24.171 61.7896 23.0194 62.1233 21.6651 62.0739C21.0751 62.0522 20.5902 61.9043 20.2104 61.6302C19.9908 61.4726 19.8104 61.282 19.6689 61.0587C19.5531 60.8766 19.4248 60.6388 19.284 60.345C19.261 60.2972 19.2213 60.2595 19.1723 60.2391C19.1234 60.2187 19.0686 60.2171 19.0184 60.2344C17.9711 60.5985 16.9896 60.4594 16.0737 59.8171C15.8002 59.6256 15.6514 59.5221 15.6271 59.5065C15.6003 59.4897 15.5755 59.4692 15.5534 59.4456C14.7405 58.5759 14.2439 57.6264 14.0634 56.597C13.8283 55.2631 13.7556 54.0161 13.8452 52.8561C13.9024 52.1083 13.9405 51.6152 13.9593 51.377C13.9916 50.9594 14.0519 50.464 14.1401 49.8908C14.1684 49.7111 14.1614 49.5629 14.0987 49.3852C13.9647 49.0069 13.8812 48.7568 13.8482 48.635C13.5923 47.6807 13.4246 46.6304 13.3451 45.4839C13.2798 44.5276 13.2933 43.6559 13.3855 42.8688C13.635 40.7441 14.2442 39.003 16.0363 37.8295C16.9798 37.2123 18.2446 36.795 19.4022 36.525C19.6696 36.4627 20.139 36.3727 20.8104 36.255C21.2327 36.1812 21.7058 36.1166 22.2298 36.0611C23.3881 35.9386 24.1848 35.8682 24.6199 35.8499C25.1688 35.8255 25.5169 35.8079 25.6644 35.7971C26.0719 35.7667 26.4207 35.7497 26.711 35.7463C28.693 35.7233 30.017 35.7132 30.6831 35.7159C34.8895 35.7301 39.0343 36.0915 43.1872 36.8184C44.3739 37.0261 45.4676 37.193 46.4683 37.3189C47.0947 37.3974 47.6439 37.4417 48.116 37.4518C48.6507 37.4633 49.1999 37.4891 49.7636 37.529C50.4909 37.5811 51.3115 37.5872 52.2254 37.5473C53.1467 37.5073 54.1162 37.437 55.1338 37.3361C55.913 37.2596 56.8747 37.1199 58.0189 36.9168C59.5146 36.6515 61.1431 36.4079 62.9042 36.1859C64.5299 35.9815 66.2152 35.8411 67.9602 35.7646C69.7112 35.6888 71.67 35.6885 73.8365 35.7636C74.4184 35.7829 75.2548 35.7352 75.9134 35.8377C76.0367 35.857 76.2519 35.8306 76.4185 35.8418C77.7203 35.9298 78.9787 36.057 80.1936 36.2235C81.7534 36.4367 83.501 36.9067 84.7647 37.7534C86.1898 38.7083 87.0373 40.1289 87.3074 42.015C87.4253 42.8428 87.4815 43.639 87.4761 44.4038C87.4734 44.7618 87.4549 45.0799 87.4205 45.358C87.3589 45.8555 87.3609 46.162 87.2892 46.626C87.1451 47.5653 86.9131 48.4888 86.5932 49.3964C86.5487 49.5225 86.5349 49.6575 86.5528 49.7903C86.6511 50.5077 86.7333 51.2264 86.7993 51.9465C86.8851 52.8754 86.87 53.8428 86.8569 54.7819C86.8434 55.772 86.6828 56.7141 86.375 57.6081C85.9204 58.9319 84.8456 60.075 83.4737 60.4394C82.8848 60.5958 82.2191 60.5531 81.6766 60.274C81.6508 60.2608 81.6226 60.2533 81.5937 60.2519C81.5648 60.2506 81.5359 60.2554 81.509 60.2662C81.482 60.2769 81.4576 60.2933 81.4374 60.3143C81.4172 60.3352 81.4016 60.3602 81.3917 60.3877C81.1321 61.1135 80.6644 61.7084 79.9158 61.9916C79.5872 62.1162 79.1356 62.1801 78.5611 62.1835C77.6291 62.1896 76.7637 61.9571 75.965 61.4861C75.6801 61.3176 75.4205 61.0618 75.2063 60.8252C75.0275 60.6273 74.8962 60.7582 74.7517 60.9328C74.1042 61.7125 73.1677 62.1084 72.1798 62.3023C70.6941 62.5953 69.1522 62.6285 67.5541 62.4018C67.1029 62.3375 66.652 62.2207 66.2014 62.0515C66.1565 62.0348 66.1073 62.0339 66.0619 62.049C66.0165 62.0642 65.9777 62.0944 65.9519 62.1348C65.7021 62.5226 65.3606 62.8644 64.9276 63.1601C63.9325 63.8423 62.6688 64.0758 61.4707 64.156C60.8114 64.2 60.0288 64.2277 59.123 64.2392C59.024 64.2406 58.924 64.2433 58.823 64.2474C57.1313 64.3137 55.9335 64.3161 55.2297 64.2545C54.8755 64.2233 54.6061 64.2078 54.4216 64.2078C53.9912 64.2071 53.371 64.1205 52.5608 63.9479C52.0106 63.8308 51.524 63.6065 51.1011 63.2748C50.7647 63.0109 50.6586 62.7601 50.4717 62.4556C50.4665 62.4474 50.4588 62.4413 50.4498 62.4382C50.4408 62.435 50.4311 62.4351 50.4222 62.4383C50.3953 62.4485 50.3808 62.4698 50.3788 62.5023ZM31.4953 36.3463L28.3616 36.3514C28.493 36.3602 28.595 36.3406 28.6677 36.2925C28.6718 36.2901 28.675 36.2863 28.6767 36.2819C28.6784 36.2774 28.6785 36.2725 28.6771 36.2679C28.6757 36.2634 28.6729 36.2594 28.669 36.2567C28.665 36.254 28.6603 36.2526 28.6556 36.2529C27.3592 36.2753 26.3214 36.2898 25.5422 36.2966C25.3927 36.2986 25.1805 36.3453 24.9926 36.3473C23.6471 36.3595 22.2863 36.5209 21.0428 36.7098C20.0703 36.8566 19.0557 37.0938 17.9991 37.4214C16.1807 37.9848 14.8251 39.0974 14.2149 40.9227C13.9758 41.6374 13.8273 42.3335 13.7694 43.0109C13.6159 44.7997 13.7239 46.6006 14.1836 48.368C14.1855 48.3754 14.1891 48.3823 14.1941 48.3881C14.1991 48.3939 14.2054 48.3984 14.2124 48.4014C14.2195 48.4043 14.2271 48.4056 14.2347 48.4051C14.2423 48.4046 14.2497 48.4023 14.2563 48.3985C14.2758 48.3876 14.287 48.3677 14.2897 48.3386L14.3482 48.4391C14.3495 48.4413 14.3512 48.4432 14.3533 48.4446C14.3554 48.446 14.3579 48.4469 14.3604 48.4472C14.3792 48.4492 14.3947 48.4404 14.4068 48.4208C14.4331 48.4465 14.4644 48.4441 14.5008 48.4137C14.5172 48.4005 14.5289 48.3827 14.5341 48.3629C14.922 46.9813 15.7544 45.8849 17.2859 46.8899C17.9014 47.294 18.3782 47.856 18.7163 48.5761C18.7205 48.5844 18.7271 48.5912 18.7353 48.5954C18.7436 48.5997 18.7529 48.6012 18.762 48.5997C18.7712 48.5982 18.7796 48.5939 18.7861 48.5872C18.7926 48.5806 18.7968 48.5721 18.7981 48.5629L18.8052 48.504C18.8288 48.588 18.8635 48.6279 18.9093 48.6238C18.9172 48.6229 18.9247 48.6193 18.9307 48.6137C18.9366 48.6081 18.9408 48.6006 18.9426 48.5924C19.0935 47.8378 19.345 47.1799 19.6972 46.6189C20.2579 45.7245 21.4337 45.7407 22.2651 46.2179C22.8342 46.5434 23.3353 46.9786 23.7683 47.5234C24.4923 48.4364 25.1095 49.48 25.62 50.6542C25.6281 50.6731 25.6395 50.6843 25.6543 50.6877C25.6705 50.6917 25.6887 50.6904 25.7089 50.6836C25.7062 50.7046 25.723 50.7154 25.7594 50.7161C25.7706 50.7162 25.7815 50.7124 25.7904 50.7054C25.7992 50.6984 25.8053 50.6885 25.8079 50.6775C25.9594 50.0129 26.1752 49.3676 26.4554 48.7416C26.811 47.9487 27.4595 47.2665 28.2768 47.0188C28.9263 46.8219 29.8204 46.8117 30.4972 47.0798C31.1356 47.3329 31.6892 47.6628 32.1579 48.0696C32.6947 48.5352 33.1439 49.0011 33.5055 49.4674C34.0787 50.2065 34.4693 51.0474 34.6774 51.9902C34.6786 51.9953 34.6809 52.0001 34.684 52.0043C34.6872 52.0084 34.6911 52.0119 34.6955 52.0145C34.7218 52.0301 34.7477 52.0237 34.7733 51.9952C34.7989 52.0372 34.8316 52.044 34.8713 52.0155C34.8713 52.0372 34.8801 52.0511 34.8976 52.0572C34.9053 52.0599 34.9135 52.061 34.9216 52.0603C34.9297 52.0596 34.9376 52.0572 34.9447 52.0531C34.9518 52.0491 34.958 52.0435 34.9627 52.0369C34.9675 52.0302 34.9708 52.0226 34.9723 52.0145C35.1148 51.2257 35.338 50.5659 35.634 49.7466C36.024 48.6695 36.621 47.5224 37.4251 46.7052C38.7282 45.38 40.3654 44.7706 42.3366 44.8768C43.8344 44.9574 45.1652 45.4524 46.3289 46.362C46.6209 46.5904 46.8088 46.8584 47.0441 47.0625C47.1836 47.183 47.3226 47.3352 47.4614 47.5193C47.6567 47.7799 47.7738 47.9413 47.8129 48.0036C48.8938 49.7385 49.5858 51.7496 49.9444 53.7474C50.0293 54.2185 50.1225 54.7585 50.2242 55.3676C50.2296 55.4008 50.2495 55.4137 50.2838 55.4062C50.3121 55.3994 50.3192 55.3788 50.305 55.3443L50.3485 55.4032C50.3513 55.4071 50.3548 55.4104 50.3589 55.4129C50.3631 55.4153 50.3676 55.4169 50.3724 55.4175C50.3772 55.418 50.382 55.4176 50.3866 55.4162C50.3911 55.4148 50.3954 55.4124 50.399 55.4093L50.4222 55.389C50.4478 55.4086 50.4663 55.4164 50.4778 55.4123C50.5128 55.4015 50.533 55.3761 50.5384 55.3362C50.729 53.8181 51.089 52.3245 51.6183 50.8552C51.9961 49.8062 52.5029 48.8259 53.1386 47.9142C53.9953 46.6869 55.1429 45.8159 56.548 45.3601C57.0147 45.2085 57.4185 45.1056 57.7593 45.0514C57.8603 45.0352 58.1509 45 58.6311 44.9459C58.9321 44.912 59.2224 44.9053 59.5018 44.9256C61.6677 45.0839 63.3335 46.2889 64.3679 48.1426C64.9256 49.1429 65.3707 50.3046 65.7034 51.6277C65.7236 51.7103 65.7344 51.777 65.7357 51.8277C65.7371 51.9245 65.7974 51.9814 65.9166 51.9983C65.9886 52.0084 66.0364 51.9699 66.06 51.8825C66.2974 50.977 66.8166 50.0867 67.351 49.4289C67.5234 49.2164 67.8632 48.858 68.3703 48.3538C68.7784 47.9477 69.3553 47.5691 69.7907 47.3579C70.5759 46.9776 71.3962 46.8727 72.2515 47.0432C73.1091 47.2148 73.7476 47.7224 74.1648 48.4553C74.4968 49.0387 74.7305 49.6712 74.8659 50.3527C74.8753 50.3967 74.9039 50.4136 74.9517 50.4034C74.9659 50.4007 74.9753 50.3909 74.98 50.374C75.0002 50.4336 75.0352 50.4691 75.0851 50.4806C75.073 50.4603 75.0709 50.4691 75.079 50.507C75.0811 50.5169 75.0863 50.5259 75.0937 50.5327C75.1012 50.5395 75.1105 50.5438 75.1205 50.545C75.1305 50.5463 75.1406 50.5443 75.1495 50.5395C75.1584 50.5347 75.1655 50.5272 75.1699 50.5182C75.5989 49.6566 76.0805 48.8489 76.6145 48.0949C76.7357 47.9237 76.8879 47.7454 77.0711 47.5599C77.6782 46.9488 78.1904 46.4382 79.0279 46.2016C79.3276 46.1164 79.6 46.091 79.8451 46.1255C80.1549 46.1681 80.4051 46.2778 80.5957 46.4544C81.1705 46.9853 81.4442 47.8685 81.6493 48.6685C81.6574 48.6983 81.6776 48.7091 81.7099 48.701C81.7254 48.6976 81.7402 48.6871 81.7544 48.6695L81.7827 48.7061C81.7869 48.7116 81.7926 48.7158 81.7991 48.7184C81.8055 48.721 81.8126 48.7218 81.8194 48.7207C81.8263 48.7197 81.8328 48.7169 81.8382 48.7125C81.8436 48.7081 81.8478 48.7024 81.8503 48.6959C82.0995 48.0476 82.4827 47.5207 82.9999 47.1153C83.996 46.3336 85.1587 46.0889 85.885 47.3589C86.0615 47.6675 86.1921 47.9833 86.277 48.3061C86.2858 48.3379 86.2992 48.3592 86.3174 48.37C86.3376 48.3822 86.3635 48.3897 86.3952 48.3924C86.408 48.4113 86.4235 48.4201 86.4417 48.4188C86.4834 48.4154 86.5097 48.3944 86.5205 48.3558C86.971 46.718 87.1522 45.0765 87.0639 43.4312C87.0458 43.0834 87.0023 42.7057 86.9336 42.2983C86.7407 41.142 86.3962 40.1065 85.6608 39.204C84.9799 38.3696 84.0121 37.8335 82.9959 37.4661C82.0099 37.1087 80.9913 36.8576 79.9401 36.7128C78.5191 36.5179 76.899 36.3825 75.08 36.3067C73.6913 36.2492 71.6767 36.2292 69.036 36.2468C67.7491 36.255 66.5271 36.3138 65.3701 36.4235C63.4581 36.6042 62.2422 36.7355 61.7222 36.8174C60.0615 37.0793 58.3674 37.3527 56.64 37.6376C56.3167 37.6911 55.9928 37.7412 55.6682 37.7879C55.4028 37.8251 55.0759 37.8545 54.6873 37.8762C53.9431 37.9181 53.1989 37.9946 52.4547 38.1056C51.6399 38.2071 50.7973 38.2146 49.9272 38.128L49.9454 38.0904C49.9482 38.0844 49.9495 38.0778 49.9491 38.0712C49.9487 38.0646 49.9467 38.0582 49.9432 38.0525C49.9397 38.0467 49.9349 38.042 49.9291 38.0385C49.9233 38.035 49.9168 38.033 49.9101 38.0325C48.8177 37.9845 47.8638 37.9317 47.0482 37.8742C46.1107 37.8078 44.9426 37.6556 43.5438 37.4173C41.4251 37.058 39.4014 36.7737 37.4726 36.5646C36.4836 36.457 35.8037 36.4245 34.7521 36.3453C33.6338 36.261 32.5812 36.2783 31.5003 36.2438C31.4936 36.2436 31.487 36.2451 31.481 36.248C31.475 36.2509 31.4699 36.2552 31.4659 36.2604C31.4619 36.2657 31.4593 36.2719 31.4583 36.2783C31.4572 36.2848 31.4578 36.2914 31.4599 36.2976C31.4646 36.3125 31.4764 36.3287 31.4953 36.3463ZM41.6851 45.2118C41.5207 45.2403 41.3709 45.2602 41.2355 45.2717C40.0344 45.3732 38.8757 45.889 37.9989 46.7244C37.6608 47.0466 37.4402 47.276 37.3372 47.4127C36.3846 48.6746 35.732 50.2471 35.3794 51.7628C35.0986 52.9708 34.9013 54.1735 34.7875 55.3707C34.71 56.1882 34.6619 56.816 34.643 57.2538C34.6019 58.2088 34.6322 59.2212 34.7339 60.2912C34.7811 60.7839 34.8471 61.1633 34.9319 61.4292C35.3592 62.7764 36.5119 63.3885 37.8302 63.5885C38.3454 63.6667 39.0172 63.7631 39.6162 63.755C39.7502 63.753 40.4314 63.7638 41.6598 63.7875C41.9841 63.7936 42.3286 63.8535 42.6023 63.8565C43.6576 63.8701 44.5944 63.8707 45.4127 63.8586C45.9188 63.8514 46.4714 63.7601 46.8946 63.7347C47.5486 63.6961 48.1624 63.554 48.7362 63.3083C49.4434 63.0048 49.8626 62.5855 49.9899 61.8302C50.1926 60.6296 50.2448 59.381 50.1464 58.0842C50.1293 57.8589 50.0747 57.666 50.0828 57.4396C50.0939 57.0731 50.0202 56.7422 49.9788 56.3595C49.8649 55.2874 49.6501 54.096 49.3343 52.785C49.2373 52.3837 49.1167 51.96 48.9726 51.514C48.8204 51.0437 48.6732 50.6278 48.5311 50.2664C48.0129 48.9467 47.2462 47.6168 46.1562 46.7376C44.8308 45.6687 43.4519 45.354 41.781 45.2078C41.7495 45.2051 41.7173 45.2064 41.6851 45.2118ZM62.7587 46.6382C62.2826 46.291 62.0017 46.093 61.9162 46.0443C60.9296 45.4805 59.8739 45.2362 58.7493 45.3113C58.36 45.3377 57.9054 45.4118 57.3855 45.5336C55.5557 45.9634 54.1505 46.9796 53.17 48.5822C52.485 49.7009 51.9527 50.9158 51.5728 52.2267C51.1196 53.7934 50.8236 55.3568 50.6849 56.9168C50.5845 58.0518 50.5482 59.1942 50.5758 60.344C50.5872 60.8293 50.6374 61.3291 50.7263 61.8434C50.832 62.4546 51.16 62.9077 51.7102 63.2028C52.315 63.5276 52.9814 63.7124 53.7094 63.757C54.2509 63.7895 54.8509 63.8687 55.3621 63.8667C56.4268 63.8626 57.4178 63.8613 58.3351 63.8626C59.0132 63.864 60.1665 63.8135 61.795 63.7114C62.5062 63.6667 63.1321 63.553 63.6729 63.3703C64.768 62.9997 65.6974 62.1774 65.8459 61.0364C65.9428 60.2987 65.9974 59.8473 66.0095 59.6821C66.0802 58.7428 66.0866 57.5939 66.0287 56.2356C66.0146 55.9026 65.9428 55.5818 65.9287 55.2133C65.924 55.0902 65.893 54.8357 65.8358 54.4499C65.7098 53.6039 65.63 53.0943 65.5963 52.9211C65.3249 51.5391 64.9525 50.3026 64.4791 49.2116C64.2339 48.6479 63.8871 48.0536 63.4386 47.429C63.2507 47.1681 62.9921 46.9397 62.8284 46.7092C62.8097 46.6817 62.7861 46.6576 62.7587 46.6382ZM25.423 59.877C25.2432 59.1346 25.1354 58.3929 25.0997 57.6518C25.0765 57.1604 25.0391 56.7726 25.0462 56.2305C25.061 55.1632 25.2159 53.6716 25.5109 51.7556C25.5297 51.6332 25.4974 51.4826 25.4139 51.3039C24.9559 50.3192 24.4791 49.4339 23.9835 48.6482C23.8117 48.3761 23.5316 48.0015 23.143 47.5244C22.951 47.2899 22.7379 47.1539 22.4207 46.9021C22.09 46.6395 21.6762 46.4791 21.1792 46.4209C20.6976 46.3654 20.3249 46.5546 20.0609 46.9884C19.8642 47.3112 19.708 47.6652 19.5922 48.0503C19.314 48.9795 19.1261 49.9172 19.0285 50.8633C18.9466 51.6602 18.8446 52.3495 18.8476 53.0835C18.8544 54.5758 18.8601 55.371 18.8648 55.4692C18.9207 56.6826 19.0733 57.8738 19.3224 59.0426C19.6316 60.4933 20.1579 61.6952 21.8752 61.6952C23.045 61.6952 24.6653 61.2211 25.3664 60.1867C25.3969 60.1419 25.4177 60.0912 25.4275 60.0379C25.4372 59.9846 25.4357 59.9298 25.423 59.877ZM81.7089 55.4722L81.721 52.6226C81.785 52.0473 81.7651 51.4064 81.6614 50.6999C81.4725 49.4167 81.2675 48.1548 80.6341 47.1457C80.3398 46.6767 79.9475 46.473 79.4572 46.5346C78.7349 46.625 77.956 47.1072 77.4499 47.6807C76.5337 48.7172 75.8053 50.0522 75.1831 51.3719C75.1574 51.426 75.1493 51.4868 75.1598 51.5455C75.3417 52.537 75.477 53.5149 75.5659 54.4794C75.6036 54.8895 75.6269 55.7517 75.6356 57.066C75.6387 57.5574 75.5518 58.0568 75.5134 58.5837C75.4784 59.0575 75.3918 59.5596 75.2538 60.0902C75.2411 60.1383 75.2409 60.189 75.2533 60.2373C75.2657 60.2856 75.2902 60.3301 75.3245 60.3664C76.0848 61.1717 77.0223 61.6377 78.1369 61.7643C78.5187 61.8079 78.8309 61.884 79.1107 61.7785C79.1502 61.7636 79.1921 61.7544 79.2349 61.7511C79.7313 61.7159 80.165 61.5057 80.5361 61.1206C80.6923 60.9589 80.8449 60.6888 80.9937 60.3105C81.1513 59.9105 81.253 59.6107 81.2988 59.4111C81.5143 58.4771 81.6799 57.4938 81.7958 56.461C81.8362 56.1016 81.8072 55.772 81.7089 55.4722ZM17.5617 47.6036C17.499 47.5704 17.3812 47.4811 17.2081 47.3356C17.0909 47.2368 16.869 47.1224 16.5424 46.9924C16.1727 46.8442 15.7171 47.0625 15.4807 47.3914C14.7341 48.4299 14.5523 49.7669 14.3472 51.2866C14.2752 51.8227 14.2317 52.3306 14.2169 52.8104C14.19 53.6943 14.1782 54.2046 14.1816 54.3413C14.1991 55.0052 14.2843 55.7054 14.4371 56.4417C14.8069 58.2274 15.8605 59.7522 17.7637 59.9968C18.2156 60.055 18.6065 59.9505 18.9365 59.6831C18.9866 59.6424 19.0227 59.5869 19.0397 59.5244C19.0568 59.4619 19.0539 59.3957 19.0315 59.3349C18.9823 59.2009 18.945 59.0625 18.9194 58.9197C18.7086 57.7462 18.5661 56.571 18.4921 55.394C18.4604 54.8837 18.4584 54.3738 18.486 53.8642C18.5244 53.1671 18.5483 52.7062 18.5577 52.4815C18.59 51.6748 18.6611 50.8613 18.7709 50.041C18.8005 49.817 18.7931 49.6495 18.7486 49.5385C18.4719 48.8475 18.0887 48.2127 17.599 47.634C17.5883 47.6219 17.5757 47.6117 17.5617 47.6036ZM81.6584 59.6913C81.6584 59.7193 81.665 59.7469 81.6776 59.772C81.6903 59.797 81.7086 59.8187 81.7311 59.8354C82.0019 60.0364 82.2383 60.1095 82.5817 60.0943C82.5925 60.0943 82.709 60.0936 82.9312 60.0923C83.897 60.0892 84.8981 59.3451 85.4032 58.5918C85.8558 57.9157 86.1639 57.133 86.3275 56.2437C86.5188 55.2055 86.5767 54.0933 86.5013 52.9069C86.4178 51.5966 86.2854 50.5009 86.1043 49.6197C85.9696 48.9646 85.8093 48.4337 85.6234 48.0269C85.4638 47.679 85.3308 47.451 85.2244 47.3427C84.6678 46.7772 84.0041 47.1021 83.4141 47.4767C82.7353 47.9081 82.2362 48.8726 81.9524 49.6167C81.9153 49.714 81.9028 49.8186 81.916 49.9212C82.1355 51.6301 82.2285 53.3413 82.1948 55.055C82.1837 55.593 82.0928 56.0732 82.0867 56.6112C82.0807 57.1513 81.9406 58.1367 81.6665 59.5674C81.6604 59.5985 81.6577 59.6398 81.6584 59.6913ZM34.4268 61.4891C34.4478 61.4728 34.4641 61.4511 34.4742 61.4264C34.4843 61.4016 34.4878 61.3746 34.4844 61.348C34.2804 59.7705 34.2985 58.5482 34.3167 56.73C34.3174 56.6312 34.3416 56.2992 34.3895 55.7341C34.4652 54.8357 34.6147 54.0682 34.5188 53.251C34.4332 52.5275 34.2985 51.9045 34.1147 51.3821C33.8083 50.5124 33.3237 49.7398 32.661 49.0644C32.6024 49.0049 32.424 48.8157 32.1256 48.4969C32.0981 48.4666 32.0676 48.439 32.0347 48.4147C31.603 48.0885 31.338 47.8963 31.2397 47.8381C30.4133 47.3518 29.3334 47.0716 28.4485 47.3407C27.4838 47.634 26.8797 48.5873 26.5554 49.4979C26.1938 50.5151 25.922 51.5837 25.7402 52.7038C25.7153 52.8588 25.6705 53.1403 25.6058 53.5484C25.522 54.0753 25.5139 54.5484 25.4705 55.1656C25.4065 56.0712 25.4038 56.9848 25.4624 57.9066C25.4799 58.1881 25.5476 58.6504 25.6654 59.2933C25.7463 59.7325 25.8668 60.073 26.0271 60.3146C26.2716 60.6827 26.5106 60.9535 26.7443 61.1267C27.2548 61.5071 27.8333 61.7615 28.4798 61.8901C28.9176 61.9774 29.3318 62.0296 29.7224 62.0465C30.7056 62.0898 31.6562 62.0695 32.5741 61.9856C32.9567 61.951 33.3783 61.8786 33.8389 61.7683C34.0598 61.7148 34.2558 61.6218 34.4268 61.4891ZM66.4924 58.9492C66.5732 59.2842 66.5537 59.604 66.4338 59.9085L66.1782 61.3907C66.1713 61.4318 66.178 61.474 66.1974 61.5109C66.2167 61.5478 66.2476 61.5772 66.2853 61.5947C66.6321 61.7558 66.9971 61.8668 67.3803 61.9277C68.9239 62.1747 70.3978 62.2038 71.8019 62.015C72.3219 61.9453 72.7909 61.817 73.2091 61.6302C74.1395 61.215 74.7749 60.5034 75.0053 59.4791C75.2113 58.5614 75.2346 57.8589 75.3124 56.8214C75.3292 56.6001 75.3245 56.351 75.2982 56.0742C75.2437 55.4925 75.2204 54.8773 75.1911 54.5322C75.1568 54.1288 75.0373 53.2256 74.8325 51.8227C74.782 51.4714 74.6924 51.0829 74.5638 50.6572C74.3658 50.0035 74.2483 49.6228 74.2113 49.5152C74.0638 49.0901 73.8392 48.6621 73.5375 48.231C72.8637 47.2696 71.5908 47.1813 70.5756 47.495C69.1431 47.9376 67.9723 49.1131 67.1722 50.3659C66.5954 51.2704 66.3075 52.181 66.1873 53.2256C66.1503 53.5505 66.1631 54.0164 66.2257 54.6235C66.3718 56.0407 66.4607 57.4826 66.4924 58.9492Z" fill="#787B83" stroke="#787B83" stroke-width="0.6" stroke-linejoin="round"/>
<path d="M49.9271 38.1278C47.6007 38.0689 46.2217 37.9674 44.3559 37.6619C42.9632 37.4338 41.6547 37.2287 40.4303 37.0467C37.4664 36.6061 34.488 36.3726 31.4951 36.3462C31.4763 36.3286 31.4645 36.3124 31.4598 36.2975C31.4577 36.2913 31.4571 36.2847 31.4581 36.2782C31.4592 36.2717 31.4618 36.2656 31.4658 36.2603C31.4697 36.255 31.4749 36.2508 31.4809 36.2479C31.4869 36.245 31.4935 36.2435 31.5002 36.2437C32.5811 36.2782 33.6337 36.2609 34.752 36.3452C35.8036 36.4244 36.4835 36.4568 37.4725 36.5645C39.4013 36.7736 41.425 37.0578 43.5437 37.4172C44.9425 37.6554 46.1106 37.8077 47.0481 37.874C47.8636 37.9316 48.8176 37.9843 49.91 38.0324C49.9167 38.0328 49.9232 38.0349 49.929 38.0384C49.9347 38.0418 49.9396 38.0466 49.9431 38.0523C49.9466 38.058 49.9486 38.0645 49.949 38.0711C49.9494 38.0777 49.9481 38.0843 49.9453 38.0903L49.9271 38.1278Z" fill="#787B83"/>
<path d="M86.395 48.3924C86.8233 46.8731 87.0162 45.3236 86.9738 43.744C86.9489 42.8174 86.797 41.9123 86.5182 41.0284C86.0485 39.5381 84.9726 38.4549 83.5331 37.8164C82.2643 37.255 80.8025 36.9159 79.5489 36.7707C78.3276 36.6296 76.687 36.4672 75.303 36.4185C73.447 36.3528 71.6384 36.3247 69.8773 36.3342C66.9033 36.3511 63.8973 36.5951 60.8593 37.0661C60.6404 37.1 59.078 37.3599 56.172 37.8458C55.1807 38.0109 53.9415 38.0976 52.4545 38.1057C53.1987 37.9947 53.9428 37.9182 54.687 37.8763C55.0756 37.8546 55.4026 37.8252 55.6679 37.7879C55.9925 37.7412 56.3165 37.6912 56.6397 37.6377C58.3672 37.3528 60.0612 37.0793 61.722 36.8174C62.2419 36.7355 63.4579 36.6042 65.3698 36.4235C66.5268 36.3139 67.7488 36.255 69.0358 36.2469C71.6764 36.2293 73.6911 36.2493 75.0798 36.3068C76.8988 36.3826 78.5188 36.518 79.9398 36.7129C80.9911 36.8577 82.0097 37.1088 82.9957 37.4661C84.0119 37.8336 84.9797 38.3696 85.6605 39.2041C86.396 40.1066 86.7404 41.1421 86.9334 42.2984C87.0021 42.7058 87.0455 43.0834 87.0637 43.4313C87.1519 45.0766 86.9708 46.7181 86.5202 48.3559C86.5094 48.3945 86.4832 48.4155 86.4414 48.4188C86.4232 48.4202 86.4077 48.4114 86.395 48.3924Z" fill="#787B83"/>
<path d="M28.3614 36.3514C27.0819 36.3731 25.8013 36.4123 24.5197 36.4692C22.3175 36.5677 19.9526 36.8895 17.9292 37.5534C15.7765 38.261 14.4895 39.6741 14.049 41.9278C13.6318 44.0647 13.7793 46.3611 14.2895 48.3386C14.2868 48.3677 14.2756 48.3877 14.2561 48.3985C14.2495 48.4024 14.2421 48.4046 14.2345 48.4051C14.2269 48.4056 14.2193 48.4043 14.2122 48.4014C14.2052 48.3985 14.1989 48.3939 14.1939 48.3881C14.1889 48.3823 14.1853 48.3755 14.1834 48.3681C13.7237 46.6006 13.6157 44.7997 13.7692 43.011C13.8271 42.3335 13.9756 41.6375 14.2147 40.9228C14.8249 39.0975 16.1805 37.9849 17.9989 37.4214C19.0555 37.0939 20.0701 36.8567 21.0426 36.7098C22.2861 36.521 23.6469 36.3596 24.9924 36.3474C25.1803 36.3453 25.3925 36.2986 25.542 36.2966C26.3212 36.2899 27.359 36.2753 28.6554 36.253C28.6601 36.2527 28.6649 36.254 28.6688 36.2567C28.6727 36.2595 28.6755 36.2634 28.6769 36.268C28.6783 36.2725 28.6782 36.2774 28.6765 36.2819C28.6748 36.2864 28.6716 36.2901 28.6675 36.2926C28.5948 36.3406 28.4928 36.3602 28.3614 36.3514Z" fill="#787B83"/>
<path d="M50.3046 55.3443C50.3188 55.3788 50.3117 55.3995 50.2834 55.4062C50.2491 55.4137 50.2292 55.4008 50.2238 55.3677C50.1221 54.7586 50.0289 54.2185 49.944 53.7475C49.5854 51.7496 48.8934 49.7385 47.8125 48.0036C47.7734 47.9413 47.6562 47.7799 47.4609 47.5194C47.3222 47.3353 47.1831 47.183 47.0437 47.0625C46.8084 46.8585 46.6205 46.5905 46.3285 46.3621C45.1648 45.4525 43.834 44.9574 42.3362 44.8769C40.365 44.7706 38.7278 45.3801 37.4247 46.7052C36.6206 47.5224 36.0235 48.6696 35.6336 49.7467C35.3376 50.5659 35.1144 51.2258 34.9719 52.0146C34.9704 52.0226 34.9671 52.0302 34.9623 52.0369C34.9576 52.0436 34.9514 52.0491 34.9443 52.0532C34.9372 52.0572 34.9293 52.0597 34.9212 52.0604C34.913 52.0611 34.9049 52.06 34.8972 52.0572C34.8797 52.0511 34.8709 52.0372 34.8709 52.0156C35.1524 50.4887 35.6579 49.1101 36.3872 47.8797C37.7873 45.5164 40.2239 44.4525 42.911 44.8231C44.7051 45.0701 46.1632 45.8369 47.2852 47.1234C47.8603 47.782 48.3614 48.6097 48.7883 49.6066C49.5749 51.44 50.0804 53.3526 50.3046 55.3443Z" fill="#787B83"/>
<path d="M74.9803 50.374C74.9756 50.3909 74.9661 50.4007 74.952 50.4034C74.9042 50.4136 74.8755 50.3967 74.8661 50.3527C74.7308 49.6712 74.4971 49.0387 74.165 48.4553C73.7478 47.7224 73.1094 47.2148 72.2517 47.0432C71.3964 46.8727 70.5762 46.9776 69.7909 47.3579C69.3555 47.5691 68.7787 47.9477 68.3706 48.3538C67.8635 48.858 67.5237 49.2164 67.3513 49.4289C66.8169 50.0867 66.2977 50.977 66.0603 51.8825C66.0367 51.9698 65.9889 52.0084 65.9168 51.9983C65.7976 51.9813 65.7373 51.9245 65.736 51.8277C65.7347 51.777 65.7239 51.7103 65.7037 51.6277C65.371 50.3046 64.9258 49.1429 64.3682 48.1426C63.3338 46.2889 61.668 45.0839 59.5021 44.9256C59.2226 44.9052 58.9324 44.912 58.6313 44.9459C58.1511 45 57.8605 45.0352 57.7595 45.0514C57.4187 45.1056 57.015 45.2084 56.5483 45.36C55.1431 45.8159 53.9955 46.6869 53.1389 47.9142C52.5031 48.8259 51.9964 49.8062 51.6186 50.8552C51.0892 52.3245 50.7292 53.8181 50.5387 55.3362C50.5333 55.3761 50.5131 55.4015 50.4781 55.4123C50.4666 55.4164 50.4481 55.4086 50.4225 55.389C50.6131 53.7153 51.0121 52.0934 51.6196 50.5232C52.1297 49.2035 52.9086 47.7833 53.8965 46.8229C54.9094 45.8382 56.1799 45.2105 57.708 44.9398C58.1404 44.8633 58.5131 44.819 58.8263 44.8068C61.4174 44.7083 63.4257 46.0656 64.5945 48.3193C65.1285 49.35 65.534 50.4572 65.8108 51.6409C65.8296 51.7228 65.8431 51.8098 65.8512 51.9018C65.852 51.9109 65.856 51.9194 65.8624 51.9259C65.8688 51.9324 65.8772 51.9364 65.8863 51.9374C65.8953 51.9383 65.9044 51.9361 65.912 51.9311C65.9196 51.9261 65.9252 51.9186 65.9279 51.9099C66.3091 50.6491 66.9876 49.5348 67.9635 48.567C69.2828 47.2594 70.8658 46.4311 72.6871 47.0412C74.057 47.501 74.7277 49.0421 74.9803 50.374Z" fill="#787B83"/>
<path d="M41.7806 45.2076C43.4514 45.3538 44.8303 45.6685 46.1557 46.7375C47.2457 47.6167 48.0125 48.9465 48.5307 50.2663C48.6728 50.6277 48.8199 51.0435 48.9721 51.5139C49.1163 51.9599 49.2368 52.3836 49.3338 52.7849C49.6496 54.0958 49.8645 55.2873 49.9783 56.3593C50.0197 56.7421 50.0934 57.073 50.0823 57.4395C50.0743 57.6659 50.1288 57.8587 50.146 58.0841C50.2443 59.3808 50.1921 60.6295 49.9894 61.8301C49.8621 62.5854 49.4429 63.0047 48.7357 63.3082C48.162 63.5539 47.5481 63.696 46.8942 63.7346C46.4709 63.7599 45.9183 63.8513 45.4122 63.8584C44.594 63.8706 43.6572 63.8699 42.6019 63.8564C42.3281 63.8533 41.9836 63.7935 41.6593 63.7874C40.431 63.7637 39.7497 63.7528 39.6157 63.7549C39.0167 63.763 38.3449 63.6666 37.8297 63.5884C36.5114 63.3884 35.3588 62.7762 34.9315 61.4291C34.8466 61.1631 34.7806 60.7838 34.7335 60.2911C34.6318 59.2211 34.6015 58.2086 34.6425 57.2537C34.6614 56.8158 34.7096 56.1881 34.787 55.3706C34.9008 54.1733 35.0981 52.9707 35.379 51.7626C35.7315 50.247 36.3841 48.6745 37.3367 47.4126C37.4398 47.2759 37.6603 47.0465 37.9984 46.7243C38.8753 45.8888 40.0339 45.3731 41.2351 45.2716C41.3704 45.2601 41.5203 45.2401 41.6846 45.2117C41.7168 45.2063 41.749 45.2049 41.7806 45.2076ZM35.0709 61.491C35.6881 63.4229 37.9691 63.5762 39.6299 63.6391C41.2078 63.6987 43.116 63.7254 45.3546 63.7193C46.0907 63.7173 46.8416 63.6517 47.6074 63.5224C48.565 63.361 49.6742 62.9641 49.8591 61.9002C50.0854 60.5987 50.0753 59.3541 49.9944 57.9257C49.8961 56.1668 49.6318 54.4258 49.2014 52.7027C48.8694 51.3728 48.3798 50.1038 47.7326 48.8958C46.7507 47.0624 45.0384 45.7812 42.9837 45.4625C41.4321 45.2219 39.9491 45.432 38.6954 46.2929C37.0781 47.4035 36.1184 49.4145 35.6184 51.2906C35.2096 52.8255 34.9496 54.4562 34.8385 56.1827C34.7415 57.6797 34.7439 59.0424 34.8456 60.2708C34.884 60.7337 34.9591 61.1405 35.0709 61.491Z" fill="#787B83"/>
<path d="M62.8286 46.7092C62.9922 46.9397 63.2508 47.1681 63.4387 47.429C63.8873 48.0537 64.2341 48.6479 64.4792 49.2116C64.9527 50.3026 65.3251 51.5391 65.5965 52.9211C65.6302 53.0943 65.71 53.604 65.8359 54.4499C65.8932 54.8357 65.9241 55.0902 65.9289 55.2134C65.943 55.5819 66.0147 55.9027 66.0289 56.2356C66.0868 57.5939 66.0804 58.7428 66.0097 59.6822C65.9976 59.8473 65.943 60.2987 65.846 61.0364C65.6975 62.1775 64.7682 62.9997 63.6731 63.3703C63.1323 63.553 62.5063 63.6667 61.7952 63.7114C60.1667 63.8136 59.0134 63.864 58.3352 63.8626C57.418 63.8613 56.427 63.8626 55.3622 63.8667C54.8511 63.8687 54.251 63.7895 53.7096 63.7571C52.9816 63.7124 52.3152 63.5276 51.7104 63.2028C51.1602 62.9077 50.8322 62.4546 50.7265 61.8435C50.6376 61.3291 50.5874 60.8293 50.576 60.344C50.5483 59.1942 50.5847 58.0518 50.6851 56.9168C50.8238 55.3568 51.1198 53.7935 51.573 52.2267C51.9528 50.9158 52.4852 49.701 53.1701 48.5822C54.1507 46.9796 55.5559 45.9634 57.3857 45.5337C57.9056 45.4118 58.3602 45.3377 58.7494 45.3113C59.8741 45.2362 60.9298 45.4805 61.9164 46.0443C62.0019 46.093 62.2827 46.291 62.7589 46.6382C62.7863 46.6577 62.8099 46.6817 62.8286 46.7092ZM51.1295 62.5896C51.772 63.353 52.759 63.5337 53.7156 63.6434C54.0961 63.6867 54.6679 63.7178 55.4309 63.7368C56.4331 63.7618 58.1928 63.7368 60.7102 63.6616C60.9331 63.6549 61.4042 63.6207 62.1235 63.5591C63.7307 63.42 65.447 62.7926 65.7359 60.9765C65.8295 60.3877 65.8908 59.78 65.9198 59.1533C66.0343 56.6573 65.807 54.2009 65.2379 51.7841C64.9422 50.5266 64.4745 49.3558 63.8347 48.2716C62.8771 46.6504 61.485 45.622 59.5879 45.4291C58.9474 45.3641 58.1585 45.487 57.5251 45.62C55.7276 45.9983 54.3389 46.9539 53.359 48.4868C51.7922 50.9374 51.1083 53.8327 50.8174 56.8163C50.6874 58.1462 50.6497 59.3979 50.7043 60.5714C50.7224 60.9714 50.7628 62.1531 51.1295 62.5896Z" fill="#787B83"/>
<path d="M81.7542 48.6694C81.7401 48.687 81.7253 48.6974 81.7098 48.7008C81.6775 48.7089 81.6573 48.6981 81.6492 48.6683C81.4441 47.8684 81.1703 46.9852 80.5955 46.4542C80.405 46.2776 80.1548 46.168 79.845 46.1253C79.5998 46.0908 79.3274 46.1162 79.0277 46.2015C78.1903 46.438 77.6781 46.9486 77.071 47.5598C76.8878 47.7452 76.7356 47.9235 76.6144 48.0948C76.0803 48.8487 75.5988 49.6564 75.1698 50.518C75.1654 50.5271 75.1582 50.5345 75.1494 50.5394C75.1405 50.5442 75.1304 50.5461 75.1204 50.5449C75.1104 50.5437 75.101 50.5393 75.0936 50.5325C75.0862 50.5257 75.081 50.5167 75.0789 50.5068C75.0708 50.4689 75.0728 50.4601 75.0849 50.4804C75.5624 49.4314 76.1605 48.466 76.879 47.5841C77.3565 46.998 77.8953 46.5598 78.4954 46.2695C79.3985 45.833 80.4066 45.8726 81.0077 46.7497C81.3417 47.2383 81.5906 47.8782 81.7542 48.6694Z" fill="#787B83"/>
<path d="M18.8052 48.504L18.7982 48.5629C18.7968 48.5721 18.7926 48.5806 18.7861 48.5872C18.7796 48.5939 18.7712 48.5982 18.7621 48.5997C18.7529 48.6012 18.7436 48.5997 18.7354 48.5954C18.7271 48.5912 18.7205 48.5844 18.7163 48.5761C18.3783 47.856 17.9015 47.294 17.2859 46.8899C15.7545 45.8849 14.9221 46.9813 14.5341 48.3629C14.5289 48.3827 14.5172 48.4005 14.5008 48.4137C14.4644 48.4441 14.4331 48.4465 14.4069 48.4208C14.714 47.1488 15.5827 45.7641 17.1162 46.6645C17.8698 47.1072 18.4328 47.7203 18.8052 48.504Z" fill="#787B83"/>
<path d="M25.4229 59.877C25.4356 59.9297 25.4371 59.9845 25.4274 60.0378C25.4176 60.0912 25.3968 60.1418 25.3663 60.1866C24.6652 61.221 23.0449 61.6951 21.8751 61.6951C20.1578 61.6951 19.6314 60.4932 19.3223 59.0425C19.0731 57.8737 18.9206 56.6825 18.8647 55.4691C18.86 55.3709 18.8543 54.5757 18.8475 53.0834C18.8445 52.3494 18.9465 51.6601 19.0284 50.8632C19.126 49.9171 19.3139 48.9794 19.5921 48.0502C19.7079 47.6651 19.8641 47.3111 20.0608 46.9883C20.3248 46.5545 20.6975 46.3653 21.1791 46.4208C21.6761 46.479 22.0899 46.6394 22.4206 46.902C22.7378 47.1538 22.9509 47.2898 23.1429 47.5243C23.5315 48.0014 23.8116 48.376 23.9834 48.6481C24.479 49.4339 24.9558 50.3191 25.4138 51.3038C25.4973 51.4825 25.5296 51.6331 25.5108 51.7556C25.2158 53.6715 25.0609 55.1632 25.0461 56.2304C25.039 56.7726 25.0764 57.1603 25.0996 57.6517C25.1353 58.3928 25.2431 59.1345 25.4229 59.877ZM25.4057 51.5637C24.7821 50.1418 24.0389 48.8758 23.1762 47.7659C22.6358 47.0715 20.9073 45.8046 20.1598 47.032C19.951 47.3751 19.788 47.7521 19.6708 48.1629C19.4506 48.9371 19.288 49.734 19.1829 50.5536C18.8223 53.3687 18.8374 56.4193 19.4718 59.1755C19.7113 60.216 20.0739 61.2485 21.1831 61.4972C22.5378 61.7997 24.3834 61.2414 25.2794 60.1348C25.2986 60.1112 25.312 60.0835 25.3187 60.0539C25.3253 60.0243 25.325 59.9936 25.3178 59.9643C25.0134 58.7007 24.8875 57.3884 24.94 56.0274C24.9636 55.4142 25.0144 54.7165 25.0926 53.9341C25.1673 53.1842 25.2767 52.4384 25.4209 51.6967C25.4294 51.6518 25.4241 51.6054 25.4057 51.5637Z" fill="#787B83"/>
<path d="M81.7209 52.6226C81.6132 51.2941 81.5088 50.3507 81.4078 49.7923C81.2573 48.9538 80.7926 46.5824 79.6268 46.6311C78.4095 46.6818 77.365 47.8158 76.7336 48.7843C76.1928 49.6147 75.7093 50.4928 75.283 51.4187C75.2698 51.447 75.2656 51.4792 75.2709 51.511C75.4406 52.4504 75.5739 53.4152 75.6709 54.4053C75.7591 55.3088 75.7766 56.349 75.7234 57.5259C75.6797 58.4897 75.5608 59.3482 75.3668 60.1014C75.3578 60.1366 75.3576 60.1734 75.3663 60.2085C75.3749 60.2436 75.3921 60.2759 75.4163 60.3024C76.4154 61.4029 77.9095 61.8354 79.3409 61.6181C79.8925 61.5338 80.3885 61.2263 80.6451 60.7583C80.8606 60.3644 81.0057 60.0351 81.0805 59.7705C81.4549 58.444 81.6644 57.0112 81.7088 55.4722C81.8072 55.7721 81.8361 56.1017 81.7957 56.461C81.6799 57.4938 81.5142 58.4772 81.2987 59.4111C81.2529 59.6108 81.1512 59.9106 80.9936 60.3106C80.8448 60.6889 80.6922 60.9589 80.536 61.1207C80.1649 61.5058 79.7312 61.7159 79.2349 61.7511C79.192 61.7545 79.1502 61.7637 79.1106 61.7785C78.8308 61.8841 78.5186 61.8079 78.1368 61.7643C77.0222 61.6377 76.0847 61.1718 75.3244 60.3664C75.2901 60.3301 75.2656 60.2857 75.2532 60.2373C75.2408 60.189 75.241 60.1384 75.2537 60.0903C75.3918 59.5597 75.4783 59.0575 75.5133 58.5837C75.5517 58.0569 75.6386 57.5574 75.6355 57.0661C75.6268 55.7518 75.6036 54.8895 75.5658 54.4794C75.4769 53.515 75.3416 52.537 75.1597 51.5455C75.1492 51.4868 75.1574 51.4261 75.183 51.372C75.8053 50.0522 76.5336 48.7173 77.4499 47.6808C77.956 47.1072 78.7348 46.625 79.4571 46.5346C79.9474 46.4731 80.3397 46.6768 80.634 47.1458C81.2674 48.1549 81.4724 49.4167 81.6614 50.6999C81.7651 51.4065 81.7849 52.0474 81.7209 52.6226Z" fill="#787B83"/>
<path d="M34.7731 51.9953C34.7476 52.0237 34.7216 52.0301 34.6954 52.0146C34.6909 52.012 34.687 52.0085 34.6839 52.0043C34.6807 52.0001 34.6785 51.9953 34.6772 51.9902C34.4691 51.0474 34.0785 50.2065 33.5054 49.4675C33.1437 49.0012 32.6945 48.5352 32.1578 48.0696C31.689 47.6629 31.1354 47.3329 30.497 47.0798C29.8202 46.8118 28.9261 46.822 28.2766 47.0189C27.4593 47.2666 26.8108 47.9488 26.4552 48.7417C26.1751 49.3677 25.9592 50.013 25.8077 50.6776C25.8052 50.6886 25.799 50.6984 25.7902 50.7054C25.7814 50.7124 25.7704 50.7162 25.7592 50.7162C25.7228 50.7155 25.706 50.7047 25.7087 50.6837C25.8905 49.6854 26.2209 48.8144 26.6997 48.0706C26.9037 47.7546 27.1997 47.4663 27.5876 47.2057C28.5241 46.5783 29.9555 46.6382 30.9061 47.1255C32.5386 47.9613 33.7182 49.2039 34.4448 50.8532C34.5829 51.1666 34.6923 51.5473 34.7731 51.9953Z" fill="#787B83"/>
<path d="M17.5991 47.634C18.0887 48.2126 18.4719 48.8475 18.7487 49.5385C18.7932 49.6495 18.8006 49.817 18.7709 50.041C18.6612 50.8612 18.5901 51.6747 18.5578 52.4815C18.5483 52.7061 18.5244 53.167 18.4861 53.8641C18.4584 54.3737 18.4605 54.8837 18.4921 55.394C18.5662 56.5709 18.7086 57.7461 18.9194 58.9197C18.945 59.0625 18.9824 59.2009 19.0316 59.3349C19.054 59.3956 19.0568 59.4619 19.0398 59.5243C19.0228 59.5868 18.9867 59.6423 18.9366 59.6831C18.6066 59.9504 18.2157 60.055 17.7638 59.9968C15.8606 59.7521 14.8069 58.2273 14.4372 56.4416C14.2843 55.7053 14.1991 55.0052 14.1816 54.3413C14.1783 54.2045 14.19 53.6942 14.217 52.8104C14.2318 52.3305 14.2752 51.8226 14.3473 51.2866C14.5524 49.7669 14.7342 48.4299 15.4807 47.3914C15.7171 47.0625 16.1727 46.8442 16.5424 46.9924C16.8691 47.1223 17.091 47.2367 17.2082 47.3355C17.3812 47.481 17.4991 47.5704 17.5617 47.6035C17.5758 47.6116 17.5884 47.6219 17.5991 47.634ZM18.9214 59.4537C18.5426 57.7248 18.3335 55.8528 18.3679 54.0286C18.3948 52.6337 18.4955 51.2551 18.6699 49.8928C18.6864 49.7639 18.6679 49.6327 18.6164 49.5131C18.2082 48.574 17.7173 47.7315 16.794 47.2168C15.2423 46.3518 14.7271 49.4877 14.5918 50.3435C14.3648 51.785 14.2732 53.1894 14.317 54.5565C14.3358 55.1541 14.4163 55.8011 14.5584 56.4975C14.9039 58.1888 16.0464 59.7613 17.8527 59.8963C18.2386 59.9254 18.5743 59.833 18.8598 59.6191C18.8848 59.6004 18.9039 59.5748 18.9148 59.5455C18.9257 59.5162 18.928 59.4843 18.9214 59.4537Z" fill="#787B83"/>
<path d="M81.6585 59.6911C81.6578 59.6397 81.6605 59.5984 81.6666 59.5673C81.9407 58.1366 82.0808 57.1512 82.0868 56.6111C82.0929 56.073 82.1838 55.5929 82.1949 55.0548C82.2286 53.3412 82.1357 51.63 81.9161 49.9211C81.9029 49.8185 81.9154 49.7138 81.9525 49.6165C82.2364 48.8724 82.7354 47.908 83.4142 47.4766C84.0042 47.102 84.6679 46.7771 85.2245 47.3425C85.3309 47.4508 85.4639 47.6789 85.6235 48.0268C85.8094 48.4335 85.9697 48.9645 86.1044 49.6196C86.2855 50.5008 86.4179 51.5965 86.5014 52.9067C86.5768 54.0931 86.5189 55.2054 86.3276 56.2436C86.164 57.1329 85.8559 57.9156 85.4033 58.5917C84.8982 59.345 83.8971 60.0891 82.9314 60.0921C82.7091 60.0935 82.5926 60.0942 82.5818 60.0942C82.2384 60.1094 82.002 60.0363 81.7313 59.8353C81.7087 59.8186 81.6904 59.7969 81.6777 59.7718C81.6651 59.7468 81.6585 59.7191 81.6585 59.6911ZM81.7535 59.6536C81.7488 59.6746 81.7508 59.6966 81.7594 59.7164C81.7679 59.7363 81.7824 59.753 81.801 59.7642C82.1895 60.0024 82.6189 60.0772 83.089 59.9886C85.4457 59.5409 86.2498 57.0436 86.3751 54.9127C86.431 53.9476 86.4121 52.9812 86.3185 52.0134C86.1832 50.6084 86.0316 49.3384 85.5558 48.1435C85.3013 47.505 84.8588 46.9081 84.083 47.2339C82.9768 47.6979 82.5515 48.513 82.0454 49.6541C82.0243 49.7019 82.0166 49.7546 82.0232 49.8064C82.2609 51.675 82.3492 53.5717 82.2879 55.4964C82.2448 56.875 82.0666 58.2607 81.7535 59.6536Z" fill="#787B83"/>
<path d="M34.4266 61.4891C34.2555 61.6218 34.0596 61.7148 33.8387 61.7683C33.378 61.8786 32.9564 61.951 32.5739 61.9855C31.656 62.0695 30.7054 62.0898 29.7221 62.0465C29.3315 62.0295 28.9173 61.9774 28.4796 61.8901C27.8331 61.7615 27.2546 61.5071 26.7441 61.1267C26.5104 60.9534 26.2713 60.6827 26.0268 60.3146C25.8666 60.073 25.746 59.7325 25.6652 59.2933C25.5473 58.6504 25.4797 58.1881 25.4621 57.9066C25.4036 56.9848 25.4063 56.0711 25.4702 55.1656C25.5137 54.5484 25.5217 54.0753 25.6056 53.5484C25.6702 53.1403 25.715 52.8588 25.7399 52.7038C25.9218 51.5837 26.1935 50.5151 26.5552 49.4979C26.8794 48.5873 27.4835 47.634 28.4483 47.3406C29.3332 47.0716 30.4131 47.3518 31.2394 47.8381C31.3378 47.8963 31.6028 48.0885 32.0345 48.4147C32.0674 48.439 32.0978 48.4665 32.1254 48.4969C32.4237 48.8157 32.6022 49.0049 32.6608 49.0644C33.3235 49.7398 33.808 50.5124 34.1145 51.3821C34.2983 51.9045 34.433 52.5275 34.5185 53.251C34.6145 54.0682 34.465 54.8357 34.3892 55.7341C34.3414 56.2992 34.3172 56.6312 34.3165 56.73C34.2983 58.5482 34.2801 59.7704 34.4842 61.348C34.4876 61.3746 34.4841 61.4016 34.474 61.4264C34.4639 61.4511 34.4475 61.4727 34.4266 61.4891ZM34.3731 61.2516C34.2801 60.7528 34.2273 60.2763 34.2145 59.8222C34.165 58.1096 34.1791 56.3808 34.3609 54.727C34.3953 54.4184 34.4478 54.1535 34.4387 53.8459C34.4054 52.6723 34.1458 51.4237 33.5578 50.4278C32.8416 49.2147 31.5768 47.9315 30.206 47.5142C28.4786 46.9884 27.3522 47.7416 26.7411 49.3263C25.942 51.3952 25.6379 53.6763 25.5399 55.9524C25.4975 56.9439 25.5588 57.9567 25.7238 58.9908C25.8066 59.5072 25.9208 59.8953 26.0662 60.1552C26.6299 61.1602 27.6987 61.6871 28.822 61.8373C30.103 62.0079 31.4748 62.0031 32.9376 61.8231C33.3639 61.771 33.7932 61.6668 34.2256 61.5104C34.2767 61.4916 34.3196 61.4553 34.3466 61.4079C34.3736 61.3605 34.383 61.3051 34.3731 61.2516Z" fill="#787B83"/>
<path d="M66.4341 59.9086C66.4449 60.4236 66.3954 60.9116 66.2856 61.3725C66.2788 61.4009 66.2823 61.4308 66.2954 61.457C66.3085 61.4832 66.3305 61.504 66.3574 61.5156C66.7305 61.6747 67.1126 61.7823 67.5039 61.8385C68.8306 62.0307 70.2119 62.0574 71.6477 61.9187C72.7084 61.8161 73.7691 61.3938 74.4248 60.537C74.7228 60.1462 74.8723 59.6751 74.946 59.2203C75.0396 58.6403 75.0901 58.3029 75.0975 58.2082C75.2174 56.6739 75.1709 55.0835 74.9581 53.4369C74.7541 51.8613 74.5025 50.5081 73.95 49.1711C73.6378 48.4179 73.0751 47.7072 72.2407 47.5204C70.2789 47.0829 68.4242 48.6889 67.4049 50.1964C66.723 51.2045 66.3968 52.1852 66.2877 53.3577C66.2614 53.6392 66.2806 54.0321 66.3452 54.5363C66.5298 55.9867 66.5789 57.4576 66.4927 58.9493C66.4611 57.4827 66.3722 56.0408 66.226 54.6236C66.1634 54.0165 66.1506 53.5506 66.1876 53.2257C66.3079 52.1811 66.5958 51.2705 67.1726 50.366C67.9727 49.1133 69.1435 47.9377 70.5759 47.4951C71.5912 47.1814 72.864 47.2697 73.5378 48.2311C73.8395 48.6622 74.0641 49.0902 74.2116 49.5153C74.2486 49.6229 74.3662 50.0036 74.5642 50.6573C74.6928 51.083 74.7824 51.4715 74.8329 51.8228C75.0376 53.2257 75.1571 54.1289 75.1915 54.5323C75.2208 54.8774 75.244 55.4926 75.2986 56.0743C75.3248 56.3511 75.3295 56.6002 75.3127 56.8215C75.2349 57.859 75.2117 58.5615 75.0056 59.4792C74.7753 60.5035 74.1399 61.2151 73.2095 61.6304C72.7913 61.8171 72.3222 61.9454 71.8023 62.0151C70.3981 62.2039 68.9243 62.1748 67.3807 61.9278C66.9975 61.8669 66.6325 61.7559 66.2856 61.5948C66.248 61.5773 66.2171 61.5479 66.1977 61.511C66.1784 61.4741 66.1716 61.4319 66.1786 61.3908L66.4341 59.9086Z" fill="#787B83"/>
<path d="M50.3119 62.489C49.8836 63.6321 48.3642 64.0676 47.3015 64.2118C46.0179 64.385 44.7238 64.428 43.4193 64.3407C44.7467 64.2845 45.8398 64.2229 46.6984 64.1559C47.1948 64.1167 47.6955 64.0358 48.2006 63.9133C49.0421 63.7103 49.8058 63.292 50.1957 62.5174C50.2126 62.4836 50.2513 62.4741 50.3119 62.489Z" fill="#787B83"/>
</g>
<circle opacity="0.7" cx="42.5" cy="54.5" r="14.5" stroke="#CF1039" stroke-width="2"/>
<defs>
<filter id="filter0_ng_1326_124" x="30.0001" y="41" width="24" height="27" filterUnits="userSpaceOnUse" color-interpolation-filters="sRGB">
<feFlood flood-opacity="0" result="BackgroundImageFix"/>
<feBlend mode="normal" in="SourceGraphic" in2="BackgroundImageFix" result="shape"/>
<feTurbulence type="fractalNoise" baseFrequency="2 2" stitchTiles="stitch" numOctaves="3" result="noise" seed="454" />
<feColorMatrix in="noise" type="luminanceToAlpha" result="alphaNoise" />
<feComponentTransfer in="alphaNoise" result="coloredNoise1">
<feFuncA type="discrete" tableValues="1 1 1 1 1 1 1 1 1 1 1 1 1 1 1 1 1 1 1 1 1 1 1 1 1 1 1 1 1 1 1 1 1 1 1 1 1 1 1 1 1 1 1 1 1 1 1 1 1 1 1 0 0 0 0 0 0 0 0 0 0 0 0 0 0 0 0 0 0 0 0 0 0 0 0 0 0 0 0 0 0 0 0 0 0 0 0 0 0 0 0 0 0 0 0 0 0 0 0 0 "/>
</feComponentTransfer>
<feComposite operator="in" in2="shape" in="coloredNoise1" result="noise1Clipped" />
<feFlood flood-color="rgba(0, 0, 0, 0.25)" result="color1Flood" />
<feComposite operator="in" in2="noise1Clipped" in="color1Flood" result="color1" />
<feMerge result="effect1_noise_1326_124">
<feMergeNode in="shape" />
<feMergeNode in="color1" />
</feMerge>
<feTurbulence type="fractalNoise" baseFrequency="10 10" numOctaves="3" seed="6446" />
<feDisplacementMap in="effect1_noise_1326_124" scale="4" xChannelSelector="R" yChannelSelector="G" result="displacedImage" width="100%" height="100%" />
<feMerge result="effect2_texture_1326_124">
<feMergeNode in="displacedImage"/>
</feMerge>
</filter>
<linearGradient id="paint0_linear_1326_124" x1="42.0001" y1="45" x2="42.0001" y2="64" gradientUnits="userSpaceOnUse">
<stop stop-color="#A9AAAB"/>
<stop offset="0.5" stop-color="#DEDFE1"/>
<stop offset="1" stop-color="#A9AAAB"/>
</linearGradient>
<linearGradient id="paint1_linear_1326_124" x1="42.0001" y1="43" x2="42.0001" y2="66" gradientUnits="userSpaceOnUse">
<stop stop-color="#A9AAAB"/>
<stop offset="0.5" stop-color="#DEDFE1"/>
<stop offset="1" stop-color="#A9AAAB"/>
</linearGradient>
</defs>
</svg>
