<svg width="100" height="100" viewBox="0 0 100 100" fill="none" xmlns="http://www.w3.org/2000/svg">
<circle cx="50" cy="50" r="50" fill="white"/>
<mask id="mask0_1326_958" style="mask-type:alpha" maskUnits="userSpaceOnUse" x="10" y="30" width="80" height="40">
<rect x="10" y="30" width="80" height="40" fill="#D9D9D9"/>
</mask>
<g mask="url(#mask0_1326_958)">
<mask id="mask1_1326_958" style="mask-type:alpha" maskUnits="userSpaceOnUse" x="10" y="30" width="80" height="40">
<rect x="10" y="30" width="80" height="40" fill="#D9D9D9"/>
</mask>
<g mask="url(#mask1_1326_958)">
<path d="M76.4648 30.9521C77.7822 30.6485 79.3866 30.447 81.4287 30.749C83.6953 31.0851 85.5667 32.3148 86.7998 34.3721C88.0408 36.4426 88.6565 39.3912 88.2998 43.1699C87.9304 47.078 86.5961 50.4809 85.249 53.8877C83.9108 57.2722 82.5526 60.6753 82.2607 64.4688C82.1267 66.2099 81.8026 67.4004 81.4102 68.1738C81.0192 68.9442 80.5852 69.2574 80.2354 69.3574C79.8873 69.4568 79.5009 69.3801 79.124 69.1182C78.7438 68.8538 78.4053 68.4184 78.207 67.8887C77.9779 67.2757 77.7056 66.3895 77.3848 65.3701C77.0674 64.3619 76.707 63.24 76.3086 62.1943C75.9128 61.1554 75.4675 60.1564 74.9707 59.4082C74.7222 59.034 74.4442 58.6968 74.1318 58.4482C73.8169 58.1978 73.4359 58.0138 73 58.0137C72.5639 58.0137 72.1822 58.1976 71.8672 58.4482C71.5548 58.6968 71.2768 59.0339 71.0283 59.4082C70.5316 60.1564 70.0862 61.1553 69.6904 62.1943C69.2922 63.2399 68.9316 64.3619 68.6143 65.3701C68.2933 66.3895 68.0214 67.2758 67.792 67.8887C67.594 68.4183 67.256 68.8539 66.876 69.1182C66.4992 69.3801 66.1127 69.4569 65.7646 69.3574C65.4148 69.2574 64.9808 68.9443 64.5898 68.1738C64.1974 67.4004 63.8733 66.2099 63.7393 64.4688C63.4473 60.6753 62.0892 57.2722 60.751 53.8877C59.4039 50.4809 58.0696 47.078 57.7002 43.1699C57.3429 39.3912 57.959 36.4426 59.2002 34.3721C60.4334 32.3148 62.3047 31.0851 64.5713 30.749C66.6135 30.447 68.218 30.6485 69.5352 30.9521C70.2011 31.1057 70.7893 31.2846 71.3477 31.4453C71.8932 31.6024 72.4271 31.7477 72.9297 31.8066L72.999 31.8145L73.0693 31.8066C73.5721 31.7477 74.1057 31.6023 74.6514 31.4453C75.21 31.2846 75.7987 31.1057 76.4648 30.9521Z" fill="white" stroke="#787B83" stroke-width="1.2"/>
<path d="M30.4648 30.9521C31.7822 30.6485 33.3866 30.447 35.4287 30.749C37.6953 31.0851 39.5667 32.3148 40.7998 34.3721C42.0408 36.4426 42.6565 39.3912 42.2998 43.1699C41.9304 47.078 40.5961 50.4809 39.249 53.8877C37.9108 57.2722 36.5526 60.6753 36.2607 64.4688C36.1267 66.2099 35.8026 67.4004 35.4102 68.1738C35.0192 68.9442 34.5852 69.2574 34.2354 69.3574C33.8873 69.4568 33.5009 69.3801 33.124 69.1182C32.7438 68.8538 32.4053 68.4184 32.207 67.8887C31.9779 67.2757 31.7056 66.3895 31.3848 65.3701C31.0674 64.3619 30.707 63.24 30.3086 62.1943C29.9128 61.1554 29.4675 60.1564 28.9707 59.4082C28.7222 59.034 28.4442 58.6968 28.1318 58.4482C27.8169 58.1978 27.4359 58.0138 27 58.0137C26.5639 58.0137 26.1822 58.1976 25.8672 58.4482C25.5548 58.6968 25.2768 59.0339 25.0283 59.4082C24.5316 60.1564 24.0862 61.1553 23.6904 62.1943C23.2922 63.2399 22.9316 64.3619 22.6143 65.3701C22.2933 66.3895 22.0214 67.2758 21.792 67.8887C21.594 68.4183 21.256 68.8539 20.876 69.1182C20.4992 69.3801 20.1127 69.4569 19.7646 69.3574C19.4148 69.2574 18.9808 68.9443 18.5898 68.1738C18.1974 67.4004 17.8733 66.2099 17.7393 64.4688C17.4473 60.6753 16.0892 57.2722 14.751 53.8877C13.4039 50.4809 12.0696 47.078 11.7002 43.1699C11.3429 39.3912 11.959 36.4426 13.2002 34.3721C14.4334 32.3148 16.3047 31.0851 18.5713 30.749C20.6135 30.447 22.218 30.6485 23.5352 30.9521C24.2011 31.1057 24.7893 31.2846 25.3477 31.4453C25.8932 31.6024 26.4271 31.7477 26.9297 31.8066L26.999 31.8145L27.0693 31.8066C27.5721 31.7477 28.1057 31.6023 28.6514 31.4453C29.21 31.2846 29.7987 31.1057 30.4648 30.9521Z" fill="url(#paint0_linear_1326_958)" stroke="#787B83" stroke-width="1.2"/>
<mask id="mask2_1326_958" style="mask-type:alpha" maskUnits="userSpaceOnUse" x="11" y="30" width="33" height="39">
<path d="M30.5996 31.5361C31.8621 31.2451 33.3892 31.0532 35.3408 31.3418C37.4286 31.6513 39.1439 32.7756 40.2852 34.6797C41.4423 36.6104 42.0506 39.4208 41.7021 43.1123C41.3419 46.9236 40.0407 50.2511 38.6904 53.666C37.3578 57.0362 35.962 60.5232 35.6621 64.4219C35.5315 66.118 35.2192 67.223 34.875 67.9014C34.534 68.5732 34.2131 68.7396 34.0713 68.7803C33.9332 68.8197 33.7305 68.8073 33.4668 68.624C33.2302 68.4596 32.995 68.1854 32.833 67.833L32.7686 67.6777C32.5467 67.084 32.2826 66.2197 31.958 65.1885C31.6405 64.1797 31.2754 63.0432 30.8701 61.9795C30.47 60.9292 30.005 59.8809 29.4707 59.0762C29.2032 58.6733 28.8846 58.2796 28.5049 57.9775C28.1684 57.7099 27.7369 57.4786 27.2246 57.4248L27 57.4131C26.3881 57.4131 25.8788 57.6716 25.4941 57.9775C25.1145 58.2796 24.7968 58.6733 24.5293 59.0762C23.9951 59.8809 23.53 60.9291 23.1299 61.9795C22.7247 63.0431 22.3595 64.1799 22.042 65.1885C21.7984 65.9621 21.5887 66.6419 21.4053 67.1836L21.2305 67.6777C21.0708 68.1048 20.8033 68.4372 20.5332 68.625C20.27 68.8079 20.0676 68.8196 19.9297 68.7803C19.7881 68.7398 19.4663 68.574 19.125 67.9014C18.7808 67.2229 18.4685 66.118 18.3379 64.4219C18.0379 60.5232 16.6422 57.0362 15.3096 53.666C13.9593 50.2511 12.6581 46.9236 12.2979 43.1123C11.9488 39.4208 12.5576 36.6103 13.7148 34.6797C14.8562 32.7757 16.5714 31.6514 18.6592 31.3418L19.0195 31.293C20.8004 31.0771 22.2168 31.2633 23.4004 31.5361C24.0462 31.685 24.6139 31.8571 25.1816 32.0205C25.7237 32.1765 26.3016 32.3359 26.8594 32.4014L26.999 32.418L27.1396 32.4014C27.6976 32.3359 28.2752 32.1765 28.8174 32.0205C29.3854 31.857 29.9535 31.6851 30.5996 31.5361ZM17.2754 65.7236C17.2883 65.8112 17.3033 65.897 17.3174 65.9814C17.3053 65.9086 17.2916 65.8349 17.2803 65.7598L17.2754 65.7236ZM16.8789 62.4795C16.9594 62.9308 17.0278 63.3864 17.0791 63.8477L17.1416 64.5137C17.0885 63.8236 16.9979 63.1467 16.8789 62.4795ZM16.6104 61.1865C16.6405 61.314 16.6681 61.4422 16.6963 61.5703C16.6681 61.4422 16.6405 61.314 16.6104 61.1865ZM16.4502 60.5449C16.4853 60.6787 16.5187 60.8129 16.5518 60.9473C16.5187 60.8129 16.4853 60.6787 16.4502 60.5449ZM28.6416 60.0107C28.7329 60.1632 28.8216 60.3259 28.9102 60.4961C28.8762 60.4309 28.8429 60.3664 28.8086 60.3037L28.6416 60.0107ZM16.2842 59.9404C16.2966 59.984 16.309 60.0276 16.3213 60.0713C16.309 60.0276 16.2966 59.984 16.2842 59.9404ZM16.0977 59.3115C16.1183 59.3788 16.138 59.4463 16.1582 59.5137C16.138 59.4463 16.1183 59.3788 16.0977 59.3115ZM27.4492 58.7207C27.5836 58.7846 27.7137 58.8781 27.8438 58.9932C27.7137 58.8781 27.5836 58.7846 27.4492 58.7207ZM15.8828 58.6338C15.8985 58.6816 15.9142 58.7295 15.9297 58.7773C15.9142 58.7295 15.8985 58.6816 15.8828 58.6338ZM27.0977 58.6182C27.1016 58.6186 27.1054 58.6197 27.1094 58.6201C27.1051 58.6196 27.1009 58.6186 27.0967 58.6182L27 58.6133L27.0977 58.6182ZM15.6611 57.9775C15.7003 58.0906 15.7381 58.2041 15.7764 58.3174C15.7381 58.2041 15.7003 58.0906 15.6611 57.9775ZM15.4658 57.4248C15.4945 57.5045 15.5225 57.5843 15.5508 57.6641C15.5225 57.5843 15.4945 57.5045 15.4658 57.4248ZM15.2422 56.8145C15.2653 56.8765 15.2877 56.9389 15.3105 57.001C15.2877 56.9389 15.2653 56.8765 15.2422 56.8145ZM14.4717 54.8154C14.3211 54.4333 14.171 54.05 14.0195 53.666C14.171 54.05 14.3211 54.4333 14.4717 54.8154ZM41.917 48.2158C41.7857 48.6696 41.6454 49.1181 41.499 49.5625C41.6454 49.1181 41.7857 48.6697 41.917 48.2158ZM11.5459 46.085C11.4989 45.8641 11.4538 45.6418 11.4121 45.418C11.4538 45.6418 11.4989 45.8641 11.5459 46.085ZM42.71 44.7031H42.7109H42.71ZM42.7393 38.0225C42.9804 39.3622 43.0602 40.8603 42.9541 42.5088H42.9531C43.0289 41.3315 43.0101 40.231 42.9053 39.21C42.8843 39.0056 42.8598 38.8044 42.832 38.6064L42.7393 38.0225ZM42.4932 36.9131H42.4941H42.4932ZM41.9834 35.3975H41.9844H41.9834ZM33.6455 30C34.228 30.0086 34.8503 30.0558 35.5166 30.1543C37.1976 30.4035 38.6814 31.1124 39.875 32.249C38.6815 31.1125 37.1976 30.4045 35.5166 30.1553C34.8503 30.0567 34.2281 30.0086 33.6455 30ZM32.6377 30.0234V30.0244C32.5304 30.031 32.4247 30.0389 32.3203 30.0479C29.9198 30.2543 28.2868 31.059 27 31.21L26.6562 31.1562C26.5397 31.1342 26.4204 31.1075 26.2979 31.0781C26.5436 31.137 26.7772 31.1828 27 31.209C28.3427 31.0514 30.0624 30.1822 32.6377 30.0234ZM26.1279 31.0352C26.072 31.0208 26.0153 31.0066 25.958 30.9912C26.0153 31.0066 26.072 31.0208 26.1279 31.0352ZM19.1621 30.0703C18.9411 30.0927 18.7149 30.121 18.4834 30.1553L18.0293 30.2344C17.817 30.2773 17.6086 30.3296 17.4033 30.3877C17.7533 30.2886 18.1133 30.2092 18.4834 30.1543C18.7149 30.1201 18.9411 30.0927 19.1621 30.0703ZM21.2021 30.0156C21.552 30.0329 21.8861 30.0651 22.2061 30.1055C21.8861 30.0651 21.552 30.0329 21.2021 30.0156ZM36.7197 65.7539C36.6979 65.8996 36.6733 66.0407 36.6484 66.1777C36.6733 66.0407 36.6979 65.8996 36.7197 65.7539ZM16.7549 61.835C16.7945 62.0256 16.8313 62.217 16.8662 62.4092C16.8313 62.217 16.7945 62.0256 16.7549 61.835ZM14.7129 55.4297C14.8156 55.693 14.9163 55.9565 15.0166 56.2197C14.9163 55.9565 14.8156 55.693 14.7129 55.4297ZM14.7129 55.4297C14.6331 55.225 14.5524 55.0204 14.4717 54.8154C14.5524 55.0204 14.6331 55.225 14.7129 55.4297ZM11.6475 46.5361C11.613 46.3863 11.5781 46.2361 11.5459 46.085C11.5781 46.2361 11.613 46.3863 11.6475 46.5361ZM11.0479 42.5312C11.0352 42.3378 11.0262 42.1463 11.0186 41.957C11.0262 42.1463 11.0352 42.3378 11.0479 42.5312Z" fill="url(#paint1_linear_1326_958)"/>
</mask>
<g mask="url(#mask2_1326_958)">
<g filter="url(#filter0_ng_1326_958)">
<path d="M37.1613 84.9895C37.0866 84.9964 37.0121 84.9984 36.9376 84.9983C37.012 84.9984 37.0866 84.9964 37.1613 84.9895ZM36.6154 84.9778C36.6958 84.9884 36.7765 84.9956 36.8575 84.9983C36.7765 84.9955 36.6958 84.9884 36.6154 84.9778ZM37.3038 84.9729C37.2616 84.9794 37.2191 84.9834 37.1769 84.9875C37.2205 84.9832 37.2642 84.9787 37.3077 84.9719L37.3038 84.9729ZM37.8507 84.8196C37.768 84.853 37.6859 84.8837 37.6027 84.9075L37.4532 84.9446C37.5864 84.9155 37.7187 84.8729 37.8507 84.8196ZM38.5616 84.3997C38.4819 84.4633 38.4016 84.5215 38.3204 84.5745C38.4016 84.5215 38.4819 84.4633 38.5616 84.3997ZM15.1554 84.0305C15.1879 84.0655 15.2211 84.0991 15.254 84.1321C15.2211 84.0991 15.1879 84.0655 15.1554 84.0305ZM15.6847 29.844C18.2221 29.5365 20.2403 29.801 21.9269 30.1897C22.8472 30.4019 23.6569 30.6472 24.4659 30.8801C25.2383 31.1025 26.0618 31.3298 26.8566 31.4231L27.0558 31.4465L27.256 31.4231C28.051 31.3298 28.8741 31.1024 29.6466 30.8801C30.4561 30.6472 31.266 30.4019 32.1866 30.1897C33.9857 29.7751 36.1617 29.5021 38.9425 29.9133C41.9176 30.3544 44.3621 31.9569 45.9884 34.6702C47.6372 37.4214 48.5044 41.4266 48.0079 46.6868C47.4945 52.1177 45.6401 56.8597 43.7159 61.7258C41.817 66.5283 39.8279 71.4974 39.4005 77.053C39.2144 79.4698 38.7689 81.0443 38.2784 82.011C37.793 82.9674 37.3362 83.2047 37.1339 83.2629C36.9371 83.3192 36.6474 83.3015 36.2716 83.0403C35.9346 82.8059 35.6 82.4153 35.3693 81.9133L35.2775 81.6926C34.9613 80.8466 34.5847 79.6143 34.1222 78.1448C33.6698 76.7074 33.1488 75.0882 32.5714 73.5725C32.0012 72.0758 31.3386 70.5816 30.5773 69.4348C30.1961 68.8607 29.7423 68.2997 29.2013 67.8694C28.7218 67.4881 28.107 67.158 27.3771 67.0813L27.0568 67.0647C26.185 67.0647 25.4594 67.4335 24.9113 67.8694C24.3703 68.2997 23.9174 68.8607 23.5363 69.4348C22.775 70.5816 22.1123 72.0757 21.5421 73.5725C20.9648 75.0881 20.4438 76.7076 19.9913 78.1448C19.6443 79.2473 19.3455 80.2165 19.0841 80.9885L18.8351 81.6926C18.6076 82.3009 18.2267 82.7746 17.8419 83.0422C17.4669 83.303 17.1781 83.319 16.9816 83.2629C16.7799 83.2053 16.3214 82.9693 15.8351 82.011C15.3446 81.0443 14.8991 79.4698 14.713 77.053C14.2855 71.4974 12.2965 66.5283 10.3976 61.7258C8.47348 56.8597 6.61903 52.1177 6.10559 46.6868C5.60823 41.4266 6.47611 37.4213 8.12512 34.6702C9.75161 31.9569 12.1959 30.3544 15.171 29.9133L15.6847 29.844ZM14.2482 82.6575C14.3074 82.78 14.3678 82.8972 14.4298 83.009C14.3678 82.8972 14.3074 82.78 14.2482 82.6575ZM40.2902 81.6086C40.3465 81.4427 40.4012 81.27 40.4532 81.0901C40.4012 81.27 40.3465 81.4427 40.2902 81.6086ZM20.4366 82.2913C20.4192 82.338 20.3978 82.383 20.379 82.429L20.4366 82.2903C20.4683 82.2058 20.4977 82.1169 20.5304 82.0256C20.4976 82.1172 20.4684 82.2065 20.4366 82.2913ZM41.0187 78.1047C40.928 78.9157 40.8051 79.643 40.6573 80.2932C40.8051 79.643 40.928 78.9157 41.0187 78.1047ZM12.8585 75.7366C12.9202 76.2147 12.9715 76.6972 13.0089 77.1838L13.0948 78.1047C13.0618 77.809 13.0324 77.502 13.0079 77.1838C12.9705 76.6971 12.9202 76.2148 12.8585 75.7366ZM22.6593 75.5051C22.5213 75.8999 22.3868 76.2972 22.256 76.6926C22.3868 76.2972 22.5213 75.8999 22.6593 75.5051ZM12.6456 74.342C12.6503 74.3683 12.6537 74.3948 12.6583 74.4211C12.6537 74.3948 12.6503 74.3683 12.6456 74.342ZM12.4611 73.3889C12.4783 73.4721 12.4942 73.5555 12.5109 73.6389C12.4942 73.5555 12.4783 73.4721 12.4611 73.3889ZM12.2482 72.426C12.2925 72.6132 12.3328 72.8014 12.3741 72.9895C12.3328 72.8014 12.2925 72.6132 12.2482 72.426ZM12.0226 71.5266C12.0728 71.7178 12.1208 71.9097 12.1681 72.1018C12.1208 71.9097 12.0728 71.7178 12.0226 71.5266ZM11.7784 70.6379C11.8155 70.7676 11.851 70.8976 11.8868 71.0276C11.851 70.8976 11.8155 70.7676 11.7784 70.6379ZM28.3341 69.3801C28.5789 69.6095 28.8164 69.8988 29.0499 70.2346C28.8164 69.8988 28.5789 69.6095 28.3341 69.3801ZM11.5089 69.7307C11.543 69.8412 11.5762 69.952 11.6095 70.0627C11.5762 69.952 11.543 69.8412 11.5089 69.7307ZM28.006 69.1106C28.07 69.1555 28.1331 69.205 28.1964 69.2581C28.1331 69.205 28.07 69.1555 28.006 69.1106ZM11.2072 68.7825C11.2575 68.9355 11.3057 69.0891 11.3546 69.2424C11.3057 69.0891 11.2575 68.9355 11.2072 68.7825ZM27.0568 68.7756C27.2077 68.7757 27.3565 68.8025 27.504 68.8518C27.3565 68.8025 27.2077 68.7757 27.0568 68.7756ZM10.8927 67.8538C10.9561 68.0365 11.0186 68.2194 11.0802 68.4026C11.0186 68.2194 10.9561 68.0365 10.8927 67.8538ZM10.5968 67.0159C10.6621 67.197 10.7263 67.3784 10.7902 67.5598C10.7263 67.3784 10.6621 67.197 10.5968 67.0159ZM10.3077 66.2268C10.3476 66.3341 10.3865 66.4417 10.4259 66.5491C10.3865 66.4417 10.3476 66.3341 10.3077 66.2268ZM44.5929 64.1663C44.3575 64.7692 44.1255 65.3717 43.8995 65.9749C44.1255 65.3714 44.3574 64.7685 44.5929 64.1653V64.1663ZM9.56165 64.2737C9.68679 64.5947 9.80806 64.9166 9.93079 65.2375C9.80807 64.9166 9.68678 64.5947 9.56165 64.2737ZM48.8351 51.9973C48.1154 54.9787 47.0929 57.7856 46.0236 60.5315L45.3068 62.3538C46.6232 59.0237 47.9556 55.6404 48.8351 51.9963V51.9973ZM48.8009 36.7405C49.7302 39.5013 50.0839 42.887 49.7101 46.8469C49.6089 47.9172 49.4585 48.961 49.2677 49.9827L49.0636 50.9963C49.2439 50.1568 49.398 49.3027 49.5216 48.4319C49.5463 48.2578 49.5697 48.083 49.5919 47.9075C49.6363 47.5566 49.6754 47.2026 49.7091 46.8459C50.0828 42.8864 49.7301 39.501 48.8009 36.7405ZM4.53821 48.0325C4.59243 48.4492 4.65566 48.8616 4.72375 49.2708C4.65567 48.8616 4.59243 48.4492 4.53821 48.0325ZM4.25793 44.012C4.26376 44.9209 4.31177 45.8658 4.40442 46.8459L4.40344 46.8469C4.31074 45.8665 4.26376 44.9212 4.25793 44.012ZM4.30481 42.1946C4.27162 42.7538 4.25506 43.3284 4.25696 43.9182C4.25506 43.3284 4.27161 42.7538 4.30481 42.1946ZM4.46594 40.4768C4.4825 40.3502 4.50021 40.2246 4.51868 40.0999C4.50022 40.2246 4.4825 40.3502 4.46594 40.4768ZM4.65833 39.2659C4.67975 39.1521 4.70166 39.0391 4.72473 38.927C4.70166 39.0391 4.67975 39.1521 4.65833 39.2659ZM5.21692 37.0315C5.25208 36.9206 5.28737 36.8104 5.32434 36.7014C5.28737 36.8104 5.25208 36.9206 5.21692 37.0315ZM47.9591 34.7083C48.1183 35.0256 48.2687 35.3536 48.4093 35.6926L48.546 36.0344C48.4119 35.6886 48.2673 35.3539 48.1144 35.0295L47.9591 34.7083ZM6.00989 35.0022C6.15904 34.6875 6.31722 34.3832 6.48352 34.0891C6.31722 34.3832 6.15904 34.6875 6.00989 35.0022ZM46.7003 32.6682C46.9668 33.0227 47.2192 33.3965 47.4552 33.7903L47.629 34.0891C47.3439 33.5848 47.0334 33.1113 46.7003 32.6682ZM44.1818 30.1975C44.8663 30.685 45.5005 31.2541 46.0773 31.9036L46.2902 32.1506C46.0793 31.8997 45.8597 31.6604 45.6329 31.4319C45.4818 31.2796 45.327 31.1327 45.1691 30.9905C44.9319 30.7771 44.6876 30.5746 44.4357 30.384L44.1818 30.1975ZM36.0343 28.0012C37.004 27.9904 38.0535 28.0533 39.1935 28.2219C40.8268 28.4641 42.3294 29.0103 43.6593 29.8469L43.923 30.0188C42.5292 29.0851 40.9357 28.4803 39.1935 28.2219C38.0537 28.0533 37.0039 27.9904 36.0343 28.0012ZM36.0343 28.0012C35.3879 28.0084 34.777 28.0491 34.1984 28.1125C33.9092 28.1443 33.6281 28.1816 33.3546 28.2239C31.4398 28.5198 29.9014 29.0457 28.6036 29.3987C28.4182 29.4491 28.2377 29.4961 28.0616 29.5383C27.7097 29.6227 27.3757 29.6874 27.0568 29.7249L27.0558 29.7239C29.1288 29.4808 31.8327 28.0481 36.0343 28.0012ZM26.5665 29.6487C26.4041 29.618 26.238 29.581 26.0675 29.5403C26.238 29.581 26.4041 29.618 26.5665 29.6487ZM25.9113 29.5002C25.7855 29.4688 25.657 29.437 25.5265 29.4016C25.657 29.437 25.7855 29.4688 25.9113 29.5002ZM12.7667 28.7424C12.8624 28.7095 12.9589 28.6782 13.0558 28.6477C12.9589 28.6782 12.8624 28.7095 12.7667 28.7424ZM13.3575 28.5569C13.6151 28.4834 13.8772 28.4202 14.1427 28.3635C13.8772 28.4202 13.6151 28.4834 13.3575 28.5569ZM15.8429 28.1067C15.5422 28.1378 15.2343 28.1754 14.92 28.2219L14.2872 28.3323C14.4959 28.2903 14.7068 28.2535 14.92 28.2219C15.2343 28.1754 15.5421 28.1378 15.8429 28.1067ZM36.423 84.9446C36.3858 84.9368 36.3486 84.9286 36.3116 84.9192C36.3486 84.9286 36.3858 84.9368 36.423 84.9446ZM38.1466 84.679C38.108 84.7004 38.0692 84.7203 38.0304 84.7395C38.0692 84.7203 38.108 84.7004 38.1466 84.679ZM14.5529 83.2209L14.545 83.2083C14.5578 83.2294 14.5713 83.25 14.5841 83.2708C14.5738 83.2542 14.5631 83.2378 14.5529 83.2209ZM14.5841 83.2708C14.6113 83.3147 14.6375 83.3585 14.6652 83.4006C14.6375 83.3585 14.6113 83.3147 14.5841 83.2708ZM39.5939 83.1643C39.566 83.2114 39.5372 83.2569 39.5089 83.302C39.5372 83.2569 39.566 83.2114 39.5939 83.1643ZM40.5353 80.7913C40.5155 80.866 40.4952 80.9395 40.4747 81.012C40.4952 80.9395 40.5155 80.866 40.5353 80.7913ZM12.7941 75.2688C12.8121 75.3932 12.8293 75.5179 12.8458 75.6428C12.8293 75.5179 12.8121 75.3932 12.7941 75.2688ZM4.42786 40.7883C4.44008 40.6839 4.45244 40.58 4.46594 40.4768C4.45244 40.58 4.44008 40.6839 4.42786 40.7883ZM4.60168 39.5823C4.62001 39.4761 4.6386 39.3706 4.65833 39.2659C4.6386 39.3706 4.62 39.4761 4.60168 39.5823ZM5.14563 37.261C5.16888 37.184 5.19281 37.1076 5.21692 37.0315C5.19281 37.1076 5.16888 37.184 5.14563 37.261ZM5.63489 35.8635C5.66402 35.7909 5.69279 35.7184 5.72278 35.6467C5.69279 35.7184 5.66402 35.7909 5.63489 35.8635ZM5.92395 35.1897C5.95263 35.127 5.98053 35.0641 6.00989 35.0022C5.98053 35.0641 5.95263 35.127 5.92395 35.1897ZM7.58606 32.4407C7.5376 32.5021 7.49004 32.5645 7.4425 32.6272C7.49004 32.5645 7.5376 32.5021 7.58606 32.4407ZM12.5656 28.8147C12.6324 28.7903 12.6993 28.7656 12.7667 28.7424C12.6993 28.7656 12.6324 28.7903 12.5656 28.8147Z" fill="url(#paint2_linear_1326_958)"/>
</g>
</g>
<path opacity="0.7" d="M43.5 48.887H50.4998V46.8L57.5 52.5001L50.4998 58.8V56.7131H43.5V48.887Z" fill="#CF1039"/>
</g>
</g>
<defs>
<filter id="filter0_ng_1326_958" x="0.256836" y="24" width="53.6" height="64.9983" filterUnits="userSpaceOnUse" color-interpolation-filters="sRGB">
<feFlood flood-opacity="0" result="BackgroundImageFix"/>
<feBlend mode="normal" in="SourceGraphic" in2="BackgroundImageFix" result="shape"/>
<feTurbulence type="fractalNoise" baseFrequency="2 2" stitchTiles="stitch" numOctaves="3" result="noise" seed="6596" />
<feColorMatrix in="noise" type="luminanceToAlpha" result="alphaNoise" />
<feComponentTransfer in="alphaNoise" result="coloredNoise1">
<feFuncA type="discrete" tableValues="1 1 1 1 1 1 1 1 1 1 1 1 1 1 1 1 1 1 1 1 1 1 1 1 1 1 1 1 1 1 1 1 1 1 1 1 1 1 1 1 1 1 1 1 1 1 1 1 1 1 1 0 0 0 0 0 0 0 0 0 0 0 0 0 0 0 0 0 0 0 0 0 0 0 0 0 0 0 0 0 0 0 0 0 0 0 0 0 0 0 0 0 0 0 0 0 0 0 0 0 "/>
</feComponentTransfer>
<feComposite operator="in" in2="shape" in="coloredNoise1" result="noise1Clipped" />
<feFlood flood-color="rgba(0, 0, 0, 0.25)" result="color1Flood" />
<feComposite operator="in" in2="noise1Clipped" in="color1Flood" result="color1" />
<feMerge result="effect1_noise_1326_958">
<feMergeNode in="shape" />
<feMergeNode in="color1" />
</feMerge>
<feTurbulence type="fractalNoise" baseFrequency="2 2" numOctaves="3" seed="1366" />
<feDisplacementMap in="effect1_noise_1326_958" scale="8" xChannelSelector="R" yChannelSelector="G" result="displacedImage" width="100%" height="100%" />
<feMerge result="effect2_texture_1326_958">
<feMergeNode in="displacedImage"/>
</feMerge>
</filter>
<linearGradient id="paint0_linear_1326_958" x1="27" y1="31.5" x2="27" y2="68" gradientUnits="userSpaceOnUse">
<stop offset="0.43128" stop-color="#A6A6A6"/>
<stop offset="0.764928" stop-color="#D2D2D2"/>
</linearGradient>
<linearGradient id="paint1_linear_1326_958" x1="27.2569" y1="31.5009" x2="27.2569" y2="67.9989" gradientUnits="userSpaceOnUse">
<stop offset="0.43128" stop-color="#A6A6A6"/>
<stop offset="0.764928" stop-color="#D2D2D2"/>
</linearGradient>
<linearGradient id="paint2_linear_1326_958" x1="27.4099" y1="30.2038" x2="27.41" y2="83.8241" gradientUnits="userSpaceOnUse">
<stop offset="0.331731" stop-color="#D7D7D7"/>
<stop offset="0.600962" stop-color="white"/>
</linearGradient>
</defs>
</svg>
