<svg preserveAspectRatio="none" width="100%" height="100%" overflow="visible" style="display: block;" viewBox="0 0 28 28" fill="none" xmlns="http://www.w3.org/2000/svg">
<g id="calendar">
<mask id="mask0_1374_17174" style="mask-type:alpha" maskUnits="userSpaceOnUse" x="0" y="0" width="28" height="28">
<rect id="Rectangle 353" width="28" height="28" fill="var(--fill-0, #D9D9D9)"/>
</mask>
<g mask="url(#mask0_1374_17174)">
<path id="Vector" d="M26.6 25.2V5.6C26.6 4.0558 25.3442 2.8 23.8 2.8H21V0H18.2V2.8H9.8V0H7V2.8H4.2C2.6558 2.8 1.4 4.0558 1.4 5.6V25.2C1.4 26.7442 2.6558 28 4.2 28H23.8C25.3442 28 26.6 26.7442 26.6 25.2ZM9.8 22.4H7V19.6H9.8V22.4ZM9.8 16.8H7V14H9.8V16.8ZM15.4 22.4H12.6V19.6H15.4V22.4ZM15.4 16.8H12.6V14H15.4V16.8ZM21 22.4H18.2V19.6H21V22.4ZM21 16.8H18.2V14H21V16.8ZM23.8 9.8H4.2V7H23.8V9.8Z" fill="var(--fill-0, white)"/>
</g>
</g>
</svg>
