<svg width="20" height="20" viewBox="0 0 20 20" fill="none" xmlns="http://www.w3.org/2000/svg">
<mask id="mask0_1326_3404" style="mask-type:alpha" maskUnits="userSpaceOnUse" x="0" y="0" width="20" height="20">
<rect width="20" height="20" fill="#D9D9D9"/>
</mask>
<g mask="url(#mask0_1326_3404)">
<path d="M4.62 8.79C6.06 11.62 8.38 13.93 11.21 15.38L13.41 13.18C13.68 12.91 14.08 12.82 14.43 12.94C15.55 13.31 16.76 13.51 18 13.51C18.55 13.51 19 13.96 19 14.51V18C19 18.55 18.55 19 18 19C8.61 19 1 11.39 1 2C1 1.45 1.45 1 2 1H5.5C6.05 1 6.5 1.45 6.5 2C6.5 3.25 6.7 4.45 7.07 5.57C7.18 5.92 7.1 6.31 6.82 6.59L4.62 8.79Z" fill="#595A5D"/>
</g>
</svg>
