<svg width="16" height="16" viewBox="0 0 16 16" fill="none" xmlns="http://www.w3.org/2000/svg">
<mask id="mask0_1326_3390" style="mask-type:alpha" maskUnits="userSpaceOnUse" x="0" y="0" width="16" height="16">
<rect width="16" height="16" fill="#D9D9D9"/>
</mask>
<g mask="url(#mask0_1326_3390)">
<path d="M1.20001 11.3684V3.36842C1.20001 2.62456 1.39495 2.03144 1.78481 1.58906C2.17468 1.14667 2.68808 0.80983 3.32501 0.578532C3.96195 0.347234 4.68813 0.192848 5.50356 0.115374C6.319 0.0379008 7.15115 -0.000555345 8.00001 6.05829e-06C8.93501 6.05829e-06 9.81703 0.0387429 10.6461 0.116216C11.4751 0.19369 12.1976 0.348076 12.8136 0.579374C13.4295 0.810672 13.9146 1.14751 14.2688 1.5899C14.6229 2.03228 14.8 2.62513 14.8 3.36842V11.3684C14.8 12.1965 14.5133 12.8949 13.9398 13.4636C13.3663 14.0323 12.6614 14.3163 11.825 14.3158L12.25 14.7368C12.4908 14.9754 12.5475 15.2457 12.42 15.5478C12.2925 15.8498 12.0588 16.0005 11.7188 16C11.6196 16 11.5241 15.9826 11.4323 15.9478C11.3405 15.913 11.2589 15.8602 11.1875 15.7895L9.70001 14.3158H6.30001L4.81251 15.7895C4.74168 15.8596 4.66008 15.9124 4.56771 15.9478C4.47535 15.9831 4.38015 16.0005 4.28211 16C3.95628 16 3.72621 15.8492 3.59191 15.5478C3.45761 15.2463 3.51031 14.976 3.75001 14.7368L4.17501 14.3158C3.33918 14.3158 2.63425 14.0317 2.06021 13.4636C1.48618 12.8954 1.19945 12.197 1.20001 11.3684ZM2.90001 6.73684H7.15001V4.21053H2.90001V6.73684ZM8.85001 6.73684H13.1V4.21053H8.85001V6.73684ZM5.02501 11.7895C5.39335 11.7895 5.69793 11.6702 5.93876 11.4316C6.1796 11.193 6.30001 10.8912 6.30001 10.5263C6.30001 10.1614 6.1796 9.85964 5.93876 9.62105C5.69793 9.38245 5.39335 9.26315 5.02501 9.26315C4.65668 9.26315 4.3521 9.38245 4.11126 9.62105C3.87043 9.85964 3.75001 10.1614 3.75001 10.5263C3.75001 10.8912 3.87043 11.193 4.11126 11.4316C4.3521 11.6702 4.65668 11.7895 5.02501 11.7895ZM10.975 11.7895C11.3433 11.7895 11.6479 11.6702 11.8888 11.4316C12.1296 11.193 12.25 10.8912 12.25 10.5263C12.25 10.1614 12.1296 9.85964 11.8888 9.62105C11.6479 9.38245 11.3433 9.26315 10.975 9.26315C10.6067 9.26315 10.3021 9.38245 10.0613 9.62105C9.82043 9.85964 9.70001 10.1614 9.70001 10.5263C9.70001 10.8912 9.82043 11.193 10.0613 11.4316C10.3021 11.6702 10.6067 11.7895 10.975 11.7895Z" fill="#787B83"/>
</g>
</svg>
