<svg preserveAspectRatio="none" width="100%" height="100%" overflow="visible" style="display: block;" viewBox="0 0 34 34" fill="none" xmlns="http://www.w3.org/2000/svg">
<g id="map-filled">
<circle id="Ellipse 5" cx="17" cy="17" r="17" fill="var(--fill-0, white)"/>
<g id="map">
<mask id="mask0_1373_8590" style="mask-type:alpha" maskUnits="userSpaceOnUse" x="7" y="7" width="20" height="20">
<rect id="Rectangle 332" x="7" y="7" width="20" height="20" fill="var(--fill-0, #D9D9D9)"/>
</mask>
<g mask="url(#mask0_1373_8590)">
<path id="Vector" d="M17.0001 7C12.5891 7 9.00008 10.589 9.00008 14.995C8.97108 21.44 16.6961 26.784 17.0001 27C17.0001 27 25.0291 21.44 25.0001 15C25.0001 10.589 21.4111 7 17.0001 7ZM17.0001 19C14.7901 19 13.0001 17.21 13.0001 15C13.0001 12.79 14.7901 11 17.0001 11C19.2101 11 21.0001 12.79 21.0001 15C21.0001 17.21 19.2101 19 17.0001 19Z" fill="var(--fill-0, #787B83)"/>
</g>
</g>
</g>
</svg>
