<svg preserveAspectRatio="none" width="100%" height="100%" overflow="visible" style="display: block;" viewBox="0 0 82 75" fill="none" xmlns="http://www.w3.org/2000/svg">
<path id="fv-emblem" d="M77.0241 47.7968C76.2288 48.2803 75.5916 48.9494 75.0829 49.6038C75.6608 48.0312 76.1202 46.4635 76.4758 44.9104C77.4933 44.72 79.5679 44.1339 80.7286 42.9666C82.082 41.5992 82.1709 39.5284 81.835 39.333C81.2621 39.4942 79.7259 39.377 78.338 40.7103C77.7008 41.3208 77.2414 42.068 76.8907 42.7811C77.0833 41.6138 77.2167 40.4563 77.2908 39.3086C78.2639 38.9619 80.1112 38.1023 81.0299 36.8471C82.1265 35.3478 81.9091 33.3552 81.5535 33.2135C81.0299 33.4528 79.5432 33.5554 78.412 35.0255C77.923 35.6604 77.597 36.3929 77.3649 37.0913C77.3649 37.0669 77.3649 37.0376 77.3649 37.0132C77.3649 35.9827 77.3056 34.962 77.197 33.9461C78.086 33.4675 79.716 32.3833 80.4076 31.0695C81.2374 29.4871 80.7533 27.6117 80.3927 27.5287C79.9235 27.8266 78.5207 28.1343 77.6514 29.6971C77.2463 30.4248 77.029 31.2405 76.9105 31.9926C76.619 30.3467 76.1992 28.7301 75.6608 27.1575C76.4363 26.5666 77.8341 25.2626 78.2935 23.9049C78.8418 22.2737 78.086 20.5643 77.7353 20.535C77.3353 20.8915 76.0461 21.3946 75.4583 23.0111C75.1422 23.8853 75.0829 24.8328 75.1076 25.6582C74.5494 24.2565 73.8974 22.8939 73.1763 21.5753C73.853 20.9013 75.0187 19.5045 75.2953 18.1712C75.6312 16.5449 74.7075 14.9967 74.3667 15.0162C74.0259 15.3972 72.8503 16.0272 72.4749 17.6437C72.2674 18.557 72.3317 19.524 72.465 20.3396C71.6945 19.0552 70.8498 17.8244 69.9509 16.6474C70.425 15.9393 71.3339 14.225 71.3043 12.8233C71.2647 11.2312 70.0694 9.97605 69.7533 10.0591C69.5162 10.4937 68.553 11.3338 68.553 12.9259C68.553 13.9222 68.8839 14.9283 69.2198 15.7097C68.2073 14.4643 67.1305 13.2922 66.0092 12.1982C66.3698 11.5242 67.1107 9.67813 66.9131 8.29111C66.6958 6.77711 65.4116 5.70754 65.1201 5.82475C64.9423 6.2643 64.1174 7.16782 64.2953 8.6867C64.4286 9.81488 65.0016 10.9235 65.4708 11.6756C64.152 10.4351 62.7739 9.30695 61.3711 8.30088C61.6626 7.54876 62.1466 5.81986 61.8552 4.57936C61.5243 3.15327 60.2054 2.23998 59.9338 2.37185C59.8004 2.80163 59.0891 3.73445 59.3904 5.17519C59.5979 6.17639 60.1758 7.13363 60.6648 7.81737C59.2867 6.88455 57.8889 6.07383 56.4861 5.40474C56.6046 4.70146 56.7133 2.8407 56.1551 1.69299C55.5427 0.428063 54.1201 -0.148235 53.8978 0.032469C53.8682 0.46225 53.399 1.48298 53.9867 2.75767C54.4313 3.72956 55.2809 4.58913 55.9131 5.13124C55.0043 4.72099 54.1053 4.37424 53.2063 4.08609C52.7618 3.70026 51.117 2.63069 49.8179 2.54767C48.4694 2.46464 47.3136 3.35839 47.363 3.63189C47.7137 3.86143 48.3509 4.72099 49.6994 4.83821C51.0527 4.95542 52.6087 4.40354 53.2261 4.14958C54.2288 4.54029 55.2265 4.99937 56.2194 5.51706C55.4241 5.32171 54.3523 5.15077 53.3841 5.30217C51.9863 5.53172 51.3886 6.47919 51.0379 6.74292C51.0083 7.02618 52.2827 7.88086 53.6854 7.68551C54.9499 7.50969 56.4317 6.42058 56.9751 5.92243C58.1408 6.57198 59.2867 7.30945 60.408 8.11529C59.7757 7.85156 59.0397 7.6269 58.3137 7.58295C56.8318 7.49504 56.002 8.32529 55.5871 8.51577C55.4933 8.79903 56.5947 9.95651 58.0716 10.0737C59.3361 10.1763 60.9661 9.48277 61.6922 9.0823C62.8036 9.95651 63.8803 10.904 64.9127 11.9198C64.2804 11.5877 63.5445 11.2849 62.7937 11.1726C61.2625 10.9479 60.324 11.7391 59.8745 11.9003C59.7461 12.1836 60.7883 13.4876 62.3146 13.7464C63.5692 13.9613 65.2337 13.4338 66.0537 13.0822C66.9872 14.0785 67.8763 15.1285 68.7111 16.2225C68.1282 15.8269 67.4417 15.4558 66.7156 15.2653C65.1597 14.8502 64.0878 15.5583 63.6087 15.6706C63.4407 15.949 64.3595 17.424 65.9055 17.8684C67.1453 18.2249 68.8346 17.9075 69.7434 17.6437C70.4547 18.6693 71.1215 19.7292 71.734 20.8231C71.2697 20.3445 70.7214 19.8806 70.099 19.5533C68.6172 18.7768 67.3676 19.2456 66.8489 19.2505C66.6168 19.4947 67.1996 21.1992 68.6617 22.0099C69.8768 22.679 71.734 22.7181 72.6823 22.6448C73.196 23.69 73.6603 24.7595 74.0703 25.8487C73.7048 25.4091 73.285 24.9891 72.796 24.6521C71.3685 23.6704 70.02 24.0025 69.4866 23.9439C69.2149 24.1637 69.6051 25.9952 71.0128 27.0061C72.0995 27.7876 73.8085 28.061 74.831 28.1294C75.236 29.492 75.5521 30.8888 75.7744 32.3003C75.483 31.8021 75.1273 31.3137 74.6927 30.8986C73.3936 29.663 71.9563 29.7802 71.4228 29.6337C71.1067 29.8192 71.2005 31.7533 72.4749 33.0182C73.4183 33.9559 75.0236 34.5029 76.0609 34.7471C76.1202 35.4992 76.1547 36.2513 76.1547 37.0132C76.1547 37.1499 76.1547 37.2916 76.1498 37.4332C75.9275 36.8667 75.6361 36.2953 75.236 35.7873C74.0901 34.3271 72.6033 34.2343 72.0748 34.0047C71.7241 34.1464 71.5265 36.1439 72.6329 37.6334C73.4529 38.7323 74.9989 39.5186 76.0214 39.924C75.9423 40.8519 75.8189 41.7896 75.6608 42.7322C75.5225 42.1413 75.315 41.5406 74.9989 40.9838C74.0555 39.3184 72.549 38.9961 72.0452 38.6786C71.6648 38.7714 71.1561 40.7835 72.055 42.4734C72.7169 43.7139 74.1493 44.7346 75.1273 45.2963C74.8162 46.5661 74.426 47.8407 73.9567 49.1203C73.9468 48.5391 73.8777 47.9384 73.6999 47.3524C73.1466 45.5209 71.7439 44.886 71.324 44.466C70.9289 44.4758 69.9904 46.3268 70.4991 48.1729C70.8844 49.555 72.1044 50.8883 72.9392 51.6404C72.9194 51.6892 72.8997 51.7332 72.8799 51.782C72.4749 52.6807 72.0402 53.5305 71.5809 54.3412C71.6945 53.7258 71.7537 53.0714 71.6846 52.4072C71.4771 50.439 70.1731 49.5306 69.8274 49.0275C69.4273 48.964 68.1134 50.6685 68.2764 52.6367C68.3999 54.1507 69.4174 55.7526 70.1188 56.6562C69.4816 57.5597 68.8099 58.4046 68.1035 59.1909C68.3801 58.5658 68.6074 57.8722 68.6864 57.1397C68.9136 55.1128 67.8022 53.9114 67.5651 53.3302C67.1749 53.1788 65.4708 54.6098 65.1942 56.6317C64.9769 58.2092 65.6734 60.07 66.1821 61.1151C65.2733 61.9405 64.3249 62.6926 63.342 63.3764C63.7618 62.7952 64.1421 62.1359 64.3792 61.3984C65.0312 59.396 64.1619 57.9553 64.0434 57.3204C63.6828 57.0859 61.6576 58.1897 60.9612 60.1774C60.4228 61.711 60.7241 63.6889 61.0204 64.8513C59.8696 65.5106 58.689 66.0918 57.4937 66.6144C57.9432 66.1993 58.368 65.7255 58.7137 65.1736C59.8646 63.3324 59.3509 61.6817 59.3904 61.0126C59.0891 60.6902 56.7874 61.2958 55.592 63.1126C54.6684 64.5192 54.4856 66.5607 54.4955 67.7865C53.4928 68.1382 52.4901 68.4507 51.4874 68.7389C52.0209 68.3091 52.5346 67.7963 52.9544 67.1809C54.2238 65.3348 53.7744 63.6157 53.8435 62.9319C53.5471 62.5852 51.1565 63.1078 49.8475 64.9246C48.8745 66.2725 48.5831 68.2505 48.5188 69.5154C45.8466 70.1503 43.2979 70.5996 41.006 71.0294C38.7141 70.5996 36.1654 70.1503 33.4932 69.5154C33.429 68.2505 33.1376 66.2725 32.1645 64.9246C30.8556 63.1078 28.4649 62.5852 28.1636 62.9319C28.2377 63.6157 27.7882 65.3397 29.0527 67.1809C29.4725 67.7914 29.9862 68.3042 30.5197 68.7389C29.5219 68.4556 28.5143 68.1382 27.5116 67.7865C27.5215 66.5607 27.3338 64.5192 26.4151 63.1126C25.2197 61.2958 22.9229 60.6854 22.6216 61.0126C22.6611 61.6817 22.1474 63.3324 23.2983 65.1736C23.6441 65.7255 24.0689 66.1992 24.5183 66.6193C23.323 66.0967 22.1425 65.5155 20.9916 64.8562C21.288 63.6938 21.5893 61.7159 21.0509 60.1823C20.3544 58.1946 18.3293 57.0957 17.9687 57.3252C17.8502 57.965 16.9808 59.4009 17.6328 61.4033C17.8749 62.1408 18.2503 62.8001 18.6701 63.3813C17.6921 62.6975 16.7388 61.9454 15.83 61.12C16.3387 60.0749 17.0302 58.2141 16.8178 56.6366C16.5462 54.6147 14.8371 53.1837 14.4519 53.3351C14.2148 53.9163 13.1034 55.1177 13.3306 57.1445C13.4146 57.8771 13.6369 58.5658 13.9135 59.1909C13.2071 58.4046 12.5354 57.5646 11.8982 56.6562C12.5996 55.7526 13.6171 54.1507 13.7406 52.6367C13.9036 50.6685 12.5897 48.964 12.1896 49.0275C11.8389 49.5306 10.5399 50.4439 10.3324 52.4072C10.2633 53.0714 10.3225 53.7258 10.4312 54.3412C9.97183 53.5305 9.53717 52.6807 9.13214 51.782C9.11238 51.7332 9.09262 51.6892 9.07286 51.6404C9.90762 50.8883 11.1227 49.555 11.508 48.1729C12.0167 46.3268 11.0783 44.4758 10.6831 44.466C10.2633 44.8811 8.86047 45.5209 8.30726 47.3524C8.12944 47.9384 8.06523 48.5391 8.05041 49.1203C7.58117 47.8407 7.19589 46.5612 6.87977 45.2963C7.85777 44.7346 9.2902 43.7139 9.95208 42.4734C10.856 40.7835 10.3472 38.7714 9.96195 38.6786C9.46308 38.9961 7.95162 39.3135 7.0082 40.9838C6.69208 41.5406 6.48462 42.1462 6.34632 42.7371C6.18332 41.7945 6.06477 40.8568 5.98574 39.9289C7.0082 39.5284 8.55423 38.7421 9.37417 37.6383C10.4855 36.1536 10.288 34.1561 9.93232 34.0096C9.4038 34.244 7.92199 34.3319 6.77605 35.7922C6.3809 36.3001 6.08947 36.8716 5.86226 37.4381C5.86226 37.2965 5.85732 37.1597 5.85732 37.0181C5.85732 36.2562 5.8919 35.5041 5.95117 34.752C6.98844 34.5078 8.59374 33.9608 9.53717 33.0231C10.8115 31.7581 10.9054 29.8192 10.5893 29.6385C10.0558 29.7851 8.61844 29.6678 7.31938 30.9035C6.87977 31.3186 6.52908 31.807 6.23765 32.3051C6.45993 30.8888 6.77605 29.4969 7.18108 28.1343C8.20353 28.0659 9.9175 27.7924 10.9992 27.011C12.407 26.0001 12.7972 24.1686 12.5255 23.9488C11.992 24.0074 10.6436 23.6753 9.21611 24.657C8.72711 24.994 8.30726 25.414 7.94174 25.8535C8.35171 24.7595 8.81602 23.6949 9.32971 22.6497C10.2781 22.723 12.1353 22.6839 13.3504 22.0148C14.8124 21.2041 15.4002 19.4996 15.1631 19.2554C14.6494 19.2554 13.3998 18.7817 11.918 19.5582C11.2907 19.8854 10.7473 20.3494 10.283 20.828C10.8955 19.734 11.5623 18.6742 12.2736 17.6486C13.1824 17.9123 14.8766 18.2298 16.1115 17.8733C17.6575 17.424 18.5763 15.9539 18.4083 15.6755C17.9243 15.5632 16.8573 14.8599 15.3014 15.2702C14.5704 15.4655 13.8888 15.8367 13.3059 16.2274C14.1407 15.1285 15.0298 14.0785 15.9633 13.0871C16.7833 13.4387 18.4429 13.9662 19.7024 13.7513C21.2287 13.4924 22.266 12.1884 22.1425 11.9052C21.693 11.744 20.7545 10.9577 19.2233 11.1775C18.4676 11.2898 17.7316 11.5926 17.1043 11.9247C18.1366 10.9089 19.2134 9.96139 20.3248 9.08718C21.0558 9.48766 22.6858 10.1812 23.9454 10.0786C25.4223 9.95651 26.5237 8.79903 26.4299 8.52065C26.015 8.33018 25.1852 7.49504 23.7033 7.58783C22.9723 7.6269 22.2413 7.85644 21.609 8.12017C22.7303 7.30945 23.8762 6.57687 25.0419 5.92731C25.5852 6.42547 27.0671 7.51457 28.3315 7.69039C29.7343 7.88575 31.0087 7.03107 30.9791 6.7478C30.6333 6.48407 30.0356 5.5366 28.6329 5.30706C27.6647 5.15077 26.5929 5.32659 25.7976 5.52195C26.7855 5.00426 27.7882 4.54517 28.7909 4.15446C29.4083 4.40842 30.9593 4.9603 32.3127 4.84309C33.6661 4.72588 34.3033 3.86631 34.649 3.63677C34.6984 3.36816 33.5426 2.46952 32.1942 2.55255C30.9 2.63558 29.2552 3.70515 28.8057 4.09097C27.9117 4.37912 27.0078 4.72588 26.0989 5.13612C26.7262 4.58913 27.5808 3.73445 28.0204 2.76256C28.6032 1.48298 28.1389 0.467134 28.1093 0.0373528C27.887 -0.143351 26.4645 0.432947 25.852 1.69787C25.2938 2.85047 25.4025 4.70634 25.521 5.40962C24.1183 6.07871 22.7204 6.88944 21.3423 7.82226C21.8313 7.13851 22.4043 6.18127 22.6117 5.18496C22.913 3.7491 22.2018 2.81628 22.0684 2.38161C21.8017 2.24487 20.4829 3.15815 20.1519 4.58913C19.8605 5.82963 20.3396 7.55853 20.636 8.31064C19.2283 9.31184 17.8551 10.44 16.5363 11.6805C17.0006 10.9284 17.5785 9.82465 17.7069 8.69647C17.8847 7.17758 17.0599 6.27407 16.882 5.83452C16.5906 5.7173 15.3064 6.78687 15.094 8.30088C14.8964 9.6879 15.6373 11.534 15.9979 12.2031C14.8766 13.2971 13.7999 14.4692 12.7873 15.7146C13.1232 14.9283 13.4541 13.9271 13.4541 12.9308C13.4541 11.3386 12.486 10.4986 12.2538 10.064C11.9377 9.98093 10.7374 11.2361 10.6979 12.8282C10.6683 14.2299 11.5771 15.949 12.0513 16.6523C11.1523 17.8293 10.3077 19.0601 9.53717 20.3445C9.67053 19.5289 9.73474 18.5619 9.52235 17.6535C9.15189 16.0369 7.97632 15.4069 7.6355 15.026C7.29468 15.0113 6.37102 16.5595 6.7069 18.181C6.9835 19.5143 8.14426 20.9111 8.82096 21.585C8.09486 22.9037 7.4478 24.2663 6.88965 25.6679C6.91929 24.8426 6.85508 23.8951 6.53896 23.0258C5.95117 21.4092 4.66199 20.9013 4.2619 20.5496C3.9112 20.5741 3.15547 22.2834 3.70375 23.9195C4.16311 25.2821 5.56096 26.5812 6.33644 27.1722C5.79311 28.7448 5.37326 30.3565 5.08678 32.0023C4.96823 31.2502 4.75584 30.4395 4.34587 29.7118C3.47653 28.149 2.06881 27.8413 1.59956 27.5434C1.24393 27.6313 0.754929 29.5018 1.58969 31.0842C2.2812 32.3979 3.9112 33.4821 4.80029 33.9608C4.69162 34.9766 4.63235 35.9973 4.63235 37.0278C4.63235 37.0523 4.63235 37.0767 4.63235 37.1011C4.4002 36.4027 4.0742 35.675 3.59014 35.0401C2.45902 33.5701 0.977201 33.4675 0.448687 33.2282C0.0979898 33.3698 -0.124283 35.3624 0.972262 36.8618C1.89099 38.117 3.73832 38.9765 4.70644 39.3233C4.78053 40.471 4.9139 41.6236 5.10653 42.7908C4.76078 42.0778 4.30141 41.3305 3.66423 40.7201C2.2812 39.3868 0.740111 39.504 0.167141 39.3428C-0.173677 39.5382 -0.0798284 41.6138 1.27356 42.9764C2.43432 44.1437 4.50887 44.7346 5.52638 44.9202C5.88202 46.4733 6.34138 48.041 6.91929 49.6136C6.41053 48.9592 5.77335 48.295 4.98305 47.8114C3.33823 46.8054 1.86135 47.2547 1.26863 47.2156C0.982141 47.4793 1.52547 49.4866 3.14559 50.5269C4.51381 51.4011 6.61799 51.5427 7.67502 51.5134C7.78368 51.7674 7.89235 52.0262 8.00595 52.2802C8.42086 53.2081 8.87035 54.0823 9.34453 54.9224C8.71723 54.3705 7.96644 53.8333 7.09217 53.5012C5.22508 52.793 3.81735 53.5256 3.20487 53.6037C2.96284 53.9261 3.90132 55.8601 5.75359 56.6122C7.28974 57.2373 9.40874 56.9883 10.4806 56.7636C11.2264 57.8771 12.0266 58.9027 12.8663 59.8551C12.1303 59.4497 11.2808 59.0883 10.3522 58.9467C8.3122 58.639 7.05265 59.6842 6.45499 59.8942C6.28211 60.2751 7.6602 62.0187 9.69029 62.3752C11.3697 62.6731 13.4195 61.9698 14.4519 61.5058C15.499 62.507 16.6005 63.4008 17.7366 64.2115C16.9216 63.9576 15.9979 63.772 15.0396 63.8208C12.9157 63.9234 11.8587 65.2371 11.3005 65.5692C11.2067 65.9844 12.9602 67.4691 15.0841 67.4153C16.8771 67.3714 18.8232 66.2041 19.7469 65.5302C21.3275 66.4825 22.9575 67.2932 24.6023 67.9819C23.6095 67.8744 22.4586 67.8695 21.3374 68.1968C19.2381 68.817 18.512 70.3896 18.0329 70.8634C18.0428 71.3029 20.1667 72.3627 22.2808 71.7864C24.0985 71.2931 25.768 69.6033 26.4941 68.7193C27.8179 69.2028 29.1416 69.618 30.4456 69.9843C29.4479 69.9257 28.3069 69.9745 27.2004 70.3554C25.0716 71.088 24.3899 72.7339 23.9207 73.2418C23.9503 73.696 26.1879 74.6825 28.3365 73.9988C30.2727 73.3834 31.9669 71.4299 32.6091 70.541C34.4268 70.9806 36.1951 71.3469 37.8646 71.6741C35.2665 72.2699 33.2265 72.9781 32.0756 74.1942L32.9993 75C34.0168 73.7497 37.0298 73.0611 41.006 72.2846C41.5296 72.3871 42.0334 72.4897 42.5224 72.5874C45.738 73.2516 48.1286 73.9109 49.0128 75L49.9414 74.1942C49.0622 73.2662 47.6545 72.6313 45.8861 72.1185C45.8615 72.1136 45.8417 72.1039 45.817 72.099C45.654 72.0501 45.4811 72.0062 45.3132 71.9573C45.2144 71.9329 45.1107 71.9036 45.0069 71.8792C44.7303 71.8059 44.4438 71.7376 44.1475 71.6741C45.817 71.3469 47.5902 70.9806 49.4079 70.541C50.0501 71.4299 51.7443 73.3834 53.6805 73.9988C55.8291 74.6825 58.0617 73.6911 58.0914 73.2418C57.6221 72.7339 56.9405 71.088 54.8116 70.3554C53.7052 69.9745 52.5642 69.9257 51.5664 69.9843C52.8754 69.618 54.1942 69.2028 55.518 68.7193C56.2441 69.6033 57.9136 71.2931 59.7313 71.7864C61.8453 72.3578 63.9693 71.3029 63.9791 70.8634C63.5 70.3896 62.7739 68.8219 60.6747 68.1968C59.5534 67.8647 58.4026 67.8695 57.4097 67.9819C59.0595 67.2932 60.6895 66.4874 62.2652 65.5302C63.1839 66.2041 65.13 67.3714 66.923 67.4153C69.0519 67.4739 70.8054 65.9893 70.7115 65.5692C70.1484 65.2322 69.0963 63.9185 66.9724 63.8208C66.0142 63.772 65.0905 63.9576 64.2755 64.2115C65.4116 63.4008 66.513 62.507 67.5602 61.5058C68.5925 61.9698 70.6374 62.6731 72.3218 62.3752C74.3568 62.0187 75.73 60.2751 75.562 59.8942C74.9594 59.6842 73.7048 58.639 71.6648 58.9467C70.7362 59.0883 69.8866 59.4497 69.1507 59.8551C69.9953 58.9076 70.7906 57.8771 71.5364 56.7636C72.6132 56.9883 74.7273 57.2373 76.2634 56.6122C78.1107 55.865 79.0492 53.931 78.8121 53.6037C78.1996 53.5256 76.7919 52.793 74.9248 53.5012C74.0506 53.8333 73.2998 54.3705 72.6725 54.9224C73.1466 54.0872 73.5961 53.2081 74.011 52.2802C74.1246 52.0262 74.2333 51.7674 74.342 51.5134C75.399 51.5427 77.5032 51.4011 78.8714 50.5269C80.4965 49.4866 81.0349 47.4793 80.7484 47.2156C80.1507 47.2547 78.6788 46.8054 77.034 47.8114L77.0241 47.7968Z" fill="url(#paint0_linear_1324_30936)"/>
<defs>
<linearGradient id="paint0_linear_1324_30936" x1="-2.75199e-09" y1="3.77676e-09" x2="81.9298" y2="75.0766" gradientUnits="userSpaceOnUse">
<stop offset="0.180987" stop-color="#FFFAD2"/>
<stop offset="0.5" stop-color="white"/>
<stop offset="0.779478" stop-color="#FFFAD2"/>
</linearGradient>
</defs>
</svg>
