<svg preserveAspectRatio="none" width="100%" height="100%" overflow="visible" style="display: block;" viewBox="0 0 179.28 14.8574" fill="none" xmlns="http://www.w3.org/2000/svg">
<g id="Group">
<path id="Vector" d="M7.53979 11.0693L6.68556 8.65508H2.30296L1.44872 11.0693H0.000231776L3.7143 0.781107H5.31135L9.06256 11.0693H7.53979ZM4.97708 3.71528C4.79138 3.1953 4.64282 2.7496 4.5314 2.3039H4.49426C4.38284 2.7496 4.23427 3.1953 4.08571 3.67813L2.7115 7.57798H6.35129L4.97708 3.71528Z" fill="var(--fill-0, #373D42)"/>
<path id="Vector_2" d="M16.8999 11.2177C16.0457 11.2177 15.3029 11.1063 14.6343 10.9206L14.82 9.58347C15.4886 9.84346 16.2314 9.99202 16.9742 9.99202C18.1627 9.99202 19.2026 9.50918 19.2026 8.24638C19.2026 5.94361 14.5601 6.835 14.5601 3.56656C14.5601 1.85806 15.8228 0.669542 18.1627 0.669542C18.757 0.669542 19.4255 0.743825 20.0197 0.855249L19.834 2.08091C19.2769 1.8952 18.6455 1.82092 18.0513 1.82092C16.6399 1.82092 15.9714 2.45233 15.9714 3.418C15.9714 5.60934 20.6883 4.82937 20.6883 8.06067C20.7254 9.91774 19.2026 11.2177 16.8999 11.2177Z" fill="var(--fill-0, #373D42)"/>
<path id="Vector_3" d="M25.034 11.216C23.4741 11.216 22.9913 10.5846 22.9913 8.95034V4.6048H21.4314V3.52771H22.9913V1.07637L24.3655 0.70496V3.52771H26.4825V4.6048H24.3655V8.46751C24.3655 9.73031 24.6254 10.0646 25.4425 10.0646C25.7768 10.0646 26.1111 10.0274 26.4082 9.95316L26.5568 11.0674C26.1111 11.1417 25.5168 11.216 25.034 11.216Z" fill="var(--fill-0, #373D42)"/>
<path id="Vector_4" d="M32.2389 4.71785C30.6419 4.42071 29.8619 5.60924 29.8619 8.02342V11.069H28.4877V3.49218H29.8248C29.8248 3.97502 29.7876 4.6807 29.6391 5.27497H29.6762C30.0105 4.23501 30.7904 3.19505 32.276 3.34362L32.2389 4.71785Z" fill="var(--fill-0, #373D42)"/>
<path id="Vector_5" d="M38.2923 11.069C38.2923 10.549 38.2923 9.99185 38.3666 9.54616H38.3294C37.958 10.4747 36.9923 11.1804 35.7667 11.1804C34.5411 11.1804 33.6497 10.3633 33.6497 9.1376C33.6497 7.50338 35.321 6.5377 38.218 6.5377V6.20343C38.218 5.01491 37.8095 4.42065 36.6209 4.42065C35.9153 4.42065 34.9868 4.68064 34.3554 4.97777L34.0954 3.90067C34.8382 3.60354 35.841 3.34355 36.8067 3.34355C38.9237 3.34355 39.5922 4.34636 39.5922 5.98058V8.87761C39.5922 9.5833 39.5922 10.4004 39.6293 11.069H38.2923ZM38.218 7.54053C35.7296 7.54053 35.0239 8.20907 35.0239 8.98904C35.0239 9.65758 35.4696 10.1404 36.1753 10.1404C37.4009 10.1404 38.218 8.91476 38.218 7.72623V7.54053Z" fill="var(--fill-0, #373D42)"/>
<path id="Vector_6" d="M47.0944 11.0691C47.0944 10.6234 47.1315 9.91776 47.2058 9.47206H47.1687C46.723 10.512 45.7945 11.2177 44.4945 11.2177C42.7489 11.2177 42.229 10.1406 42.229 8.80352V3.52945H43.566V8.39496C43.566 9.47206 43.8631 10.1035 44.8659 10.1035C46.1287 10.1035 47.0201 8.84066 47.0201 7.13216V3.4923H48.3943V11.0691H47.0944Z" fill="var(--fill-0, #373D42)"/>
<path id="Vector_7" d="M60.5771 11.069V6.20343C60.5771 5.16348 60.3172 4.49493 59.3515 4.49493C58.2744 4.49493 57.2345 5.64631 57.2345 7.46624V11.069H55.8974V6.20343C55.8974 5.23776 55.7117 4.49493 54.6718 4.49493C53.5204 4.49493 52.5548 5.75774 52.5548 7.46624V11.069H51.1805V3.49211H52.5176C52.5176 3.93781 52.4805 4.6435 52.4062 5.08919C52.8519 4.01209 53.8175 3.34355 55.0432 3.34355C56.6402 3.34355 57.0859 4.45779 57.1231 5.05205C57.4573 4.34636 58.2373 3.34355 59.7229 3.34355C61.1714 3.34355 61.9885 4.08638 61.9885 5.83202V11.069H60.5771Z" fill="var(--fill-0, #373D42)"/>
<path id="Vector_8" d="M68.7108 11.069C68.7108 10.549 68.7109 9.99185 68.7851 9.54616H68.748C68.3766 10.4747 67.4109 11.1804 66.1853 11.1804C64.9596 11.1804 64.0683 10.3633 64.0683 9.1376C64.0683 7.50338 65.7396 6.5377 68.6366 6.5377V6.20343C68.6366 5.01491 68.228 4.42065 67.0395 4.42065C66.3338 4.42065 65.4053 4.68064 64.7739 4.97777L64.514 3.90067C65.2568 3.60354 66.2596 3.34355 67.2252 3.34355C69.3422 3.34355 70.0108 4.34636 70.0108 5.98058V8.87761C70.0108 9.5833 70.0108 10.4004 70.0479 11.069H68.7108ZM68.6366 7.54053C66.1481 7.54053 65.4425 8.20907 65.4425 8.98904C65.4425 9.65758 65.8881 10.1404 66.5938 10.1404C67.8195 10.1404 68.6366 8.91476 68.6366 7.72623V7.54053Z" fill="var(--fill-0, #373D42)"/>
<path id="Vector_9" d="M77.513 11.069V6.20348C77.513 5.12639 77.2159 4.49498 76.2131 4.49498C74.9503 4.49498 74.0589 5.75779 74.0589 7.46629V11.1061H72.6847V3.52931H74.0218C74.0218 3.975 73.9846 4.68069 73.9104 5.12639H73.9475C74.3932 4.08643 75.3217 3.38074 76.6216 3.38074C78.3672 3.38074 78.8872 4.45784 78.8872 5.79493V11.069H77.513Z" fill="var(--fill-0, #373D42)"/>
<path id="Vector_10" d="M86.4265 11.069V6.20348C86.4265 5.12639 86.1294 4.49498 85.1266 4.49498C83.8638 4.49498 82.9724 5.75779 82.9724 7.46629V11.1061H81.5982V3.52931H82.9353C82.9353 3.975 82.8981 4.68069 82.8239 5.12639H82.861C83.3067 4.08643 84.2352 3.38074 85.5351 3.38074C87.2807 3.38074 87.8007 4.45784 87.8007 5.79493V11.069H86.4265Z" fill="var(--fill-0, #373D42)"/>
<path id="Vector_11" d="M99.3529 11.2177C96.1216 11.2177 94.2646 9.32348 94.2646 6.2036C94.2646 2.9723 96.1588 0.669542 99.7986 0.669542C100.801 0.669542 101.767 0.855248 102.658 1.11524L102.361 2.37804C101.507 2.04377 100.616 1.85806 99.6871 1.85806C96.9016 1.85806 95.7874 3.78941 95.7874 5.98075C95.7874 8.54351 97.1987 9.99202 99.5757 9.99202C100.244 9.99202 100.838 9.8806 101.396 9.73203V5.83219H102.77V10.6234C101.73 10.9948 100.467 11.2177 99.3529 11.2177Z" fill="var(--fill-0, #373D42)"/>
<path id="Vector_12" d="M109.194 4.71785C107.597 4.42071 106.817 5.60924 106.817 8.02342V11.069H105.443V3.49218H106.78C106.78 3.97502 106.742 4.6807 106.594 5.27497H106.631C106.965 4.23501 107.745 3.19505 109.231 3.34362L109.194 4.71785Z" fill="var(--fill-0, #373D42)"/>
<path id="Vector_13" d="M113.837 11.2176C111.794 11.2176 110.457 10.029 110.457 7.35487C110.457 5.12639 111.868 3.38074 114.134 3.38074C116.065 3.38074 117.551 4.45784 117.551 7.16916C117.551 9.47193 116.065 11.2176 113.837 11.2176ZM113.985 4.53212C112.908 4.53212 111.868 5.38638 111.868 7.24344C111.868 9.06337 112.611 10.0662 113.985 10.0662C115.1 10.0662 116.102 9.17479 116.102 7.24344C116.102 5.53494 115.397 4.53212 113.985 4.53212Z" fill="var(--fill-0, #373D42)"/>
<path id="Vector_14" d="M124.571 11.0691C124.571 10.6234 124.608 9.91776 124.682 9.47206H124.645C124.199 10.512 123.271 11.2177 121.971 11.2177C120.225 11.2177 119.705 10.1406 119.705 8.80352V3.52945H121.042V8.39496C121.042 9.47206 121.34 10.1035 122.342 10.1035C123.605 10.1035 124.496 8.84066 124.496 7.13216V3.4923H125.871V11.0691H124.571Z" fill="var(--fill-0, #373D42)"/>
<path id="Vector_15" d="M131.256 11.1804C130.773 11.1804 130.402 11.1804 129.993 11.1061V14.8574H128.619V3.52926H129.956C129.956 3.93781 129.919 4.6435 129.844 5.05205H129.882C130.29 4.01209 131.219 3.34355 132.407 3.34355C134.19 3.34355 135.193 4.60635 135.193 6.90912C135.156 9.62044 133.707 11.1804 131.256 11.1804ZM132.073 4.49493C130.699 4.49493 129.993 6.09201 129.993 7.4291V9.91757C130.402 10.029 130.81 10.1033 131.33 10.1033C132.779 10.1033 133.744 9.24903 133.744 7.05769C133.744 5.42347 133.224 4.49493 132.073 4.49493Z" fill="var(--fill-0, #373D42)"/>
<path id="Vector_16" d="M144.292 11.1436C143.549 11.1436 142.695 11.1064 141.655 11.1064V0.818251C142.398 0.818251 143.438 0.781107 144.663 0.781107C146.855 0.781107 147.969 1.70964 147.969 3.23244C147.969 4.30954 147.337 5.23807 146.186 5.60948V5.64663C147.449 5.83233 148.266 6.76087 148.266 8.02367C148.266 9.3979 147.337 11.1436 144.292 11.1436ZM144.44 1.85821C143.958 1.85821 143.475 1.85821 143.066 1.89535V5.23807C143.363 5.23807 143.623 5.23807 143.995 5.23807C145.703 5.23807 146.483 4.56953 146.483 3.45529C146.483 2.52676 146 1.85821 144.44 1.85821ZM144.032 6.31517C143.846 6.31517 143.326 6.31517 143.066 6.31517V9.91788C143.326 9.95503 143.92 9.99217 144.366 9.99217C146.037 9.99217 146.78 9.13792 146.78 8.06082C146.78 6.79801 145.703 6.31517 144.032 6.31517Z" fill="var(--fill-0, #373D42)"/>
<path id="Vector_17" d="M154.32 4.71785C152.723 4.42071 151.943 5.60924 151.943 8.02342V11.069H150.569V3.49218H151.906C151.906 3.97502 151.869 4.6807 151.721 5.27497H151.758C152.092 4.23501 152.872 3.19505 154.358 3.34362L154.32 4.71785Z" fill="var(--fill-0, #373D42)"/>
<path id="Vector_18" d="M160.374 11.069C160.374 10.549 160.374 9.99185 160.449 9.54616H160.411C160.04 10.4747 159.074 11.1804 157.849 11.1804C156.623 11.1804 155.732 10.3633 155.732 9.1376C155.732 7.50338 157.403 6.5377 160.3 6.5377V6.20343C160.3 5.01491 159.891 4.42065 158.703 4.42065C157.997 4.42065 157.069 4.68064 156.437 4.97777L156.177 3.90067C156.92 3.60354 157.923 3.34355 158.889 3.34355C161.006 3.34355 161.674 4.34636 161.674 5.98058V8.87761C161.674 9.5833 161.674 10.4004 161.711 11.069H160.374ZM160.3 7.54053C157.812 7.54053 157.106 8.20907 157.106 8.98904C157.106 9.65758 157.552 10.1404 158.257 10.1404C159.483 10.1404 160.3 8.91476 160.3 7.72623V7.54053Z" fill="var(--fill-0, #373D42)"/>
<path id="Vector_19" d="M169.177 11.069V6.20348C169.177 5.12639 168.88 4.49498 167.877 4.49498C166.615 4.49498 165.723 5.75779 165.723 7.46629V11.1061H164.349V3.52931H165.686C165.686 3.975 165.649 4.68069 165.575 5.12639H165.612C166.058 4.08643 166.986 3.38074 168.286 3.38074C170.032 3.38074 170.552 4.45784 170.552 5.79493V11.069H169.177Z" fill="var(--fill-0, #373D42)"/>
<path id="Vector_20" d="M177.98 11.0683C177.98 10.6597 178.017 9.95404 178.091 9.54548H178.054C177.645 10.5483 176.717 11.254 175.528 11.254C173.671 11.254 172.743 9.9169 172.743 7.68842C172.743 5.05138 174.266 3.4543 176.643 3.4543C177.051 3.4543 177.46 3.49144 177.905 3.52858V0.000154808H179.28V11.1054H177.98V11.0683ZM177.942 4.64283C177.497 4.5314 177.014 4.45712 176.605 4.45712C175.157 4.45712 174.191 5.31137 174.191 7.50271C174.191 9.13693 174.711 10.0655 175.863 10.0655C177.237 10.0655 177.942 8.46838 177.942 7.1313V4.64283Z" fill="var(--fill-0, #373D42)"/>
</g>
</svg>
