<svg width="100" height="100" viewBox="0 0 100 100" fill="none" xmlns="http://www.w3.org/2000/svg">
<circle cx="50" cy="50" r="50" fill="white"/>
<mask id="mask0_1326_380" style="mask-type:alpha" maskUnits="userSpaceOnUse" x="10" y="23" width="80" height="54">
<rect x="10" y="23" width="80" height="54" fill="#D9D9D9"/>
</mask>
<g mask="url(#mask0_1326_380)">
<path d="M20 49L22.5 40.5L76.5 38.5L79.5 49V63L79 64L67 64.5L64.5 68L57 68.5H53L50 66.5L46 68.5L34 67.5L32.5 64.5H24.5L20.5 63.5L20 49Z" fill="white"/>
<path d="M17 38.5L19.5 35.5L29.5 33.5L43 34.5L49.5 35.5L56.5 35L65 34H74L79.5 35L82.5 38L81.5 46L79.5 50L77.5 46L74.5 44H70L67.5 47L66 50L63 45.5L59 44L55 45L51.5 48.5L50.5 53L47.5 46L42.5 44L36.5 45.5L34 50L31 45L27 44L23.5 44.5L20 49.5L18 45.5L17 38.5Z" fill="#FFDBDF"/>
<mask id="mask1_1326_380" style="mask-type:alpha" maskUnits="userSpaceOnUse" x="10" y="30" width="80" height="40">
<rect x="10" y="30" width="80" height="40" fill="#D9D9D9"/>
</mask>
<g mask="url(#mask1_1326_380)">
<mask id="mask2_1326_380" style="mask-type:alpha" maskUnits="userSpaceOnUse" x="20" y="38" width="60" height="31">
<path d="M20 49L22.5 40.5L76.5 38.5L79.5 49V63L79 64L67 64.5L64.5 68L57 68.5H53L50 66.5L46 68.5L34 67.5L32.5 64.5H24.5L20.5 63.5L20 49Z" fill="white"/>
</mask>
<g mask="url(#mask2_1326_380)">
<g filter="url(#filter0_ng_1326_380)">
<path d="M31.5 56.5C31.5 56.5 34.544 53.7392 38.3246 55.0003C42.3103 56.3298 40.1264 59.9305 43.1075 61.8003C46.2961 63.8003 50.4226 59.6503 51 61.0002C51.6381 62.4919 50 69.5002 50 69.5002H35.5L32 66.5002L31.5 56.5Z" fill="#DEDFE1"/>
</g>
</g>
<path d="M50 57L61.5 56.5L61 66.5L60 67.5L50.5 67L50 57Z" fill="white"/>
<path d="M22 54L33.5 53.5L33 63.5L32 64.5L22.5 64L22 54Z" fill="white"/>
<path d="M49.9529 66.5161C49.3283 67.5964 48.3487 68.2325 47.0142 68.4245C46.2339 68.5361 45.6874 68.5925 45.3747 68.5938C43.1201 68.6008 40.6573 68.6018 37.9865 68.5967C36.8893 68.5938 35.6187 68.4924 34.7351 68.0065C33.4769 67.3148 32.8535 66.1487 32.6895 64.7129C32.6889 64.7074 32.6871 64.7021 32.6842 64.6974C32.6814 64.6927 32.6776 64.6886 32.6731 64.6855C32.6686 64.6823 32.6635 64.6801 32.6581 64.6791C32.6528 64.678 32.6472 64.6781 32.6419 64.6794C31.7141 64.8873 30.7647 64.9922 29.7937 64.9941C28.1212 64.9967 26.5725 64.9935 25.1478 64.9845C24.7811 64.9826 24.4612 64.967 24.1879 64.9377C23.5016 64.865 22.578 64.7731 21.8688 64.4909C20.4666 63.9323 19.8804 62.7499 19.848 61.2777C19.7807 58.281 19.7552 55.2827 19.7718 52.2828C19.7756 51.6036 19.8385 50.9174 19.9605 50.2242C19.9706 50.1672 19.9677 50.1087 19.952 50.053C19.9363 49.9973 19.9083 49.946 19.8699 49.9027C18.9708 48.8862 18.315 47.743 17.9025 46.4733C17.2448 44.4444 17.1762 42.3255 17.2057 39.9952C17.2159 39.198 17.2992 38.5173 17.4555 37.9529C17.8606 36.4931 18.9806 35.4026 20.3656 34.7702C21.8364 34.0987 23.5579 33.8481 25.1888 33.7113C29.1703 33.3774 33.1709 33.2808 37.2706 33.6137C38.7093 33.731 39.7762 33.8564 40.4714 33.9896C40.4753 33.9903 41.574 34.1762 43.7676 34.5473C47.2118 35.1296 50.6567 35.2418 54.1022 34.8841C55.8313 34.7052 57.6653 34.2872 59.3315 34.0097C60.3043 33.8478 61.3942 33.7202 62.6009 33.6271C67.1973 33.2712 71.6363 33.3334 75.9181 33.8136C76.2771 33.8538 76.6126 33.9042 76.9247 33.9648C78.8339 34.334 80.2256 34.7473 81.4323 36.0904C83.0366 37.8744 82.866 40.3434 82.6925 42.5512C82.5794 43.9938 82.3833 45.1943 82.1043 46.1529C81.683 47.5983 80.9119 48.7854 79.9797 49.9429C79.8739 50.0749 79.9444 50.1438 79.9587 50.2787C80.0149 50.8019 80.096 51.4084 80.0969 51.9384C80.1083 57.312 80.109 60.4171 80.0988 61.2538C80.095 61.5401 80.0359 61.9027 79.9215 62.3415C79.647 63.388 78.8701 64.2279 77.8759 64.5503C77.0759 64.8104 76.1866 64.9517 75.2079 64.974C74.7491 64.9842 73.2955 64.9861 70.8471 64.9798C69.498 64.9759 68.2992 64.834 67.2506 64.5541C67.244 64.5523 67.237 64.5519 67.2302 64.5531C67.2234 64.5542 67.2169 64.5568 67.2112 64.5607C67.2054 64.5646 67.2005 64.5697 67.1968 64.5756C67.1931 64.5816 67.1906 64.5882 67.1896 64.5952C67.1318 65.0014 67.093 65.2495 67.0733 65.3395C66.795 66.6175 65.9171 67.7444 64.6694 68.1844C63.6885 68.5297 62.5256 68.5699 61.4571 68.5823C61.0891 68.5862 58.8733 68.5887 54.8095 68.59C54.0164 68.5906 53.2577 68.5176 52.5332 68.3709C51.3961 68.1423 50.5401 67.5808 50.0034 66.517C50.0011 66.5124 49.9975 66.5085 49.9931 66.5057C49.9887 66.5029 49.9837 66.5014 49.9785 66.5013C49.9733 66.5012 49.9681 66.5025 49.9636 66.5051C49.9591 66.5077 49.9554 66.5115 49.9529 66.5161ZM32.7582 64.6239L32.7782 64.6679C32.7801 64.6717 32.7814 64.6756 32.782 64.6794C32.9065 65.3452 32.9914 65.738 33.0365 65.8579C33.6141 67.3923 34.777 68.1748 36.3479 68.3747C36.8188 68.4347 37.1902 68.4675 37.4622 68.4733C38.3315 68.493 40.9287 68.495 45.2536 68.479C45.7525 68.4771 46.2964 68.4328 46.8855 68.3461C48.1561 68.1605 49.2819 67.6009 49.8862 66.4118C49.895 66.3948 49.9083 66.3806 49.9247 66.3709C49.9411 66.3611 49.9598 66.3561 49.9789 66.3565C49.9979 66.3569 50.0165 66.3627 50.0325 66.3731C50.0484 66.3836 50.0612 66.3983 50.0692 66.4156C50.807 68.0438 52.3359 68.3346 53.9125 68.4475C54.2366 68.4704 54.5496 68.4825 54.8514 68.4838C57.3577 68.4915 59.4706 68.4876 61.1902 68.4723C62.2177 68.4628 63.0299 68.4172 63.6266 68.3355C64.7123 68.1873 65.6636 67.7271 66.307 66.8155C66.816 66.0933 66.9885 65.4169 67.0972 64.5512C67.0992 64.5345 67.1047 64.5184 67.1135 64.5041C67.1223 64.4897 67.134 64.4774 67.148 64.4681C67.1619 64.4587 67.1777 64.4525 67.1943 64.4498C67.2109 64.4472 67.2278 64.4481 67.244 64.4527C68.466 64.7999 69.7852 64.886 71.1568 64.8851C72.0649 64.8838 73.2831 64.8828 74.8114 64.8822C75.3427 64.8822 75.8434 64.8529 76.3137 64.7942C77.691 64.621 78.9064 64.2623 79.5898 62.9709C79.7449 62.6775 79.8573 62.3048 79.9272 61.8526C79.9819 61.4993 80.0086 61.1084 80.0073 60.6798C79.999 57.8955 80 55.6793 80.0102 54.0314C80.0165 52.9467 80.0187 52.2767 80.0168 52.0216C80.013 51.396 79.9196 50.7235 79.83 50.1295C79.8234 50.0849 79.8262 50.0395 79.8382 49.9962C79.8502 49.9528 79.8711 49.9125 79.8996 49.8779C80.9281 48.618 81.7355 47.3295 82.1101 45.73C82.248 45.1382 82.3534 44.5732 82.4265 44.0349C82.5886 42.8315 82.6823 41.6288 82.7077 40.4266C82.7439 38.7574 82.3245 37.0986 81.1273 35.9191C80.4054 35.2087 79.5529 34.7173 78.5699 34.445C76.7617 33.9447 74.9287 33.7668 73.0223 33.6453C72.2286 33.5949 71.0476 33.5525 69.4792 33.518C67.5824 33.476 65.9851 33.4967 64.6875 33.5802C62.8148 33.7001 61.4205 33.8213 60.5048 33.9437C59.394 34.093 58.5368 34.2307 57.9331 34.357C56.9354 34.5668 55.9438 34.7425 54.9582 34.8841C54.6068 34.9345 54.2566 34.9654 53.9077 34.9769C53.8067 34.9807 53.6961 35.018 53.5827 35.0285C52.5056 35.1261 51.2798 35.1746 49.9053 35.1739C48.7227 35.1733 47.4981 35.107 46.2316 34.975C45.0344 34.85 43.8019 34.672 42.5342 34.4412C40.705 34.1083 39.3838 33.8911 38.0341 33.7735C36.6602 33.6529 35.1052 33.5643 33.3692 33.5075C30.6087 33.4176 27.7701 33.6147 25.2069 33.8155C23.433 33.9543 21.8364 34.1743 20.2627 34.9281C18.4077 35.8168 17.3554 37.3942 17.3192 39.4672C17.303 40.3893 17.3316 41.2876 17.3392 42.1141C17.3544 43.902 17.6557 45.82 18.3544 47.4022C18.6861 48.1534 19.2157 48.9767 19.9433 49.8721C20.0266 49.9748 20.0599 50.0934 20.0434 50.228C19.9862 50.7063 19.9081 51.1014 19.9081 51.5376C19.909 52.6788 19.9357 53.4642 19.9367 54.4485C19.9379 56.2406 19.9363 58.4054 19.9319 60.9429C19.9319 60.9875 19.9519 61.2541 19.992 61.7426C20.018 62.0679 20.0653 62.3303 20.134 62.5299C20.5991 63.8835 21.6114 64.4536 23.0384 64.6842C23.7679 64.8022 24.437 64.8662 25.0458 64.8765C25.5707 64.8847 27.066 64.886 29.5316 64.8803C30.2299 64.8784 30.7501 64.858 31.092 64.8191C31.6372 64.7578 32.1551 64.674 32.6457 64.5675C32.6683 64.5629 32.6917 64.5659 32.7121 64.5762C32.7325 64.5864 32.7488 64.6032 32.7582 64.6239Z" fill="#787B83"/>
<path d="M32.7579 64.6239C32.7485 64.6032 32.7323 64.5864 32.7119 64.5761C32.6914 64.5659 32.668 64.5628 32.6454 64.5674C32.1549 64.6739 31.637 64.7578 31.0917 64.819C30.7498 64.8579 30.2297 64.8783 29.5313 64.8802C27.0657 64.886 25.5705 64.8847 25.0456 64.8764C24.4368 64.8662 23.7677 64.8021 23.0381 64.6841C21.6112 64.4536 20.5989 63.8835 20.1337 62.5299C20.0651 62.3302 20.0178 62.0678 19.9917 61.7426C19.9517 61.2541 19.9317 60.9875 19.9317 60.9429C19.9361 58.4053 19.9377 56.2405 19.9364 54.4485C19.9355 53.4641 19.9088 52.6788 19.9078 51.5375C19.9078 51.1013 19.986 50.7062 20.0432 50.2279C20.0597 50.0934 20.0264 49.9748 19.9431 49.8721C19.2155 48.9767 18.6858 48.1534 18.3541 47.4021C17.6554 45.8199 17.3542 43.9019 17.339 42.114C17.3313 41.2875 17.3027 40.3893 17.3189 39.4671C17.3552 37.3942 18.4075 35.8167 20.2624 34.928C21.8362 34.1742 23.4328 33.9542 25.2067 33.8155C27.7698 33.6146 30.6085 33.4176 33.3689 33.5075C35.105 33.5642 36.66 33.6529 38.0339 33.7734C39.3836 33.8911 40.7048 34.1082 42.5339 34.4411C43.8017 34.672 45.0342 34.8499 46.2314 34.9749C47.4979 35.1069 48.7224 35.1732 49.905 35.1739C51.2795 35.1745 52.5054 35.126 53.5825 35.0285C53.6959 35.018 53.8065 34.9806 53.9075 34.9768C54.2564 34.9653 54.6065 34.9344 54.9579 34.884C55.9436 34.7425 56.9352 34.5668 57.9329 34.3569C58.5366 34.2307 59.3938 34.0929 60.5046 33.9437C61.4203 33.8212 62.8145 33.7001 64.6873 33.5802C65.9849 33.4966 67.5821 33.4759 69.479 33.518C71.0473 33.5524 72.2283 33.5948 73.022 33.6452C74.9284 33.7667 76.7614 33.9446 78.5697 34.4449C79.5527 34.7173 80.4052 35.2086 81.1271 35.9191C82.3243 37.0986 82.7437 38.7573 82.7075 40.4266C82.6821 41.6287 82.5883 42.8315 82.4263 44.0349C82.3532 44.5731 82.2477 45.1382 82.1098 45.73C81.7352 47.3294 80.9279 48.618 79.8994 49.8778C79.8709 49.9125 79.8499 49.9528 79.8379 49.9961C79.826 50.0395 79.8232 50.0849 79.8298 50.1294C79.9194 50.7235 80.0128 51.396 80.0166 52.0216C80.0185 52.2767 80.0163 52.9466 80.0099 54.0314C79.9998 55.6793 79.9988 57.8954 80.0071 60.6798C80.0083 61.1083 79.9817 61.4993 79.927 61.8526C79.8571 62.3047 79.7446 62.6775 79.5896 62.9709C78.9061 64.2623 77.6908 64.621 76.3134 64.7941C75.8432 64.8528 75.3424 64.8821 74.8112 64.8821C73.2829 64.8828 72.0647 64.8837 71.1566 64.885C69.785 64.886 68.4657 64.7999 67.2437 64.4526C67.2276 64.4481 67.2106 64.4471 67.1941 64.4498C67.1775 64.4524 67.1617 64.4587 67.1478 64.468C67.1338 64.4774 67.1221 64.4897 67.1133 64.504C67.1045 64.5184 67.0989 64.5344 67.0969 64.5512C66.9883 65.4169 66.8157 66.0932 66.3067 66.8154C65.6633 67.7271 64.712 68.1872 63.6263 68.3355C63.0296 68.4171 62.2175 68.4627 61.19 68.4723C59.4704 68.4876 57.3575 68.4914 54.8512 68.4838C54.5493 68.4825 54.2364 68.4704 53.9123 68.4474C52.3357 68.3345 50.8068 68.0437 50.069 66.4156C50.0609 66.3983 50.0482 66.3835 50.0322 66.3731C50.0163 66.3626 49.9977 66.3569 49.9787 66.3565C49.9596 66.3561 49.9408 66.3611 49.9244 66.3708C49.9081 66.3806 49.8947 66.3948 49.886 66.4118C49.2816 67.6008 48.1559 68.1604 46.8853 68.346C46.2962 68.4327 45.7523 68.4771 45.2534 68.479C40.9284 68.4949 38.3313 68.493 37.462 68.4732C37.19 68.4675 36.8186 68.4347 36.3477 68.3747C34.7768 68.1748 33.6139 67.3923 33.0363 65.8579C32.9911 65.738 32.9063 65.3451 32.7818 64.6793C32.7811 64.6755 32.7798 64.6717 32.7779 64.6679L32.7579 64.6239ZM50.0032 52.0464C50.0766 51.9642 50.1119 51.9441 50.1395 51.8236C50.3619 50.8619 50.6603 49.9442 51.0346 49.0705C51.3263 48.3887 51.6179 47.8294 51.9096 47.3926C53.2422 45.3971 55.5804 43.7977 58.0501 43.8254C58.0755 43.8254 58.4092 43.8257 59.051 43.8264C59.4253 43.8264 59.8024 43.8767 60.1824 43.9775C63.0134 44.7313 64.9484 46.8148 65.9436 49.5344C65.9534 49.5615 65.9713 49.5849 65.995 49.6013C66.0186 49.6176 66.0468 49.6262 66.0755 49.6258C66.1042 49.6254 66.1321 49.616 66.1553 49.5989C66.1785 49.5818 66.1957 49.558 66.2047 49.5306C67.0874 46.8569 69.2483 43.9947 72.1889 43.5097C72.6732 43.43 73.0135 43.3984 73.2098 43.415C73.7805 43.4635 74.2151 43.5276 74.5138 43.6073C77.1313 44.3066 78.8242 46.5852 79.5629 49.0762C79.5748 49.116 79.5946 49.1531 79.621 49.1852L79.6677 49.2426C79.6744 49.251 79.6828 49.2578 79.6924 49.2625C79.7019 49.2672 79.7124 49.2697 79.7231 49.2699C79.7337 49.2701 79.7443 49.2679 79.754 49.2635C79.7637 49.2591 79.7723 49.2527 79.7793 49.2446C80.3162 48.6228 80.7649 47.9174 81.1252 47.1285C81.9802 45.2546 82.1156 42.9893 82.2166 40.7394C82.2776 39.3973 82.0422 38.0207 81.3482 36.8728C80.6667 35.745 79.336 35.1356 78.1207 34.8228C77.1491 34.5722 76.1199 34.3965 75.0333 34.2957C73.7528 34.1771 72.4682 34.0951 71.1795 34.0499C70.9984 34.0441 70.6409 33.9848 70.3826 33.9781C69.5724 33.9577 68.5731 33.9482 67.3848 33.9494C66.4535 33.9504 65.5385 34.0451 64.5805 34.0929C62.1251 34.2154 60.0401 34.4411 58.3256 34.7702C57.1125 35.0023 56.3016 35.1519 55.893 35.2188C54.61 35.4274 53.47 35.5607 52.4729 35.6187C51.9341 35.6499 51.4022 35.6704 50.8773 35.6799C49.5454 35.7035 48.2026 35.65 46.8491 35.5192C45.2153 35.3611 43.6419 35.1369 42.1288 34.8467C39.7598 34.392 37.4286 34.1353 35.1352 34.0767C35.0386 34.0741 34.7793 34.0473 34.3574 33.9963C34.1464 33.9702 33.8862 33.9561 33.5767 33.9542C33.2863 33.9517 32.1933 33.9593 30.2977 33.9772C29.8828 33.981 29.4881 33.9992 29.1138 34.0317C28.8323 34.0566 28.4374 34.0792 27.929 34.0996C27.4524 34.1194 26.5113 34.1914 25.1056 34.3158C24.2668 34.3898 23.4941 34.4985 22.7875 34.642C21.5655 34.8888 20.3892 35.2839 19.4293 36.0511C17.5105 37.5845 17.7288 40.0267 17.7441 42.2288C17.7441 42.2593 17.7479 42.2898 17.7555 42.3197C17.7936 42.474 17.814 42.6067 17.8165 42.7177C17.8629 44.8471 18.4466 46.8154 19.5675 48.6228C19.7404 48.9002 19.9209 49.1154 20.109 49.2685C20.1211 49.2782 20.1353 49.2848 20.1506 49.2878C20.1658 49.2907 20.1815 49.2899 20.1963 49.2854C20.2112 49.2809 20.2247 49.2728 20.2357 49.2618C20.2467 49.2509 20.2549 49.2374 20.2596 49.2226C20.8954 47.1993 21.9601 45.4574 23.8341 44.3027C24.4619 43.9163 25.1438 43.651 25.8796 43.5069C27.6269 43.1644 29.4675 43.8436 30.7981 45.0106C32.0233 46.0852 32.9416 47.3859 33.5529 48.9126C33.6635 49.1894 33.7578 49.4059 33.836 49.5621C33.8402 49.5701 33.8466 49.5767 33.8544 49.581C33.8623 49.5854 33.8712 49.5873 33.8801 49.5866C33.8891 49.5859 33.8976 49.5825 33.9047 49.577C33.9117 49.5715 33.917 49.564 33.9199 49.5555C34.2522 48.4828 34.7809 47.5013 35.506 46.611C36.7718 45.0575 38.3907 44.1315 40.3626 43.8331C40.8639 43.7575 41.3787 43.8397 41.8438 43.8197C44.2916 43.7173 46.6975 45.2153 48.0063 47.2529C48.8896 48.6285 49.5063 50.1721 49.8564 51.8838C49.8583 51.8927 49.8612 51.9017 49.865 51.9106L49.9212 52.034C49.9247 52.0415 49.9299 52.048 49.9365 52.053C49.943 52.058 49.9507 52.0612 49.9589 52.0624C49.967 52.0637 49.9753 52.0629 49.9831 52.0601C49.9908 52.0573 49.9977 52.0526 50.0032 52.0464ZM32.8351 63.8892C32.9028 63.1756 32.879 62.218 32.9686 61.292C33.001 60.9572 32.98 60.6358 32.9934 60.2732C33.0378 59.0737 33.1084 57.4726 33.205 55.4701C33.2765 53.9817 33.3089 52.4913 33.5272 51.0956C33.591 50.6833 33.5681 50.36 33.4633 50.0051C32.8876 48.0612 31.7618 46.26 30.1767 45.0537C29.1999 44.3094 28.045 43.9179 26.7118 43.879C25.7853 43.8512 24.8368 44.2243 24.0752 44.7399C22.7922 45.6085 21.8018 46.6962 21.1966 48.1368C20.8668 48.9231 20.6177 49.7646 20.4493 50.6613C20.3533 51.1747 20.3034 51.8143 20.2996 52.5802C20.2926 54.0866 20.2894 55.9232 20.2901 58.0903C20.2901 59.0478 20.3558 59.9222 20.3682 61.0328C20.3787 61.9549 20.6961 63.3267 21.594 63.7887C22.3823 64.1934 23.4051 64.3484 24.3316 64.3799C25.8631 64.4341 27.8728 64.4475 30.3606 64.4201C31.1588 64.4112 31.9417 64.2865 32.7093 64.0461C32.7435 64.0353 32.7736 64.0146 32.796 63.9867C32.8184 63.9587 32.832 63.9248 32.8351 63.8892ZM67.2228 63.9428C67.6542 64.0767 68.1747 64.2004 68.7841 64.3139C69.1851 64.3885 69.7205 64.4271 70.3902 64.4297C71.557 64.4348 72.4669 64.4271 73.1202 64.4067C74.0486 64.378 74.979 64.4125 75.7568 64.3895C76.3617 64.371 77.0029 64.2648 77.6803 64.0709C78.706 63.7782 79.1845 62.9527 79.4628 61.9779C79.5511 61.668 79.5966 61.1294 79.5991 60.3622C79.6048 58.4796 79.5985 55.8572 79.58 52.4951C79.5756 51.7642 79.5248 51.1361 79.4275 50.6106C78.9738 48.1617 77.83 45.8687 75.6691 44.5878C74.787 44.0649 73.9025 43.8289 73.0154 43.8799C71.5728 43.9628 70.3127 44.5122 69.235 45.5281C67.8713 46.8132 66.9498 48.3661 66.4707 50.1868C66.3779 50.5401 66.363 50.8928 66.4259 51.2448C66.6566 52.5401 66.6404 54.0094 66.7147 55.4491C66.7681 56.4886 66.8148 57.5951 66.8548 58.7685C66.8863 59.6974 66.9282 60.2359 66.9101 60.6884C66.905 60.8077 66.9066 60.9135 66.9149 61.006C66.9886 61.814 67.0324 62.7142 67.0464 63.7065C67.0473 63.7596 67.0648 63.8111 67.0965 63.8535C67.1281 63.896 67.1723 63.9272 67.2228 63.9428ZM33.3594 61.117C33.3384 61.2164 33.3368 61.4279 33.3546 61.7512C33.3648 61.9323 33.3638 62.1428 33.3518 62.3825C33.3238 62.9425 33.3012 63.4093 33.2841 63.783C33.2523 64.4526 33.2673 64.9191 33.3289 65.1825C33.6444 66.5256 34.5299 67.4822 35.8806 67.8639C36.3725 68.0029 36.8437 68.075 37.2942 68.0801C39.5406 68.1024 41.9963 68.0998 44.6615 68.0724C45.5638 68.0629 46.2857 68.0214 46.8272 67.9481C48.5543 67.7127 49.7821 66.5839 49.7621 64.7693C49.7277 61.7834 49.7261 58.4273 49.7573 54.701C49.7624 54.1634 49.7192 53.6063 49.6277 53.0298C49.3446 51.2467 48.8336 49.5134 47.9491 47.9541C47.3695 46.9318 46.6101 46.0839 45.6709 45.4105C44.9058 44.862 43.9981 44.4819 42.9476 44.2702C42.2709 44.1344 41.6379 44.0665 40.9955 44.1506C40.5112 44.2138 40.1065 44.2887 39.7811 44.3754C37.902 44.8786 36.4474 45.9054 35.4174 47.4557C34.4603 48.8957 33.9138 50.5857 33.7778 52.5257C33.7594 52.7936 33.714 53.8752 33.6415 55.7705C33.6269 56.1589 33.6098 56.4819 33.5901 56.7395C33.551 57.2638 33.5777 57.7698 33.5357 58.294C33.4909 58.8575 33.4766 59.0918 33.4652 59.7557C33.455 60.3756 33.4198 60.8293 33.3594 61.117ZM58.1655 44.1554C56.6829 44.2626 55.3427 44.7651 54.1449 45.663C53.0188 46.5068 52.173 47.5801 51.6074 48.883C50.8512 50.624 50.3756 52.4237 50.1805 54.282C50.1532 54.5435 50.143 54.7769 50.15 54.9823C50.1691 55.5734 50.191 56.2134 50.19 56.7348C50.1881 59.6269 50.1888 61.7738 50.1919 63.1756C50.1926 63.4096 50.1859 63.6909 50.1719 64.0193C50.1328 64.9482 50.2568 65.8895 50.7048 66.6653C50.8433 66.9063 50.9945 67.0843 51.1585 67.199C52.1269 67.8773 53.2908 68.0657 54.4756 68.0743C56.8643 68.0909 59.2261 68.0922 61.5608 68.0782C62.1746 68.0743 62.6598 68.0083 63.3366 67.9404C63.9638 67.8773 64.651 67.6946 65.1543 67.3023C65.8349 66.7718 66.2912 66.1037 66.5231 65.2983C66.614 64.9832 66.6524 64.5751 66.6385 64.0738C66.613 63.1714 66.5819 62.4234 66.545 61.8296C66.5193 61.4039 66.5412 60.7783 66.4907 60.2656C66.4519 59.8753 66.4329 59.3759 66.4335 58.7675C66.4345 58.1228 66.3544 57.5373 66.343 56.8496C66.3268 55.9102 66.2305 54.9277 66.2372 53.9759C66.24 53.5387 66.1876 53.1418 66.1638 52.6415C66.1028 51.3979 65.7596 50.1409 65.2611 48.993C64.2021 46.5536 62.2585 44.7294 59.5953 44.2721C59.3379 44.2281 59.0376 44.21 58.7793 44.1774C58.5544 44.1494 58.3497 44.142 58.1655 44.1554Z" fill="#787B83" stroke="#787B83" stroke-width="0.6"/>
<path d="M49.9216 52.0342L49.8654 51.9108C49.8616 51.9018 49.8587 51.8929 49.8568 51.884C49.5067 50.1723 48.89 48.6287 48.0067 47.2531C46.6979 45.2155 44.2921 43.7174 41.8442 43.8198C41.3791 43.8399 40.8643 43.7576 40.363 43.8332C38.3911 44.1317 36.7723 45.0576 35.5064 46.6112C34.7813 47.5015 34.2526 48.4829 33.9203 49.5556C33.9174 49.5641 33.9121 49.5716 33.9051 49.5772C33.898 49.5827 33.8895 49.586 33.8806 49.5867C33.8716 49.5874 33.8627 49.5855 33.8548 49.5812C33.847 49.5768 33.8406 49.5703 33.8364 49.5623C33.7582 49.406 33.6639 49.1895 33.5533 48.9128C32.942 47.386 32.0237 46.0854 30.7986 45.0108C29.4679 43.8437 27.6273 43.1645 25.8801 43.507C25.1442 43.6511 24.4623 43.9164 23.8345 44.3029C21.9605 45.4575 20.8958 47.1995 20.26 49.2227C20.2553 49.2375 20.2471 49.251 20.2361 49.262C20.2251 49.2729 20.2116 49.281 20.1968 49.2855C20.1819 49.2901 20.1662 49.2909 20.151 49.2879C20.1358 49.285 20.1215 49.2784 20.1094 49.2686C19.9213 49.1156 19.7408 48.9003 19.568 48.6229C18.447 46.8156 17.8633 44.8472 17.8169 42.7178C17.8144 42.6068 17.7941 42.4742 17.7559 42.3199C17.7483 42.29 17.7445 42.2595 17.7445 42.229C17.7292 40.0269 17.511 37.5847 19.4297 36.0512C20.3896 35.284 21.5659 34.889 22.7879 34.6422C23.4945 34.4987 24.2672 34.3899 25.1061 34.316C26.5117 34.1916 27.4528 34.1195 27.9294 34.0998C28.4378 34.0794 28.8327 34.0567 29.1143 34.0318C29.4885 33.9993 29.8832 33.9811 30.2981 33.9773C32.1937 33.9595 33.2867 33.9518 33.5771 33.9544C33.8866 33.9563 34.1468 33.9703 34.3578 33.9964C34.7798 34.0475 35.039 34.0743 35.1356 34.0768C37.429 34.1355 39.7602 34.3922 42.1292 34.8469C43.6423 35.137 45.2157 35.3612 46.8495 35.5194C48.203 35.6501 49.5458 35.7037 50.8777 35.6801C51.4026 35.6705 51.9345 35.6501 52.4734 35.6188C53.4704 35.5608 54.6104 35.4275 55.8934 35.219C56.3021 35.152 57.1129 35.0025 58.326 34.7703C60.0405 34.4413 62.1255 34.2155 64.5809 34.0931C65.5389 34.0452 66.4539 33.9505 67.3852 33.9496C68.5735 33.9483 69.5728 33.9579 70.383 33.9783C70.6414 33.985 70.9988 34.0443 71.1799 34.05C72.4686 34.0953 73.7532 34.1772 75.0337 34.2959C76.1203 34.3966 77.1495 34.5723 78.1211 34.823C79.3364 35.1358 80.6671 35.7451 81.3486 36.873C82.0426 38.0209 82.278 39.3974 82.217 40.7395C82.116 42.9895 81.9806 45.2547 81.1256 47.1287C80.7653 47.9176 80.3166 48.6229 79.7797 49.2447C79.7727 49.2528 79.7641 49.2593 79.7544 49.2637C79.7447 49.2681 79.7341 49.2702 79.7235 49.27C79.7128 49.2699 79.7023 49.2673 79.6928 49.2626C79.6832 49.2579 79.6748 49.2511 79.6682 49.2428L79.6214 49.1854C79.595 49.1532 79.5753 49.1161 79.5633 49.0763C78.8246 46.5853 77.1317 44.3067 74.5142 43.6074C74.2155 43.5277 73.7809 43.4636 73.2102 43.4152C73.0139 43.3986 72.6736 43.4302 72.1894 43.5099C69.2487 43.9949 67.0878 46.857 66.2052 49.5307C66.1962 49.5581 66.1789 49.582 66.1557 49.5991C66.1325 49.6161 66.1047 49.6255 66.0759 49.6259C66.0472 49.6264 66.0191 49.6178 65.9954 49.6014C65.9718 49.585 65.9538 49.5617 65.944 49.5346C64.9488 46.8149 63.0138 44.7314 60.1828 43.9776C59.8028 43.8769 59.4257 43.8265 59.0514 43.8265C58.4096 43.8259 58.076 43.8255 58.0505 43.8255C55.5808 43.7978 53.2426 45.3972 51.91 47.3927C51.6183 47.8296 51.3267 48.3889 51.035 49.0706C50.6607 49.9443 50.3623 50.862 50.1399 51.8237C50.1123 51.9442 50.077 51.9643 50.0036 52.0466C49.9981 52.0527 49.9912 52.0574 49.9835 52.0602C49.9757 52.063 49.9674 52.0638 49.9593 52.0626C49.9512 52.0614 49.9435 52.0581 49.9369 52.0532C49.9303 52.0482 49.9251 52.0417 49.9216 52.0342ZM20.1952 49.1615C20.4341 48.3107 20.79 47.5046 21.2628 46.7432C22.8613 44.1651 25.8553 42.5504 28.8617 43.7194C31.0283 44.5621 32.6888 46.6026 33.5686 48.7071C33.7141 49.054 33.8059 49.2862 33.844 49.4035C33.8463 49.4113 33.8512 49.4181 33.8579 49.4227C33.8645 49.4272 33.8726 49.4293 33.8808 49.4285C33.8889 49.4277 33.8966 49.4241 33.9026 49.4184C33.9086 49.4126 33.9125 49.405 33.9136 49.3968C33.939 49.2144 33.9873 49.04 34.0585 48.8735C35.1299 46.3644 36.9905 44.5066 39.6738 43.8638C40.1193 43.7573 40.4392 43.7079 40.6337 43.7155C41.0817 43.734 41.5186 43.7372 41.9443 43.7251C42.4158 43.7117 42.7946 43.734 43.0805 43.7921C46.8695 44.564 48.9208 47.6759 49.8139 51.2344C49.8626 51.4248 49.934 51.6353 49.9426 51.8648C49.9431 51.875 49.9473 51.8848 49.9544 51.8922C49.9615 51.8997 49.971 51.9043 49.9811 51.9052C49.9912 51.9062 50.0012 51.9034 50.0092 51.8973C50.0172 51.8913 50.0227 51.8825 50.0246 51.8725C50.2909 50.6366 50.7198 49.4293 51.3114 48.2508C52.4248 46.0334 54.4007 44.3899 56.8419 43.8313C57.4834 43.684 58.0725 43.7433 58.8388 43.728C59.3885 43.7165 59.9271 43.7895 60.4545 43.947C63.1864 44.7621 65.0937 46.8656 66.0298 49.524C66.0324 49.5309 66.037 49.5368 66.0431 49.541C66.0491 49.5452 66.0563 49.5474 66.0636 49.5474C66.0709 49.5474 66.0781 49.5452 66.0842 49.541C66.0902 49.5368 66.0948 49.5309 66.0974 49.524C67.1279 46.4964 69.6186 43.3549 73.1111 43.3377C75.2806 43.3272 77.2556 44.6234 78.4176 46.3883C79.0022 47.2767 79.4251 48.195 79.6863 49.1433C79.6878 49.1486 79.6907 49.1534 79.6947 49.1572C79.6987 49.1609 79.7037 49.1635 79.7091 49.1647C79.7144 49.1659 79.72 49.1656 79.7252 49.1638C79.7305 49.1621 79.7351 49.159 79.7387 49.1548C80.8203 47.8519 81.4973 46.3411 81.77 44.6224C81.9936 43.2105 82.1096 41.7315 82.1179 40.1857C82.1255 38.7125 81.6527 36.9256 80.424 36.0034C79.774 35.5149 79.0279 35.1622 78.1859 34.9454C77.1508 34.6782 76.0612 34.4894 74.9174 34.3791C72.9042 34.1859 70.8549 34.1342 69.0838 34.1026C66.8781 34.0637 64.6197 34.1422 62.3085 34.338C60.6505 34.4783 58.8102 34.7518 56.7875 35.1587C52.9976 35.9202 48.9017 35.9431 44.9774 35.4141C44.4557 35.344 43.4497 35.1794 41.9596 34.9205C40.4275 34.6552 39.4206 34.4974 38.9389 34.447C33.9047 33.9247 28.9007 33.9575 23.9269 34.5455C22.2932 34.7388 20.3477 35.2018 19.1505 36.4253C18.161 37.4364 17.8484 38.7852 17.8341 40.1847C17.8227 41.258 17.8668 42.3661 17.9666 43.5089C18.1083 45.1345 18.5716 46.6631 19.3564 48.0949C19.5737 48.4915 19.833 48.8519 20.1342 49.1758C20.1386 49.1806 20.1442 49.1841 20.1504 49.186C20.1566 49.1879 20.1631 49.1881 20.1694 49.1867C20.1756 49.1852 20.1813 49.1821 20.1858 49.1777C20.1904 49.1732 20.1936 49.1676 20.1952 49.1615Z" fill="#787B83"/>
<path d="M32.835 63.8891C32.8319 63.9247 32.8183 63.9587 32.7959 63.9866C32.7735 64.0145 32.7433 64.0352 32.7092 64.046C31.9415 64.2864 31.1586 64.4111 30.3605 64.42C27.8726 64.4475 25.863 64.4341 24.3315 64.3799C23.405 64.3483 22.3822 64.1933 21.5939 63.7887C20.696 63.3266 20.3786 61.9549 20.3681 61.0327C20.3557 59.9221 20.2899 59.0477 20.2899 58.0902C20.2893 55.9232 20.2925 54.0865 20.2995 52.5802C20.3033 51.8142 20.3532 51.1746 20.4491 50.6612C20.6175 49.7646 20.8666 48.9231 21.1964 48.1367C21.8017 46.6961 22.7921 45.6084 24.0751 44.7398C24.8367 44.2242 25.7851 43.8512 26.7116 43.8789C28.0449 43.9178 29.1998 44.3094 30.1765 45.0536C31.7617 46.2599 32.8874 48.0612 33.4632 50.005C33.568 50.3599 33.5909 50.6832 33.527 51.0955C33.3087 52.4912 33.2763 53.9816 33.2048 55.4701C33.1082 57.4725 33.0377 59.0736 32.9932 60.2732C32.9799 60.6357 33.0009 60.9571 32.9684 61.2919C32.8788 62.2179 32.9027 63.1755 32.835 63.8891ZM32.7387 63.8604C32.8595 60.8401 33.0202 57.1416 33.221 52.7648C33.2325 52.511 33.3046 51.9386 33.4374 51.0477C33.4908 50.687 33.4813 50.3934 33.3869 50.0643C32.8766 48.2971 31.9568 46.7962 30.6274 45.5616C29.4785 44.4946 28.1252 43.9682 26.5677 43.9822C25.2599 43.9937 24.0751 44.7446 23.1209 45.5989C21.6063 46.9572 20.9143 48.7327 20.5425 50.7138C20.4612 51.1449 20.4218 51.7645 20.4243 52.5725C20.4351 55.8721 20.4513 58.661 20.4729 60.939C20.4774 61.372 20.512 61.7218 20.5768 61.9883C20.7913 62.8684 21.1659 63.6002 22.0677 63.8843C23.2801 64.267 24.4354 64.3072 25.7365 64.3196C26.379 64.326 27.913 64.3205 30.3386 64.3033C31.2041 64.2976 31.9209 64.1991 32.673 63.9475C32.6915 63.9413 32.7077 63.9296 32.7195 63.9141C32.7312 63.8985 32.7379 63.8798 32.7387 63.8604Z" fill="#787B83"/>
<path d="M67.2225 63.9427C67.1721 63.9271 67.1279 63.8959 67.0962 63.8534C67.0645 63.811 67.047 63.7595 67.0462 63.7064C67.0322 62.7141 66.9883 61.8139 66.9146 61.0059C66.9064 60.9134 66.9048 60.8076 66.9099 60.6883C66.928 60.2359 66.886 59.6973 66.8546 58.7684C66.8145 57.595 66.7678 56.4885 66.7145 55.449C66.6401 54.0093 66.6563 52.54 66.4256 51.2447C66.3627 50.8927 66.3777 50.54 66.4704 50.1867C66.9496 48.366 67.871 46.8131 69.2347 45.5281C70.3125 44.5122 71.5726 43.9628 73.0151 43.8798C73.9022 43.8288 74.7868 44.0648 75.6688 44.5877C77.8297 45.8686 78.9736 48.1616 79.4273 50.6105C79.5245 51.136 79.5753 51.7642 79.5798 52.495C79.5982 55.8572 79.6046 58.4795 79.5989 60.3621C79.5963 61.1293 79.5509 61.6679 79.4626 61.9778C79.1842 62.9526 78.7057 63.7782 77.6801 64.0709C77.0027 64.2647 76.3615 64.3709 75.7565 64.3894C74.9787 64.4124 74.0484 64.3779 73.12 64.4066C72.4667 64.427 71.5567 64.4347 70.39 64.4296C69.7202 64.427 69.1848 64.3885 68.7839 64.3138C68.1744 64.2003 67.654 64.0766 67.2225 63.9427ZM67.1701 63.7638C67.1704 63.7786 67.1753 63.7931 67.1842 63.805C67.193 63.817 67.2054 63.826 67.2197 63.8308C67.789 64.0227 68.3699 64.1646 68.9621 64.2565C69.5445 64.3464 70.3919 64.3339 70.8847 64.3292C72.3812 64.3132 74.0045 64.304 75.7546 64.3014C76.3284 64.3001 77.0551 64.1576 77.9346 63.8738C78.721 63.6194 79.1575 62.6934 79.3644 61.9759C79.4552 61.6596 79.5007 61.2406 79.5007 60.7189C79.5026 58.8784 79.5013 56.067 79.4969 52.2846C79.4956 51.3758 79.344 50.4112 79.0422 49.3908C78.4626 47.4327 77.4199 45.7529 75.6869 44.7111C74.9644 44.2762 74.2724 44.0377 73.6109 43.9956C72.0203 43.8936 70.6207 44.3916 69.412 45.4898C68.0451 46.7321 67.1116 48.2512 66.6115 50.0471C66.4901 50.4839 66.4536 50.8557 66.5019 51.1625C66.6252 51.9456 66.6929 52.4797 66.7049 52.7648C67.0138 60.0509 67.1688 63.7172 67.1701 63.7638Z" fill="#787B83"/>
<path d="M33.3595 61.1171C33.4199 60.8294 33.4551 60.3757 33.4653 59.7558C33.4767 59.0919 33.491 58.8576 33.5358 58.2941C33.5778 57.7699 33.5511 57.2639 33.5902 56.7396C33.6099 56.482 33.627 56.159 33.6416 55.7706C33.7141 53.8752 33.7595 52.7937 33.7779 52.5258C33.9139 50.5858 34.4604 48.8958 35.4174 47.4558C36.4475 45.9055 37.9021 44.8787 39.7812 44.3755C40.1066 44.2888 40.5113 44.2139 40.9956 44.1507C41.638 44.0666 42.271 44.1345 42.9477 44.2703C43.9981 44.482 44.9059 44.8621 45.671 45.4106C46.6102 46.084 47.3696 46.9319 47.9492 47.9542C48.8337 49.5135 49.3446 51.2468 49.6277 53.0299C49.7193 53.6064 49.7625 54.1635 49.7574 54.7011C49.7262 58.4274 49.7278 61.7835 49.7621 64.7694C49.7822 66.584 48.5544 67.7128 46.8272 67.9482C46.2858 68.0215 45.5639 68.063 44.6616 68.0725C41.9964 68.0999 39.5407 68.1025 37.2943 68.0802C36.8438 68.0751 36.3726 68.003 35.8807 67.864C34.53 67.4823 33.6445 66.5257 33.329 65.1826C33.2673 64.9192 33.2524 64.4527 33.2842 63.7831C33.3013 63.4094 33.3239 62.9426 33.3519 62.3826C33.3639 62.1429 33.3649 61.9324 33.3547 61.7513C33.3369 61.428 33.3385 61.2165 33.3595 61.1171ZM34.0305 51.3454C33.9905 51.6438 33.9028 52.0475 33.8885 52.3823C33.7716 55.1641 33.6003 59.113 33.3747 64.2289C33.3188 65.4922 33.7881 66.4967 34.7826 67.2422C35.3402 67.6602 36.3058 67.9319 36.9311 67.9577C39.6049 68.0677 42.3663 68.0075 45.5442 67.9415C46.3754 67.9242 47.239 67.8611 48.0502 67.4813C49.2312 66.9284 49.7021 65.813 49.6849 64.5541C49.6748 63.785 49.6716 60.7924 49.6754 55.5764C49.676 54.5656 49.6344 53.7777 49.5505 53.2126C49.1006 50.1735 47.9558 46.9 45.1906 45.2269C43.3023 44.0847 40.9193 43.9441 38.8652 44.7754C37.1443 45.4718 35.8604 46.6535 35.0133 48.3206C34.4916 49.3473 34.164 50.3556 34.0305 51.3454Z" fill="#787B83"/>
<path d="M58.7791 44.1774C59.0374 44.2099 59.3377 44.2281 59.595 44.2721C62.2583 44.7294 64.2018 46.5536 65.2609 48.993C65.7594 50.1409 66.1025 51.3979 66.1635 52.6414C66.1874 53.1417 66.2398 53.5387 66.2369 53.9759C66.2303 54.9277 66.3265 55.9102 66.3427 56.8495C66.3542 57.5373 66.4342 58.1228 66.4333 58.7675C66.4327 59.3759 66.4517 59.8753 66.4905 60.2656C66.541 60.7783 66.5191 61.4039 66.5448 61.8296C66.5817 62.4234 66.6128 63.1714 66.6382 64.0738C66.6522 64.5751 66.6138 64.9832 66.5229 65.2983C66.2909 66.1037 65.8347 66.7717 65.1541 67.3023C64.6508 67.6945 63.9635 67.8773 63.3363 67.9404C62.6596 68.0083 62.1744 68.0743 61.5605 68.0782C59.2258 68.0922 56.8641 68.0909 54.4754 68.0743C53.2906 68.0657 52.1267 67.8773 51.1583 67.199C50.9943 67.0842 50.8431 66.9063 50.7045 66.6652C50.2565 65.8894 50.1326 64.9481 50.1717 64.0193C50.1857 63.6908 50.1924 63.4096 50.1917 63.1756C50.1885 61.7738 50.1879 59.6269 50.1898 56.7347C50.1908 56.2134 50.1688 55.5734 50.1498 54.9823C50.1428 54.7769 50.153 54.5435 50.1803 54.282C50.3754 52.4237 50.851 50.624 51.6072 48.8829C52.1728 47.5801 53.0186 46.5067 54.1446 45.663C55.3425 44.7651 56.6827 44.2626 58.1652 44.1554C58.3495 44.142 58.5541 44.1494 58.7791 44.1774ZM50.7436 66.5591C51.2393 67.5874 52.9979 67.9442 53.9988 67.9557C57.3426 67.9952 59.8778 68.0026 61.6044 67.9777C62.1979 67.9688 62.7803 67.9241 63.3516 67.8438C63.9769 67.7558 64.5812 67.619 65.0826 67.2344C65.7931 66.6892 66.2509 66.0001 66.4562 65.1672C66.5356 64.8458 66.5575 64.291 66.5219 63.5027C66.3682 60.0417 66.2201 56.4946 66.0777 52.8615C65.8985 48.2918 62.6348 43.7202 57.5542 44.3324C55.7594 44.5476 54.1313 45.5568 52.9265 46.9219C52.4937 47.4123 52.107 48.0319 51.7664 48.7806C51.0448 50.3686 50.6111 51.9795 50.3642 53.6497C50.288 54.1631 50.2508 54.8499 50.2527 55.7102C50.2642 60.7758 50.2731 63.7789 50.2794 64.7195C50.2832 65.3126 50.438 65.9258 50.7436 66.5591Z" fill="#787B83"/>
</g>
<circle opacity="0.7" cx="41.5" cy="60.5" r="15" stroke="#CF1039" stroke-width="3"/>
</g>
<defs>
<filter id="filter0_ng_1326_380" x="29.5" y="52.6704" width="23.6476" height="18.8298" filterUnits="userSpaceOnUse" color-interpolation-filters="sRGB">
<feFlood flood-opacity="0" result="BackgroundImageFix"/>
<feBlend mode="normal" in="SourceGraphic" in2="BackgroundImageFix" result="shape"/>
<feTurbulence type="fractalNoise" baseFrequency="2 2" stitchTiles="stitch" numOctaves="3" result="noise" seed="5228" />
<feColorMatrix in="noise" type="luminanceToAlpha" result="alphaNoise" />
<feComponentTransfer in="alphaNoise" result="coloredNoise1">
<feFuncA type="discrete" tableValues="1 1 1 1 1 1 1 1 1 1 1 1 1 1 1 1 1 1 1 1 1 1 1 1 1 1 1 1 1 1 1 1 1 1 1 1 1 1 1 1 1 1 1 1 1 1 1 1 1 1 1 0 0 0 0 0 0 0 0 0 0 0 0 0 0 0 0 0 0 0 0 0 0 0 0 0 0 0 0 0 0 0 0 0 0 0 0 0 0 0 0 0 0 0 0 0 0 0 0 0 "/>
</feComponentTransfer>
<feComposite operator="in" in2="shape" in="coloredNoise1" result="noise1Clipped" />
<feFlood flood-color="rgba(0, 0, 0, 0.25)" result="color1Flood" />
<feComposite operator="in" in2="noise1Clipped" in="color1Flood" result="color1" />
<feMerge result="effect1_noise_1326_380">
<feMergeNode in="shape" />
<feMergeNode in="color1" />
</feMerge>
<feTurbulence type="fractalNoise" baseFrequency="1 1" numOctaves="3" seed="714" />
<feDisplacementMap in="effect1_noise_1326_380" scale="4" xChannelSelector="R" yChannelSelector="G" result="displacedImage" width="100%" height="100%" />
<feMerge result="effect2_texture_1326_380">
<feMergeNode in="displacedImage"/>
</feMerge>
</filter>
</defs>
</svg>
