<svg width="100" height="100" viewBox="0 0 100 100" fill="none" xmlns="http://www.w3.org/2000/svg">
<circle cx="50" cy="50" r="50" fill="white"/>
<mask id="mask0_1326_205" style="mask-type:alpha" maskUnits="userSpaceOnUse" x="10" y="24" width="80" height="52">
<rect x="10" y="24" width="80" height="52" fill="#D9D9D9"/>
</mask>
<g mask="url(#mask0_1326_205)">
<path d="M16.7998 39.6001L24.7998 36.1001L33.7998 34.1001L43.2998 35.6001L49.7998 38.6001L55.2998 36.1001L64.2998 34.6001L75.7998 35.6001L83.7998 40.6001L86.2998 43.6001V49.1001L83.7998 51.6001L84.2998 55.6001L50.0498 58.6001L16.7998 55.6001L16.2998 52.1001L13.7998 47.1001L14.2998 43.1001L16.7998 39.6001Z" fill="#FFDBDF"/>
<path d="M23.5688 60.9811C23.5634 60.997 23.5547 61.0115 23.5434 61.0237C23.532 61.0359 23.5182 61.0454 23.5029 61.0517C22.9023 61.3048 22.2701 61.4222 21.5932 61.5406C20.5619 61.7201 19.6405 61.6552 18.5481 61.4938C17.5618 61.3487 16.6021 60.6564 16.2632 59.6958C16.1266 59.312 16.0321 58.8221 16.0311 58.3915C16.0279 57.2018 16.0362 56.5015 16.0559 56.2908C16.0664 56.1839 16.1113 56.0559 16.1218 55.9404C16.216 54.9149 16.428 53.8878 16.7578 52.8591C16.9764 52.1773 17.2304 51.6607 17.5637 51.0601C18.0898 50.111 18.9721 49.4636 20.0902 49.6823C21.4385 49.9468 22.421 51.3896 23.0751 52.6232C23.4488 53.3279 23.7982 54.052 24.1235 54.7955C24.2028 54.9769 24.2295 55.0858 24.1865 55.2959C23.8103 57.1321 23.5411 59.0379 23.5907 60.8818C23.5913 60.9028 23.584 60.9359 23.5688 60.9811Z" fill="#FFFFFD"/>
<path d="M76.5466 61.0744C76.5277 61.0683 76.5113 61.0563 76.4996 61.0402C76.488 61.0241 76.4817 61.0046 76.4817 60.9846C76.4849 59.0781 76.2757 57.1983 75.8543 55.3452C75.8288 55.2336 75.8354 55.1171 75.8734 55.0091C75.9791 54.7087 76.1153 54.3847 76.2821 54.0371C77.0164 52.5065 78.5852 49.2122 80.7508 49.6705C81.4014 49.8087 81.918 50.1722 82.3006 50.761C82.8786 51.6515 83.2914 52.6233 83.539 53.6761C83.8356 54.9366 84.0136 56.2377 84.0728 57.5796C84.0919 58.0198 84.0384 58.3788 84.0059 58.9183C83.9696 59.5078 83.7567 60.0272 83.3671 60.4766C82.8751 61.0438 82.2124 61.3917 81.3791 61.5203C80.6573 61.6311 79.9316 61.6708 79.2021 61.6396C79.1422 61.6371 78.8036 61.5894 78.1861 61.4964C77.6094 61.4086 77.0737 61.2491 76.5466 61.0744Z" fill="#FFFFFD"/>
<path d="M34.0654 34.1353C34.5625 34.0914 35.1022 34.0886 35.6846 34.1274C36.1211 34.1574 36.5733 34.1823 37.041 34.2026C37.1351 34.1588 37.249 34.1616 37.3818 34.2104C37.356 34.2478 37.3891 34.2712 37.4805 34.2808C39.3053 34.4622 40.8064 34.6648 41.9834 34.8882C42.3042 34.9493 43.2014 35.16 44.6738 35.519C44.9983 35.598 45.296 35.6864 45.5664 35.7856C45.9539 35.9288 46.3252 36.0179 46.7471 36.1763C47.8527 36.5913 48.8865 37.0484 49.8477 37.5474C49.8937 37.5713 49.9452 37.5843 49.9971 37.5845C50.0488 37.5846 50.0995 37.5719 50.1455 37.5483C51.7134 36.745 53.3138 36.1025 54.9453 35.6206C55.2313 35.5366 55.8464 35.3772 56.79 35.1431C57.4652 34.9757 58.0873 34.8488 58.6562 34.7622C60.0357 34.5528 61.291 34.4027 62.4209 34.311C62.7333 34.2862 63.0299 34.2661 63.3105 34.2515C63.3991 34.247 63.6647 34.2364 64.1074 34.2192C65.0517 34.182 65.9467 34.2417 66.7812 34.2397C67.3707 34.2385 67.9317 34.2681 68.4639 34.3286C70.3153 34.5396 71.5909 34.6687 73.0537 34.938C73.2377 34.9724 73.8866 35.117 75 35.3716C76.4789 35.7096 77.8308 36.2385 79.2744 36.9077C80.5049 37.4774 81.5307 38.0603 82.3506 38.6567C83.1079 39.2079 83.7568 39.7807 84.2979 40.3745C84.7733 40.8977 85.2131 41.3619 85.5635 41.8354C86.2815 42.8055 86.7791 44.007 87.0703 45.189C87.1881 45.6677 87.2253 46.2092 87.1826 46.812C87.1177 47.7234 86.8714 48.5995 86.4443 49.4409C86.1226 50.073 85.6017 50.7231 85.1367 51.1958C85.0799 51.2532 84.8554 51.4453 84.4648 51.7729C84.4061 51.8223 84.363 51.8879 84.3408 51.9614C84.3186 52.035 84.3182 52.1141 84.3398 52.188C84.4754 52.6501 84.6272 53.2509 84.7939 53.9897C84.9556 54.7063 85.0501 55.3314 85.0781 55.8647C85.0925 56.1406 85.1586 56.3583 85.1748 56.6274C85.22 57.3417 85.2091 58.0892 85.1416 58.8696C85.0366 60.0937 84.6054 61.1679 83.6143 61.9175C83.4107 62.0708 83.1343 62.2071 82.7852 62.3267C82.0315 62.5832 81.3304 62.7131 80.6836 62.7163C80.0187 62.7195 79.4975 62.7226 79.1201 62.7251C78.8817 62.727 78.7003 62.716 78.5762 62.6919C78.3728 62.6518 78.1094 62.6732 77.8535 62.6235C77.3246 62.5204 76.8572 62.4113 76.4512 62.2974C76.3824 62.2779 76.3086 62.2833 76.2432 62.312C76.1779 62.3407 76.1241 62.391 76.0918 62.4546L75.9131 62.813C75.9112 62.8161 75.9088 62.8196 75.9062 62.8228C75.5486 63.2605 75.329 63.514 75.248 63.5835C74.6837 64.0657 74.0029 64.2644 73.1885 64.4487C72.9084 64.5117 72.5829 64.5632 72.2119 64.6021C71.6403 64.6625 71.0735 64.7055 70.5127 64.731C70.3605 64.7379 70.1159 64.7141 69.7793 64.6606C69.7432 64.6543 69.7066 64.6512 69.6699 64.6519C68.8494 64.6576 68.0582 64.5594 67.2969 64.3569C66.642 64.1825 65.9617 63.9809 65.2559 63.7524C65.219 63.7408 65.179 63.7397 65.1416 63.7495C65.1044 63.7593 65.0711 63.78 65.0449 63.8081L64.7324 64.1421C64.7273 64.1478 64.7215 64.1533 64.7158 64.1577C64.0519 64.6618 63.437 65.0162 62.8711 65.2212C62.4802 65.3631 61.8766 65.4978 61.0605 65.6245C60.6826 65.683 60.3935 65.7104 60.1943 65.7065C59.763 65.699 59.4955 65.7835 59.0469 65.7759C58.262 65.7632 57.193 65.7638 55.8398 65.7778C55.4846 65.781 54.8091 65.6944 53.8135 65.5181C53.1585 65.4016 52.4596 65.1171 51.7168 64.6646C50.9892 64.2215 50.5327 63.5522 50.5107 62.7358C50.505 62.5049 50.491 62.3089 50.4688 62.1479C50.4038 61.6667 50.3895 61.3472 50.4258 61.1899C50.4824 60.9475 50.5083 60.7626 50.5039 60.6353C50.4772 59.8345 50.5208 59.0736 50.6348 58.353C50.82 57.1776 50.9256 56.425 51.2178 55.4263C51.8155 53.3896 53.0623 51.4693 54.9023 50.3989C55.3071 50.1635 55.8559 49.9608 56.5488 49.7915C58.3774 49.3437 60.3012 49.8789 61.6934 51.105C62.6021 51.9063 63.3197 52.8732 63.8467 54.0054C63.9237 54.1715 64.0557 54.5271 64.2422 55.0718C64.365 55.4302 64.5014 55.7865 64.6504 56.1392C64.747 56.1353 64.7942 56.1118 64.793 56.0698H64.7939C65.0536 55.2309 65.3763 54.414 65.7627 53.6196C66.2108 52.6993 66.7549 51.8741 67.3945 51.144C68.0476 50.3983 69.0924 49.6641 70.1045 49.5571C70.6067 49.5043 71.0481 49.5381 71.4287 49.6577C71.7561 49.7608 72.0264 49.8188 72.3203 49.981C73.233 50.487 73.9387 51.1553 74.4365 51.9858C74.6427 52.3295 74.8793 52.7988 75.1465 53.3931C75.2209 53.4274 75.2642 53.4214 75.2764 53.3745H75.2773C75.6364 52.5094 76.0688 51.6825 76.5762 50.895C77.1192 50.0516 77.8002 49.3575 78.6182 48.812C79.2648 48.3805 80.0018 48.2039 80.8291 48.2827C81.6426 48.3601 82.4462 48.8971 82.9561 49.5044C83.1847 49.777 83.4001 50.0779 83.6016 50.4077L83.7979 50.7476L83.8223 50.769C83.8474 50.7862 83.8743 50.7902 83.9033 50.7817C84.4457 50.1305 84.9519 49.6291 85.4111 48.7983C85.8599 47.9855 86.0645 47.1284 86.0244 46.2271C85.9737 45.1004 85.4311 43.906 84.8496 42.8872C84.4057 42.1064 83.7493 41.456 83.041 40.7554C82.6185 40.3373 82.2165 39.9947 81.8359 39.728C80.5341 38.8165 79.3778 38.1477 78.3682 37.7231C76.6503 37.0007 74.9543 36.4768 73.2803 36.1509C72.2955 35.9593 71.077 35.7707 69.625 35.5854C69.0397 35.511 68.4552 35.5082 67.9883 35.4604C67.5212 35.4134 67.1944 35.3926 67.0078 35.3989C66.5724 35.4142 66.1756 35.3345 65.6973 35.3374C64.8628 35.3422 64.0663 35.3174 63.207 35.3823C62.5102 35.4345 61.9861 35.4768 61.6348 35.5093C59.3081 35.7251 57.0539 36.1681 54.873 36.8384C53.2092 37.3495 51.6368 38.0276 50.1562 38.8735C50.1192 38.8949 50.0769 38.907 50.0342 38.9077C49.9916 38.9083 49.9497 38.8975 49.9121 38.8774C48.301 38.0187 46.5781 37.2998 44.7441 36.7192C44.2713 36.5697 43.7062 36.422 43.0488 36.2769C42.2162 36.0929 41.6443 35.9735 41.335 35.9194C39.7317 35.6388 38.3811 35.4723 37.2832 35.4194C36.8987 35.401 36.6167 35.386 36.4385 35.3745C36.0192 35.3491 35.7386 35.3364 35.5967 35.3364C34.7102 35.3364 34.1132 35.3323 33.8057 35.3247C33.7701 35.3234 33.7341 35.3262 33.6992 35.3325C33.5147 35.3675 33.3406 35.388 33.1777 35.395C32.5069 35.4243 31.8775 35.4659 31.29 35.5181C30.6668 35.5728 29.6937 35.7018 28.3711 35.9067C26.1445 36.2505 23.9286 36.8776 21.9092 37.6958C21.3548 37.9205 20.6544 38.2562 19.8086 38.7036C19.0415 39.1091 18.3895 39.5292 17.8535 39.9634C16.1109 41.3775 14.7215 43.0041 14.1543 45.0981C13.9717 45.7747 13.9583 46.5184 14.1143 47.3286C14.289 48.2385 14.7369 49.0733 15.3193 49.7817C15.6191 50.1464 15.8982 50.4856 16.1553 50.7993C16.1631 50.8086 16.1733 50.8163 16.1846 50.8208C16.1958 50.8252 16.2079 50.8261 16.2197 50.8247C16.2319 50.8232 16.2441 50.8192 16.2539 50.812C16.2637 50.8048 16.2714 50.7947 16.2764 50.7837C16.7443 49.7574 17.9202 48.3217 19.166 48.3003C19.287 48.2984 19.4155 48.2817 19.5498 48.2505C19.5799 48.2436 19.6105 48.2408 19.6406 48.2427C20.4045 48.2828 21.1118 48.5505 21.7617 49.0444C22.3658 49.5034 22.8879 50.0313 23.3271 50.6284C23.9458 51.4699 24.4415 52.3824 24.8145 53.3657C24.8933 53.3365 24.9507 53.2685 24.9863 53.1616C25.3434 52.3086 25.8086 51.5707 26.3809 50.9487C26.5318 50.7845 26.8048 50.5644 27.1992 50.2876C27.807 49.8612 28.4956 49.6146 29.2656 49.5483C30.4019 49.4509 31.5097 50.0078 32.3223 50.8003C33.1899 51.6482 33.8805 52.6512 34.3936 53.8091C34.5508 54.1643 34.792 54.7594 35.1172 55.5942C35.1701 55.7297 35.1985 55.8449 35.2021 55.9399L35.1973 56.0288C35.3458 56.0483 35.4154 56.0396 35.4053 56.0024L35.4043 56.0015C35.6965 54.7366 36.2053 53.5669 36.9297 52.4937C37.5885 51.5186 38.4303 50.7626 39.4551 50.2261C40.2236 49.8232 41.2071 49.554 42.1074 49.5425C43.4379 49.5266 44.6403 49.903 45.7129 50.6714C46.6299 51.3288 47.3635 52.1389 47.9141 53.1011C48.5245 54.1686 48.9331 55.2339 49.1387 56.2964C49.3685 57.481 49.5035 58.4107 49.5449 59.0854C49.5665 59.4441 49.5829 59.6828 49.5938 59.8013C49.6778 60.7427 49.6606 61.7961 49.6357 62.4712C49.5928 63.6732 48.9495 64.5039 47.8613 65.0405C46.9992 65.4664 45.9704 65.6216 45.0576 65.7515C44.6249 65.8132 44.213 65.848 43.8223 65.8569C42.6943 65.8811 41.5386 65.8815 40.3564 65.8579C39.647 65.8426 38.9057 65.7308 38.1982 65.6382C36.8783 65.4656 35.7821 64.8898 34.9102 63.9097C34.8866 63.8833 34.8556 63.8643 34.8213 63.856C34.7868 63.8476 34.7499 63.8501 34.7168 63.8628C33.6112 64.2784 32.4592 64.5482 31.2607 64.6724C29.9774 64.8048 28.7313 64.7945 27.5225 64.6411C27.2265 64.6042 26.809 64.5132 26.2705 64.3687C25.2031 64.0822 24.4673 63.3612 23.9727 62.395C23.9512 62.3532 23.9148 62.3207 23.8711 62.3032C23.8272 62.2858 23.7779 62.2844 23.7334 62.3003C22.8961 62.5962 21.9376 62.79 20.9619 62.812C20.1624 62.8305 19.54 62.8267 19.0957 62.8013C17.823 62.7277 16.253 62.2969 15.5664 61.0806C15.3309 60.6636 15.1624 60.279 15.0605 59.9282C14.8824 59.3102 14.7923 58.6064 14.791 57.8179C14.7891 56.7161 14.8771 55.6153 15.0547 54.5161C15.1934 53.6577 15.3941 52.8393 15.6562 52.061C15.6718 52.0143 15.6715 51.963 15.6553 51.9165C15.639 51.8702 15.6076 51.831 15.5664 51.8042C14.5294 51.1377 13.7434 49.9311 13.2803 48.812C13.0292 48.2067 12.893 47.4668 12.8271 46.8032C12.6772 45.2783 13.1603 43.8706 13.8984 42.5405C14.3787 41.6754 15.148 40.8453 15.8135 40.1196C16.068 39.841 16.4207 39.5254 16.8711 39.1724C17.8317 38.4199 18.8026 37.7918 19.7842 37.2896C21.5239 36.3984 23.2461 35.7419 24.9502 35.3198C26.6339 34.9029 28.2116 34.6113 29.6826 34.4438C30.1671 34.3891 31.054 34.3052 32.3428 34.1938C32.8889 34.1471 33.4258 34.1916 34.0654 34.1353ZM37.6377 65.4468H37.6387H37.6377ZM53.5918 64.436C53.9163 64.5433 54.2428 64.6166 54.5713 64.6558C55.21 64.7321 55.7164 64.812 56.2549 64.811H56.2559C56.1215 64.8113 55.9883 64.8058 55.8555 64.7974C55.4559 64.7719 55.0514 64.7131 54.5723 64.6558C54.4903 64.646 54.4078 64.6346 54.3262 64.6206C54.0802 64.5784 53.8355 64.5166 53.5918 64.436ZM43.2031 50.8833C42.3158 50.6904 41.4761 50.7392 40.6836 51.0288C38.9868 51.6485 37.5723 53.4062 36.9307 55.0601C36.6939 55.6711 36.5114 56.2725 36.3828 56.8638C36.1327 58.0183 35.9618 59.1967 35.8701 60.3989C35.8052 61.2487 35.7783 61.8482 35.791 62.1958C35.805 62.5737 35.8501 62.8465 35.9258 63.0132C36.3183 63.8732 37.5882 64.3494 38.4551 64.4937C39.3285 64.6394 39.9655 64.7141 40.3652 64.7173C41.2691 64.7256 42.1685 64.7313 43.0635 64.7339C43.877 64.7358 44.3929 64.6331 45.2656 64.5396C45.6087 64.5026 46.1108 64.3703 46.7715 64.1431C47.2959 63.9623 47.7224 63.6887 48.0508 63.3228C48.234 63.1185 48.3415 62.9318 48.3721 62.7632C48.4656 62.2547 48.498 61.6776 48.4707 61.0317C48.402 59.4193 48.2069 57.8806 47.8848 56.4165C47.5722 54.9977 46.9429 53.7435 45.9971 52.6538C45.2781 51.8269 44.2935 51.1201 43.2031 50.8833ZM58.1191 50.7573C57.6732 50.7522 57.3503 50.7628 57.1504 50.7896C56.1783 50.9175 55.1919 51.532 54.4844 52.1899C54.1101 52.5375 53.6987 53.0465 53.25 53.7173C53.1151 53.9184 52.8548 54.4442 52.4697 55.2944C52.4515 55.3349 52.438 55.3774 52.4297 55.4204C52.3667 55.7478 52.2102 56.0383 52.1348 56.3647C51.9562 57.1296 51.835 57.9607 51.709 58.8325C51.645 59.2698 51.632 59.7531 51.5986 60.0396C51.5242 60.6772 51.538 61.5067 51.5361 61.9517C51.5291 62.8529 51.9147 63.5167 52.6924 63.9419C53.3251 64.2876 53.9662 64.4987 54.6143 64.5757C55.2453 64.6511 55.7446 64.7299 56.2764 64.728C56.7525 64.728 57.453 64.7297 58.3779 64.7329C59.4397 64.7377 60.3488 64.6395 61.3887 64.481C62.0711 64.3772 62.7078 64.1459 63.2979 63.7856C63.9851 63.365 64.2989 62.7781 64.2393 62.0259C64.2039 61.5876 64.2057 61.3628 64.1885 60.7241C64.1684 60.0214 64.0353 59.1239 63.9541 58.4937C63.8402 57.6197 63.6194 56.6762 63.291 55.6636C62.813 54.1868 61.9937 52.9413 60.834 51.9272C60.157 51.3371 59.0893 50.7678 58.1191 50.7573ZM32.1279 64.4751V64.4761V64.4751ZM46.8281 64.2183H46.8291H46.8281ZM51.6729 63.0562C51.8219 63.3636 52.0474 63.6244 52.3486 63.8394C52.0475 63.6243 51.8219 63.3636 51.6729 63.0562ZM26.6055 63.1958C26.8975 63.2998 27.194 63.3703 27.4619 63.4106H27.4629C27.1951 63.3704 26.8984 63.2997 26.6064 63.1958H26.6055ZM68.1006 63.4614H68.0996C68.2274 63.4808 68.3735 63.4989 68.5371 63.5151H68.5381C68.3744 63.4989 68.2285 63.4808 68.1006 63.4614ZM70.4092 50.8374C69.6995 50.9749 69.0842 51.2997 68.5635 51.812C68.1834 52.1863 67.896 52.5116 67.7012 52.7866C67.3047 53.3442 66.9485 53.9596 66.6328 54.6323C66.058 55.857 65.6089 57.1428 65.2861 58.4897C65.2664 58.5719 65.2749 58.7552 65.3105 59.0396L65.3672 59.7661L65.4932 62.522C65.494 62.5417 65.501 62.5609 65.5117 62.5776C65.5224 62.5943 65.537 62.6084 65.5547 62.6177C66.2382 62.9652 67.0726 63.1683 67.8135 63.3315C68.223 63.4213 68.5852 63.4022 68.9775 63.4595C69.5992 63.5511 70.3065 63.4998 70.9873 63.5142C71.1474 63.5173 71.562 63.4825 72.2305 63.4106C72.6707 63.3629 73.0336 63.2902 73.3193 63.1929C74.2255 62.8835 74.7658 62.5684 75.1582 61.7329C75.2657 61.5044 75.3183 61.1486 75.3145 60.6655C75.2953 58.4988 74.9525 56.4438 74.2861 54.5005C74.0418 53.7903 73.7302 53.1471 73.3516 52.5718C72.8216 51.7669 72.0001 50.9498 71.0176 50.8667C70.6649 50.8368 70.462 50.8272 70.4092 50.8374ZM30.9912 51.3647C30.1052 50.747 29.091 50.5958 28.1582 51.1245C27.5484 51.4702 27.0201 52.0083 26.5732 52.7378C26.2912 53.198 26.0849 53.6018 25.9551 53.9487C25.4122 55.3955 25.0666 56.8847 24.9189 58.4155C24.8324 59.3094 24.7877 59.8869 24.7852 60.1479C24.7807 60.6655 24.8909 61.2322 25.1162 61.8472C25.2639 62.2486 25.5349 62.5582 25.9287 62.7759C26.4768 63.0782 27.0402 63.2712 27.6182 63.354C28.8296 63.5265 30.0709 63.5555 31.3408 63.4409C32.4903 63.3368 33.4244 63.0654 34.4746 62.7026C34.4963 62.6951 34.5149 62.6803 34.5283 62.6616C34.5418 62.6428 34.5495 62.6204 34.5498 62.5972C34.5562 61.3229 34.6169 60.028 34.7314 58.7124C34.7447 58.5546 34.7308 58.3951 34.6904 58.2417C34.2579 56.6165 33.6747 54.9813 32.8545 53.5366C32.3714 52.6841 31.7921 51.9233 30.9912 51.3647ZM66.9482 63.2173H66.9473H66.9482ZM24.4971 63.1011V63.1001V63.1011ZM34.541 62.7319C34.5289 62.7419 34.5146 62.7485 34.501 62.7563C34.5389 62.7344 34.5733 62.7062 34.5977 62.6694L34.541 62.7319ZM65.4434 62.5796H65.4424C65.4498 62.6086 65.4664 62.6343 65.4893 62.6528H65.4902C65.4674 62.6343 65.4508 62.6085 65.4434 62.5796ZM51.4541 61.9956C51.4537 62.0528 51.4553 62.1092 51.458 62.1646C51.4553 62.1093 51.4537 62.0528 51.4541 61.9956C51.4555 61.7704 51.4528 61.448 51.459 61.1011V61.1001C51.4528 61.4474 51.4555 61.7702 51.4541 61.9956ZM79.4795 61.7456H79.4805H79.4795ZM80.751 49.6704C78.5854 49.2123 77.0165 52.507 76.2822 54.0376C76.1155 54.385 75.9797 54.7089 75.874 55.0093C75.836 55.1171 75.829 55.2336 75.8545 55.3452C76.2759 57.1983 76.4856 59.0783 76.4824 60.9849C76.4824 61.0048 76.4884 61.0244 76.5 61.0405C76.5117 61.0566 76.5281 61.0687 76.5469 61.0747C77.0739 61.2494 77.6098 61.4087 78.1865 61.4966C78.8033 61.5894 79.1419 61.6375 79.2021 61.6401C79.9317 61.6713 80.658 61.6308 81.3799 61.52C82.2128 61.3914 82.8753 61.0439 83.3672 60.4771C83.7568 60.0276 83.9696 59.5079 84.0059 58.9185C84.0383 58.379 84.0923 58.0198 84.0732 57.5796C84.014 56.2377 83.8357 54.9366 83.5391 53.6763C83.2914 52.6234 82.8788 51.6518 82.3008 50.7612C81.9182 50.1724 81.4016 49.8085 80.751 49.6704ZM20.0898 49.6821C18.9719 49.4637 18.0895 50.111 17.5635 51.0601C17.2303 51.6606 16.9765 52.1772 16.7578 52.8589C16.4281 53.8875 16.2163 54.9145 16.1221 55.9399C16.1116 56.0555 16.0662 56.1836 16.0557 56.2905C16.0359 56.5012 16.0281 57.2015 16.0312 58.3911C16.0322 58.8218 16.1262 59.3119 16.2627 59.6958C16.6016 60.6563 17.5616 61.3484 18.5479 61.4937C19.6401 61.655 20.5617 61.72 21.5928 61.5405C22.2698 61.4221 22.9023 61.3043 23.5029 61.0513C23.518 61.045 23.5317 61.0359 23.543 61.0239C23.5543 61.0118 23.563 60.9968 23.5684 60.981C23.5836 60.9358 23.5915 60.9024 23.5908 60.8813C23.5412 59.0376 23.8103 57.1315 24.1865 55.2954C24.2294 55.0856 24.2032 54.9766 24.124 54.7954C23.7987 54.0519 23.4489 53.3272 23.0752 52.6226C22.4211 51.389 21.438 49.9466 20.0898 49.6821ZM18.4844 61.563H18.4854H18.4844ZM24.8164 61.144H24.8174H24.8164ZM16.8438 60.7173H16.8447H16.8438ZM76.4424 61.0845H76.4434H76.4424ZM65.3516 60.189C65.3454 60.4704 65.3482 60.7516 65.3604 61.0327L65.3496 60.6108C65.3481 60.4703 65.3485 60.3296 65.3516 60.189ZM24.7227 59.6587C24.7047 59.8625 24.6996 60.064 24.7061 60.2632C24.6996 60.064 24.7057 59.8625 24.7236 59.6587H24.7227ZM51.5625 59.5044C51.5468 59.7183 51.5347 59.9131 51.5176 60.0581H51.5186C51.5357 59.9131 51.5477 59.7183 51.5635 59.5044H51.5625ZM16.3047 54.2417C16.2551 54.4751 16.2096 54.713 16.1699 54.9556C16.0439 55.7277 15.975 56.2375 15.9629 56.4839C15.9203 57.3367 15.9257 58.1043 15.9785 58.7866C15.9991 59.055 16.0473 59.3063 16.1211 59.5415C16.0473 59.3064 15.9991 59.0549 15.9785 58.7866C15.9653 58.6162 15.9555 58.4404 15.9482 58.2593C15.9265 57.7155 15.9309 57.1237 15.9629 56.4839C15.975 56.2375 16.0449 55.7277 16.1709 54.9556C16.2105 54.713 16.2551 54.4751 16.3047 54.2417ZM65.2295 58.3608H65.2305H65.2295ZM14.8691 58.0562H14.8701H14.8691ZM75.9805 56.3872C76.0055 56.5277 76.0315 56.6698 76.0547 56.814C76.0315 56.6698 76.0055 56.5277 75.9805 56.3872ZM52.3779 55.3149C52.3713 55.3361 52.3664 55.3577 52.3623 55.3794C52.3463 55.4623 52.3248 55.5432 52.2998 55.6226C52.3248 55.5432 52.3463 55.4623 52.3623 55.3794C52.3664 55.3577 52.3713 55.3361 52.3779 55.3149ZM66.3574 55.0396H66.3584H66.3574ZM36.0469 54.2808C36.0009 54.3875 35.9566 54.4949 35.9141 54.603C35.9993 54.3867 36.0916 54.1732 36.1904 53.9624L36.0469 54.2808ZM76.1855 54.0581H76.1865H76.1855ZM67.3086 53.2329C67.1902 53.4195 67.0765 53.6121 66.9668 53.8091C67.0765 53.6121 67.1902 53.4195 67.3086 53.2329ZM46.8535 53.6665C46.8061 53.5909 46.7569 53.5162 46.707 53.4419C46.8067 53.5904 46.9016 53.7413 46.9912 53.895L46.8535 53.6665ZM55.3555 51.3999C55.0229 51.6134 54.7141 51.8565 54.4453 52.106C54.0659 52.458 53.6485 52.974 53.1934 53.6538H53.1943C53.6494 52.9742 54.067 52.4589 54.4463 52.1069C54.7153 51.8573 55.0236 51.6135 55.3564 51.3999H55.3555ZM33.9756 53.1284V53.1294V53.1284ZM74.9971 53.2759C75.026 53.324 75.0569 53.3559 75.0879 53.3745C75.0403 53.3457 74.994 53.2828 74.9512 53.1841L74.9971 53.2759ZM25.0303 53.228C25.025 53.2313 25.0189 53.2327 25.0127 53.2329C25.0065 53.2331 25.0006 53.2319 24.9951 53.229C24.9897 53.2261 24.9847 53.2216 24.9814 53.2163V53.2173C24.9847 53.2224 24.9897 53.2261 24.9951 53.229C25.0006 53.2319 25.0065 53.2341 25.0127 53.2339C25.0189 53.2337 25.025 53.2313 25.0303 53.228C25.0355 53.2248 25.0401 53.2198 25.043 53.2144C25.04 53.2198 25.0355 53.2248 25.0303 53.228ZM16.6602 52.896H16.6611H16.6602ZM67.6777 52.6909H67.6787H67.6777ZM32.9727 51.6411C33.1006 51.8007 33.223 51.9621 33.3398 52.1255C33.223 51.9621 33.1006 51.8007 32.9727 51.6411ZM68.5264 51.73H68.5273H68.5264ZM27.2861 51.6929H27.2871H27.2861ZM26.4023 51.0679C26.2844 51.192 26.1746 51.3214 26.0742 51.4546V51.4556C26.1747 51.3222 26.2842 51.1922 26.4023 51.0679ZM72.375 51.3726C72.4312 51.4202 72.486 51.4693 72.54 51.519C72.4859 51.4692 72.4313 51.4193 72.375 51.3716C72.3372 51.3394 72.2986 51.3091 72.2598 51.2798C72.2987 51.3092 72.337 51.3403 72.375 51.3726ZM78.2705 50.645C78.2224 50.6977 78.1751 50.7511 78.1299 50.8052C78.0237 50.9321 77.9328 51.0449 77.8564 51.1431C77.9328 51.0449 78.0237 50.9321 78.1299 50.8052C78.1751 50.7511 78.2224 50.6977 78.2705 50.645ZM44.0264 51.0522C44.1564 51.1092 44.2841 51.1723 44.4092 51.2407C44.2841 51.1723 44.1564 51.1092 44.0264 51.0522ZM32.1191 50.7163C32.2262 50.811 32.3291 50.9099 32.4277 51.0122C32.3291 50.9099 32.2262 50.811 32.1191 50.7163ZM70.1709 50.8071C69.8585 50.8904 69.5651 51.0102 69.291 51.1646C69.5651 51.0102 69.8586 50.8904 70.1709 50.8071ZM73.4023 50.8667H73.4033H73.4023ZM57.5439 50.6616C57.3804 50.667 57.2477 50.6756 57.1465 50.689C56.9008 50.7214 56.6541 50.7848 56.4111 50.8716C56.5936 50.8064 56.7782 50.7548 56.9629 50.7192C57.0242 50.7074 57.0862 50.6971 57.1475 50.689C57.2485 50.6756 57.3807 50.667 57.5439 50.6616ZM28.957 50.7476C28.8496 50.7672 28.7426 50.7947 28.6357 50.8296C28.7426 50.7946 28.8496 50.7672 28.957 50.7476ZM43.2207 50.7886H43.2217H43.2207ZM82.8887 49.5552C83.1993 49.9078 83.4661 50.3127 83.707 50.7397C83.4661 50.3127 83.1993 49.9078 82.8887 49.5552ZM77.0596 50.3794C77.0197 50.4295 76.9812 50.4807 76.9424 50.5317C77.0357 50.409 77.1316 50.2881 77.2314 50.1704L77.0596 50.3794ZM21.4102 50.2749C21.451 50.309 21.4899 50.3452 21.5293 50.3804C21.4081 50.2722 21.2817 50.1666 21.1484 50.0718L21.4102 50.2749ZM72.3418 50.0903H72.3428H72.3418ZM78.9082 50.0669V50.0679V50.0669ZM80.6855 49.5601C80.82 49.5826 80.9557 49.6189 81.0918 49.6733C81.2107 49.7211 81.3233 49.7778 81.4307 49.8403C81.3232 49.7778 81.2108 49.7211 81.0918 49.6733C80.9557 49.6189 80.82 49.5826 80.6855 49.5601ZM71.2246 49.6978H71.2256H71.2246ZM29.8486 49.644V49.6431V49.644ZM20.001 49.5728C20.0887 49.5841 20.1769 49.6037 20.2646 49.6284C20.1768 49.6037 20.0889 49.5841 20.001 49.5728ZM19.5195 49.5562C19.5948 49.5509 19.672 49.5494 19.752 49.5522C19.672 49.5494 19.5947 49.5509 19.5195 49.5562ZM78.9502 48.7417C78.8394 48.7996 78.7307 48.8617 78.624 48.9282C78.7307 48.8617 78.8394 48.7995 78.9502 48.7417ZM81.8086 48.6821H81.8096H81.8086ZM79.585 48.4644C79.4278 48.5199 79.2748 48.584 79.125 48.6548C79.2748 48.5841 79.4278 48.5199 79.585 48.4644ZM80.8945 48.3608V48.3599C80.8826 48.358 80.8703 48.3579 80.8584 48.3579H80.8574C80.8695 48.3579 80.8825 48.3589 80.8945 48.3608ZM13.4268 43.7368H13.4277H13.4268ZM39.2705 35.5356H39.2715H39.2705Z" fill="#667781"/>
<path d="M54.484 52.1894C55.1916 51.5315 56.178 50.9175 57.15 50.7895C57.3499 50.7628 57.673 50.752 58.1192 50.7571C59.0893 50.7676 60.1568 51.3367 60.8338 51.9268C61.9937 52.9408 62.8126 54.1863 63.2907 55.6631C63.6192 56.6759 63.8404 57.6193 63.9543 58.4933C64.0355 59.1235 64.1682 60.0211 64.1882 60.7239C64.2054 61.3627 64.2035 61.5871 64.2389 62.0253C64.2987 62.7778 63.9849 63.3644 63.2974 63.7851C62.7073 64.1454 62.071 64.3775 61.3886 64.4812C60.3488 64.6397 59.4397 64.7371 58.3779 64.7324C57.453 64.7292 56.7525 64.7276 56.2763 64.7276C55.7445 64.7295 55.2451 64.6512 54.6139 64.5758C53.9659 64.4987 53.3255 64.2874 52.6927 63.9417C51.9148 63.5165 51.5294 62.8532 51.5364 61.9518C51.5383 61.5069 51.524 60.6771 51.5985 60.0392C51.6319 59.7528 51.6453 59.2696 51.7092 58.8323C51.8353 57.9605 51.9565 57.1298 52.1351 56.365C52.2105 56.0384 52.3662 55.7481 52.4292 55.4206C52.4375 55.3775 52.451 55.3352 52.4693 55.2946C52.8544 54.4441 53.1145 53.9183 53.2494 53.7171C53.6982 53.0462 54.1097 52.5369 54.484 52.1894Z" fill="#FFFFFD"/>
<path d="M35.8702 60.3993C35.9619 59.1968 36.1328 58.0182 36.3829 56.8635C36.5115 56.2721 36.6942 55.6709 36.931 55.0598C37.5727 53.406 38.9868 51.6481 40.6836 51.0284C41.4761 50.7387 42.3161 50.6903 43.2035 50.8832C44.2939 51.12 45.2784 51.8266 45.9974 52.6535C46.9433 53.7433 47.5726 54.9977 47.8851 56.4166C48.2072 57.8807 48.4027 59.419 48.4714 61.0314C48.4988 61.6776 48.4657 62.2549 48.3721 62.7636C48.3416 62.9322 48.2346 63.1188 48.0513 63.3231C47.7228 63.6891 47.2963 63.9625 46.7718 64.1433C46.111 64.3706 45.6091 64.5027 45.266 64.5396C44.3932 64.6332 43.8776 64.7353 43.0641 64.7334C42.1691 64.7309 41.2696 64.7255 40.3656 64.7172C39.9659 64.714 39.3293 64.6395 38.4559 64.4937C37.5889 64.3496 36.319 63.8731 35.9265 63.0128C35.8508 62.846 35.8059 62.5735 35.7919 62.1954C35.7792 61.8478 35.8053 61.2491 35.8702 60.3993Z" fill="#FFFFFD"/>
<path d="M34.5492 62.5974C34.5489 62.6206 34.5416 62.6432 34.528 62.662C34.5145 62.6808 34.4956 62.6949 34.4738 62.7024C33.4234 63.0653 32.4896 63.3364 31.3399 63.4405C30.07 63.5551 28.8293 63.5261 27.6179 63.3536C27.0399 63.2709 26.4769 63.0783 25.9288 62.7759C25.5347 62.5582 25.2639 62.2485 25.1162 61.8469C24.8908 61.2319 24.7804 60.6657 24.7849 60.1482C24.7874 59.8872 24.832 59.3095 24.9185 58.4151C25.0662 56.8842 25.4116 55.3952 25.9546 53.9483C26.0844 53.6014 26.2903 53.1978 26.5723 52.7375C27.0192 52.008 27.5476 51.4705 28.1574 51.1248C29.0903 50.5958 30.1044 50.7467 30.9905 51.3645C31.7916 51.9231 32.3712 52.6841 32.8543 53.5368C33.6746 54.9815 34.257 56.6162 34.6896 58.2413C34.73 58.3949 34.7439 58.5541 34.7306 58.7121C34.6161 60.0279 34.5556 61.323 34.5492 62.5974Z" fill="#FFFFFD"/>
<path d="M65.3672 59.7662L65.3099 59.0396C65.2743 58.755 65.2663 58.5717 65.286 58.4896C65.6088 57.1426 66.0576 55.8567 66.6324 54.632C66.9481 53.9591 67.3043 53.3439 67.7009 52.7862C67.8956 52.5112 68.1831 52.1866 68.5631 51.8123C69.0838 51.2998 69.6991 50.9749 70.4088 50.8374C70.4617 50.8272 70.6644 50.8371 71.0171 50.867C71.9996 50.95 72.8208 51.7664 73.3507 52.5714C73.7295 53.1469 74.0411 53.7898 74.2855 54.5002C74.952 56.4437 75.2948 58.4988 75.3139 60.6657C75.3177 61.1489 75.2659 61.5047 75.1583 61.7332C74.7658 62.5687 74.2254 62.8838 73.3192 63.1932C73.0334 63.2906 72.6702 63.3632 72.2297 63.4109C71.5607 63.4828 71.1463 63.5172 70.9865 63.514C70.3057 63.4997 69.5991 63.5513 68.9775 63.4596C68.5851 63.4023 68.2232 63.4214 67.8135 63.3317C67.0726 63.1684 66.238 62.965 65.5543 62.6174C65.5366 62.6081 65.5216 62.5944 65.5109 62.5776C65.5002 62.5609 65.4941 62.5417 65.4932 62.5219L65.3672 59.7662Z" fill="#FFFFFD"/>
<path opacity="0.7" d="M66 48L72 56.8262H69.9131V67.1738H72L66 76L60 67.1738H62.0869V56.8262H60L66 48Z" fill="#CF1039"/>
</g>
</svg>
