<svg width="136" height="23" viewBox="0 0 136 23" fill="none" xmlns="http://www.w3.org/2000/svg">
  <path d="M11.5 0L14.1 7.9H22.5L15.7 12.8L18.3 20.7L11.5 15.8L4.7 20.7L7.3 12.8L0.5 7.9H8.9L11.5 0Z" fill="#B5A27C"/>
  <path d="M39.5 0L42.1 7.9H50.5L43.7 12.8L46.3 20.7L39.5 15.8L32.7 20.7L35.3 12.8L28.5 7.9H36.9L39.5 0Z" fill="#B5A27C"/>
  <path d="M67.5 0L70.1 7.9H78.5L71.7 12.8L74.3 20.7L67.5 15.8L60.7 20.7L63.3 12.8L56.5 7.9H64.9L67.5 0Z" fill="#B5A27C"/>
  <path d="M95.5 0L98.1 7.9H106.5L99.7 12.8L102.3 20.7L95.5 15.8L88.7 20.7L91.3 12.8L84.5 7.9H92.9L95.5 0Z" fill="#B5A27C"/>
  <path d="M123.5 0L126.1 7.9H134.5L127.7 12.8L130.3 20.7L123.5 15.8L116.7 20.7L119.3 12.8L112.5 7.9H120.9L123.5 0Z" fill="#B5A27C"/>
</svg>
