<svg preserveAspectRatio="none" width="100%" height="100%" overflow="visible" style="display: block;" viewBox="0 0 253.854 58.2174" fill="none" xmlns="http://www.w3.org/2000/svg">
<g id="Group">
<path id="Vector" d="M33.7622 33.0012C33.7622 33.0012 33.466 44.4671 49.7549 48.9943C45.0163 32.7051 33.7622 33.0012 33.7622 33.0012Z" fill="var(--fill-0, white)"/>
<path id="Vector_2" d="M24.4962 23.8197C24.4962 23.8197 24.7923 12.3961 8.5034 7.82663C13.242 24.1158 24.4962 23.8197 24.4962 23.8197Z" fill="var(--fill-0, white)"/>
<path id="Vector_3" d="M29.1502 35.6241C29.1502 35.6241 20.8577 43.4937 29.1502 58.2174C37.3582 43.4091 29.1502 35.6241 29.1502 35.6241Z" fill="var(--fill-0, white)"/>
<path id="Vector_4" d="M29.1089 22.5935C29.1089 22.5935 37.4014 14.7239 29.1089 0.000193849C20.9009 14.8509 29.1089 22.5935 29.1089 22.5935Z" fill="var(--fill-0, white)"/>
<path id="Vector_5" d="M35.6663 29.0658C35.6663 29.0658 43.5357 37.3585 58.2592 29.0658C43.4088 20.9001 35.6663 29.0658 35.6663 29.0658Z" fill="var(--fill-0, white)"/>
<path id="Vector_6" d="M22.593 29.1513C22.593 29.1513 14.7235 20.8587 0 29.1513C14.8504 37.3171 22.593 29.1513 22.593 29.1513Z" fill="var(--fill-0, white)"/>
<path id="Vector_7" d="M33.7199 23.7774C33.7199 23.7774 45.1433 24.0735 49.7127 7.78435C33.4237 12.4807 33.7199 23.7774 33.7199 23.7774Z" fill="var(--fill-0, white)"/>
<path id="Vector_8" d="M24.5389 33.0435C24.5389 33.0435 13.0732 32.7474 8.54615 49.0366C24.8351 44.2979 24.5389 33.0435 24.5389 33.0435Z" fill="var(--fill-0, white)"/>
<path id="Vector_9" d="M46.3703 41.2092C41.0817 32.7896 33.7623 32.9589 33.7623 32.9589C33.7623 32.9589 33.5507 40.4477 42.0971 45.694C43.7472 44.4671 45.1857 42.9439 46.3703 41.2092Z" fill="var(--fill-0, white)"/>
<path id="Vector_10" d="M24.4963 23.8197C24.4963 23.8197 24.6655 16.9655 17.2192 11.7615C15.3999 13.0307 13.7498 14.5962 12.396 16.3309C17.6423 23.9889 24.4963 23.8197 24.4963 23.8197Z" fill="var(--fill-0, white)"/>
<path id="Vector_11" d="M29.1507 35.6241C29.1507 35.6241 23.9467 40.5743 25.8929 49.9248C26.9506 50.094 28.0083 50.1786 29.1083 50.1786C30.2084 50.1786 31.2661 50.094 32.3238 49.9248C34.3123 40.532 29.1507 35.6241 29.1507 35.6241Z" fill="var(--fill-0, white)"/>
<path id="Vector_12" d="M29.1082 22.5925C29.1082 22.5925 34.3122 17.6423 32.366 8.29189C31.3083 8.12265 30.2505 8.03803 29.1505 8.03803C28.0505 8.03803 26.9927 8.12265 25.935 8.29189C23.9465 17.6846 29.1082 22.5925 29.1082 22.5925Z" fill="var(--fill-0, white)"/>
<path id="Vector_13" d="M35.6663 29.0663C35.6663 29.0663 40.6164 34.2704 49.9667 32.3241C50.1359 31.2664 50.2206 30.2087 50.2206 29.1086C50.2206 28.0086 50.1359 26.9508 49.9667 25.8931C40.5318 23.9468 35.6663 29.0663 35.6663 29.0663Z" fill="var(--fill-0, white)"/>
<path id="Vector_14" d="M22.5931 29.1518C22.5931 29.1518 17.6429 23.9477 8.29265 25.8939C8.12342 26.9517 8.0388 28.0094 8.0388 29.1095C8.0388 30.2095 8.12342 31.2673 8.29265 32.325C17.7275 34.2712 22.5931 29.1518 22.5931 29.1518Z" fill="var(--fill-0, white)"/>
<path id="Vector_15" d="M33.7199 23.7774C33.7199 23.7774 40.6585 23.9466 45.8625 16.3309C44.5086 14.5539 42.9009 12.9884 41.0393 11.7615C33.5506 16.9655 33.7199 23.7774 33.7199 23.7774Z" fill="var(--fill-0, white)"/>
<path id="Vector_16" d="M24.5385 33.0437C24.5385 33.0437 17.1344 32.8321 11.8881 41.2094C13.0728 42.9018 14.5536 44.4249 16.1613 45.7365C24.75 40.4055 24.5385 33.0437 24.5385 33.0437Z" fill="var(--fill-0, white)"/>
<path id="Vector_17" d="M41.5464 35.8778C37.4847 32.8738 33.8039 33.0007 33.8039 33.0007C33.8039 33.0007 33.7192 36.8509 36.8078 40.9972C38.754 39.7279 40.404 37.9509 41.5464 35.8778Z" fill="var(--fill-0, white)"/>
<path id="Vector_18" d="M24.4967 23.8199C24.4967 23.8199 24.5813 20.562 22.1697 16.8388C20.2235 17.9388 18.5734 19.5043 17.3465 21.3659C21.1543 23.9045 24.4967 23.8199 24.4967 23.8199Z" fill="var(--fill-0, white)"/>
<path id="Vector_19" d="M29.1505 35.6241C29.1505 35.6241 26.5697 38.0781 25.7235 42.8167C26.8235 43.0706 27.9236 43.2398 29.1082 43.2398C30.2929 43.2398 31.4352 43.0706 32.5352 42.8167C31.7314 38.0781 29.1505 35.6241 29.1505 35.6241Z" fill="var(--fill-0, white)"/>
<path id="Vector_20" d="M29.1082 22.5933C29.1082 22.5933 31.689 20.1393 32.5352 15.4006C31.4352 15.1468 30.2929 14.9775 29.1505 14.9775C27.9659 14.9775 26.8235 15.1468 25.7235 15.4006C26.5274 20.1393 29.1082 22.5933 29.1082 22.5933Z" fill="var(--fill-0, white)"/>
<path id="Vector_21" d="M42.8165 25.6818C38.0779 26.4857 35.6663 29.0666 35.6663 29.0666C35.6663 29.0666 38.1202 31.6475 42.8588 32.4937C43.1127 31.3936 43.2819 30.2936 43.2819 29.1089C43.2819 27.9242 43.1127 26.7819 42.8165 25.6818Z" fill="var(--fill-0, white)"/>
<path id="Vector_22" d="M22.5935 29.1512C22.5935 29.1512 20.1395 26.5703 15.4009 25.7241C15.1471 26.8241 14.9778 27.9242 14.9778 29.1089C14.9778 30.2935 15.1471 31.4359 15.4009 32.5359C20.1818 31.6897 22.5935 29.1512 22.5935 29.1512Z" fill="var(--fill-0, white)"/>
<path id="Vector_23" d="M36.0892 16.7965C33.6776 20.5197 33.7622 23.7353 33.7622 23.7353C33.7622 23.7353 37.1469 23.8199 40.9547 21.2813C39.6854 19.462 38.0354 17.8965 36.0892 16.7965Z" fill="var(--fill-0, white)"/>
<path id="Vector_24" d="M24.5394 33.0434C24.5394 33.0434 20.8162 32.9588 16.7545 35.9205C17.8969 37.9936 19.5469 39.7283 21.4931 40.9976C24.624 36.8513 24.5394 33.0434 24.5394 33.0434Z" fill="var(--fill-0, white)"/>
<g id="Group 24">
<g id="Group 25">
<path id="Vector_25" d="M152.566 28.0517C152.566 29.9557 153.201 31.5211 154.428 32.8327C155.697 34.102 157.22 34.7789 159.039 34.7789C160.69 34.7789 162.17 34.1443 163.44 32.8327C164.709 31.5211 165.343 30.0403 165.343 28.3056C165.343 26.4863 164.709 24.8785 163.44 23.5669C162.17 22.2553 160.69 21.5784 158.955 21.5784C157.178 21.5784 155.655 22.213 154.428 23.44C153.201 24.7093 152.566 26.2324 152.566 28.0517ZM165.597 38.8407V35.7098C164.667 36.6829 163.651 37.4021 162.509 37.8676C161.366 38.3753 160.182 38.5868 158.87 38.5868C155.866 38.5868 153.37 37.5714 151.382 35.5828C149.393 33.5943 148.42 31.0557 148.42 28.0517C148.42 26.6555 148.674 25.3016 149.181 24.0323C149.689 22.763 150.366 21.663 151.297 20.6899C152.312 19.6321 153.412 18.8705 154.597 18.3628C155.782 17.8551 157.136 17.6013 158.659 17.6013C160.013 17.6013 161.282 17.8551 162.424 18.3205C163.567 18.8282 164.624 19.5475 165.555 20.5206V18.109H169.532V38.7561H165.597" fill="var(--fill-0, white)"/>
<path id="Vector_26" d="M197.159 28.0517C197.159 29.9557 197.794 31.5211 199.021 32.8327C200.29 34.102 201.813 34.7789 203.632 34.7789C205.282 34.7789 206.763 34.1443 208.033 32.8327C209.302 31.5211 209.936 30.0403 209.936 28.3056C209.936 26.4863 209.302 24.8785 208.033 23.5669C206.763 22.2553 205.282 21.5784 203.548 21.5784C201.771 21.5784 200.248 22.213 199.021 23.44C197.751 24.7093 197.159 26.2324 197.159 28.0517ZM207.779 47.8103C203.421 49.8412 196.44 46.541 196.44 46.541L198.132 42.6908C198.132 42.6908 201.475 44.9333 206.129 43.7909C210.571 42.0139 210.19 38.1637 210.19 38.1637V35.7098C209.26 36.6829 208.244 37.4021 207.102 37.8676C205.959 38.3753 204.775 38.5868 203.463 38.5868C200.459 38.5868 197.963 37.5714 195.975 35.5828C193.986 33.5943 193.013 31.0557 193.013 28.0517C193.013 26.6555 193.267 25.3016 193.774 24.0323C194.282 22.763 194.959 21.663 195.89 20.6898C196.905 19.6321 198.005 18.8705 199.19 18.3628C200.375 17.8551 201.729 17.6013 203.252 17.6013C204.606 17.6013 205.875 17.8551 207.017 18.3205C208.159 18.7859 209.217 19.5475 210.148 20.5206V18.109H214.125V38.0791C214.125 42.3101 212.137 45.7371 207.779 47.8103Z" fill="var(--fill-0, white)"/>
<path id="Vector_27" d="M223.56 38.7983H219.753V18.0243H223.264V20.309C224.026 19.4205 224.956 18.7436 225.845 18.3205C226.733 17.8974 227.791 17.6858 228.934 17.6858C231.557 17.6858 233.588 18.4474 234.984 20.0128C236.38 21.5783 237.099 23.7784 237.099 26.6555V38.7983H233.207V27.4593C233.207 25.3439 232.826 23.7361 232.022 22.7207C231.218 21.7052 230.034 21.1552 228.384 21.1552C226.607 21.1552 225.591 21.7475 224.787 22.9745C223.983 24.2015 223.56 26.19 223.56 28.9825V38.7983Z" fill="var(--fill-0, white)"/>
<path id="Vector_28" d="M85.9715 38.7983H82.1637V18.0243H85.6754V20.309C86.4369 19.4205 87.3677 18.7436 88.2562 18.3205C89.1447 17.8974 90.2024 17.6858 91.3448 17.6858C93.9679 17.6858 95.9988 18.4474 97.395 20.0128C98.7911 21.5783 99.5104 23.7784 99.5104 26.6555V38.7983H95.618V27.4593C95.618 25.3439 95.2372 23.7361 94.4333 22.7207C93.6295 21.7052 92.4448 21.1552 90.7948 21.1552C89.0178 21.1552 88.0024 21.7475 87.1985 22.9745C86.3946 24.2015 85.9715 26.19 85.9715 28.9825V38.7983Z" fill="var(--fill-0, white)"/>
<path id="Vector_29" d="M189.797 17.9395H185.44V38.7981H189.797V17.9395Z" fill="var(--fill-0, white)"/>
<path id="Vector_30" d="M184.594 11.424C184.594 9.73162 185.948 8.37771 187.64 8.37771C189.29 8.37771 190.687 9.73162 190.687 11.424C190.687 13.1164 189.333 14.4703 187.64 14.4703C185.948 14.4703 184.594 13.1164 184.594 11.424Z" fill="var(--fill-0, white)"/>
<path id="Vector_31" d="M179.601 8.63045H175.243V38.7972H179.601V8.63045Z" fill="var(--fill-0, white)"/>
<path id="Vector_32" d="M127.9 17.9395H123.543V38.7981H127.9V17.9395Z" fill="var(--fill-0, white)"/>
<path id="Vector_33" d="M122.695 11.424C122.695 9.73162 124.049 8.37771 125.742 8.37771C127.434 8.37771 128.788 9.73162 128.788 11.424C128.788 13.1164 127.434 14.4703 125.742 14.4703C124.049 14.4703 122.695 13.1164 122.695 11.424Z" fill="var(--fill-0, white)"/>
<path id="Vector_34" d="M76.3256 17.9395H71.9677V38.7981H76.3256V17.9395Z" fill="var(--fill-0, white)"/>
<path id="Vector_35" d="M71.0789 11.424C71.0789 9.73162 72.4328 8.37771 74.1252 8.37771C75.7752 8.37771 77.1714 9.73162 77.1714 11.424C77.1714 13.1164 75.8175 14.4703 74.1252 14.4703C72.4328 14.4703 71.0789 13.1164 71.0789 11.424Z" fill="var(--fill-0, white)"/>
<path id="Vector_36" d="M100.78 17.9395H105.73L110.976 29.3631L116.688 17.9395H121.638L110.892 38.7981L100.78 17.9395Z" fill="var(--fill-0, white)"/>
<path id="Vector_37" d="M139.62 26.4856C138.054 25.9779 136.023 25.174 136.023 23.9893C136.023 22.6777 136.912 21.9161 138.647 21.6623C140.127 21.4507 141.947 22.3392 142.37 22.7623L144.485 19.4622C142.962 18.4891 140.466 17.5583 138.012 17.8967C134.204 18.4044 131.835 20.7738 131.835 23.9893C131.835 28.051 136.658 29.5742 138.224 30.0819C140.72 30.8858 141.608 31.5627 141.608 32.6628C141.608 34.7783 138.816 34.9475 137.97 34.9475C136.362 34.9475 134.12 33.9321 133.358 33.5513L131.285 36.8514C131.666 37.063 134.966 38.7977 137.97 38.7977C141.693 38.7977 145.755 36.8937 145.755 32.7051C145.797 28.4741 141.312 27.0356 139.62 26.4856Z" fill="var(--fill-0, white)"/>
</g>
<path id="Vector_38" d="M253.05 22.2549C253.05 24.2858 251.4 25.9359 249.369 25.9359C247.338 25.9359 245.688 24.2858 245.688 22.2549C245.688 20.2241 247.338 18.574 249.369 18.574C251.4 18.574 253.05 20.2241 253.05 22.2549ZM249.369 17.7701C246.915 17.7701 244.884 19.7587 244.884 22.2549C244.884 24.7089 246.873 26.7397 249.369 26.7397C251.823 26.7397 253.854 24.7512 253.854 22.2549C253.854 19.7587 251.823 17.7701 249.369 17.7701Z" fill="var(--fill-0, white)"/>
<path id="Vector_39" d="M248.353 21.9592H249.072C249.834 21.9592 250.299 21.6207 250.299 21.113C250.299 20.5629 249.792 20.3091 249.03 20.3091C248.692 20.3091 248.438 20.3514 248.353 20.3514V21.9592ZM247.634 19.9706C247.972 19.9283 248.522 19.886 248.988 19.886C249.749 19.886 250.215 20.0129 250.553 20.2668C250.807 20.436 250.976 20.7745 250.976 21.113C250.976 21.7053 250.511 22.0861 249.961 22.2553C250.384 22.3823 250.638 22.6784 250.765 23.1438C250.934 23.7785 251.061 24.2016 251.188 24.3708H250.469C250.384 24.2439 250.257 23.8631 250.13 23.3131C249.961 22.7207 249.665 22.4669 249.03 22.4669H248.353V24.3708H247.634V19.9706Z" fill="var(--fill-0, white)"/>
</g>
</g>
</svg>
