<svg preserveAspectRatio="none" width="100%" height="100%" overflow="visible" style="display: block;" viewBox="0 0 253.165 58.0588" fill="none" xmlns="http://www.w3.org/2000/svg">
<g id="Group">
<path id="Vector" d="M33.6708 32.9118C33.6708 32.9118 33.3754 44.3464 49.6201 48.8611C44.8944 32.6164 33.6708 32.9118 33.6708 32.9118Z" fill="var(--fill-0, #1C6CA2)"/>
<path id="Vector_2" d="M24.43 23.7545C24.43 23.7545 24.7254 12.3621 8.48064 7.80508C13.2064 24.0498 24.43 23.7545 24.43 23.7545Z" fill="var(--fill-0, #1C6CA2)"/>
<path id="Vector_3" d="M29.0714 35.5271C29.0714 35.5271 20.8014 43.3752 29.0714 58.0588C37.2571 43.2908 29.0714 35.5271 29.0714 35.5271Z" fill="var(--fill-0, #1C6CA2)"/>
<path id="Vector_4" d="M29.0296 22.5317C29.0296 22.5317 37.2997 14.6836 29.0296 0C20.844 14.8102 29.0296 22.5317 29.0296 22.5317Z" fill="var(--fill-0, #1C6CA2)"/>
<path id="Vector_5" d="M35.5697 28.9877C35.5697 28.9877 43.4178 37.2578 58.1014 28.9877C43.2913 20.8442 35.5697 28.9877 35.5697 28.9877Z" fill="var(--fill-0, #1C6CA2)"/>
<path id="Vector_6" d="M22.5316 29.0724C22.5316 29.0724 14.6835 20.8023 0 29.0724C14.8101 37.2159 22.5316 29.0724 22.5316 29.0724Z" fill="var(--fill-0, #1C6CA2)"/>
<path id="Vector_7" d="M33.6287 23.7124C33.6287 23.7124 45.0211 24.0078 49.5781 7.76305C33.3334 12.4466 33.6287 23.7124 33.6287 23.7124Z" fill="var(--fill-0, #1C6CA2)"/>
<path id="Vector_8" d="M24.4726 32.9538C24.4726 32.9538 13.0381 32.6584 8.52329 48.9032C24.768 44.1774 24.4726 32.9538 24.4726 32.9538Z" fill="var(--fill-0, #1C6CA2)"/>
<path id="Vector_9" d="M46.2447 41.0975C40.9704 32.7008 33.6709 32.8696 33.6709 32.8696C33.6709 32.8696 33.4599 40.338 41.9831 45.5701C43.6287 44.3464 45.0633 42.8274 46.2447 41.0975Z" fill="var(--fill-0, #2180B3)"/>
<path id="Vector_10" d="M24.4306 23.7552C24.4306 23.7552 24.5994 16.9198 17.1732 11.7299C15.3589 12.9957 13.7133 14.5569 12.3631 16.2869C17.5952 23.924 24.4306 23.7552 24.4306 23.7552Z" fill="var(--fill-0, #2180B3)"/>
<path id="Vector_11" d="M29.0717 35.5271C29.0717 35.5271 23.8818 40.4638 25.8227 49.7887C26.8776 49.9575 27.9324 50.0419 29.0295 50.0419C30.1265 50.0419 31.1814 49.9575 32.2362 49.7887C34.2193 40.4216 29.0717 35.5271 29.0717 35.5271Z" fill="var(--fill-0, #2180B3)"/>
<path id="Vector_12" d="M29.0292 22.5325C29.0292 22.5325 34.2191 17.5958 32.2782 8.27087C31.2233 8.10209 30.1685 8.0177 29.0714 8.0177C27.9744 8.0177 26.9195 8.10209 25.8647 8.27087C23.8816 17.638 29.0292 22.5325 29.0292 22.5325Z" fill="var(--fill-0, #2180B3)"/>
<path id="Vector_13" d="M35.5697 28.9868C35.5697 28.9868 40.5064 34.1767 49.8313 32.2357C50.0001 31.1809 50.0845 30.126 50.0845 29.029C50.0845 27.9319 50.0001 26.8771 49.8313 25.8222C40.4221 23.8813 35.5697 28.9868 35.5697 28.9868Z" fill="var(--fill-0, #2180B3)"/>
<path id="Vector_14" d="M22.5318 29.0717C22.5318 29.0717 17.5951 23.8818 8.27025 25.8227C8.10147 26.8776 8.01708 27.9324 8.01708 29.0295C8.01708 30.1265 8.10147 31.1814 8.27025 32.2362C17.6795 34.1772 22.5318 29.0717 22.5318 29.0717Z" fill="var(--fill-0, #2180B3)"/>
<path id="Vector_15" d="M33.6287 23.713C33.6287 23.713 40.5485 23.8818 45.7384 16.2869C44.3882 14.5147 42.7848 12.9535 40.9282 11.7299C33.4599 16.9198 33.6287 23.713 33.6287 23.713Z" fill="var(--fill-0, #2180B3)"/>
<path id="Vector_16" d="M24.4723 32.9539C24.4723 32.9539 17.0883 32.7429 11.8563 41.0974C13.0377 42.7851 14.5145 44.3041 16.1179 45.6122C24.6833 40.2957 24.4723 32.9539 24.4723 32.9539Z" fill="var(--fill-0, #2180B3)"/>
<path id="Vector_17" d="M41.4345 35.7801C37.3838 32.7843 33.713 32.9109 33.713 32.9109C33.713 32.9109 33.6286 36.7506 36.7087 40.8856C38.6497 39.6198 40.2952 37.8476 41.4345 35.7801Z" fill="var(--fill-0, #299FC0)"/>
<path id="Vector_18" d="M24.4302 23.7552C24.4302 23.7552 24.5146 20.5063 22.1095 16.7932C20.1686 17.8902 18.523 19.4514 17.2994 21.3079C21.0968 23.8396 24.4302 23.7552 24.4302 23.7552Z" fill="var(--fill-0, #299FC0)"/>
<path id="Vector_19" d="M29.0716 35.5271C29.0716 35.5271 26.4978 37.9744 25.6539 42.7001C26.751 42.9533 27.848 43.122 29.0295 43.122C30.2109 43.122 31.3501 42.9533 32.4472 42.7001C31.6455 37.9744 29.0716 35.5271 29.0716 35.5271Z" fill="var(--fill-0, #299FC0)"/>
<path id="Vector_20" d="M29.0295 22.5314C29.0295 22.5314 31.6033 20.0842 32.4472 15.3584C31.3501 15.1052 30.2109 14.9365 29.0716 14.9365C27.8902 14.9365 26.751 15.1052 25.6539 15.3584C26.4556 20.0842 29.0295 22.5314 29.0295 22.5314Z" fill="var(--fill-0, #299FC0)"/>
<path id="Vector_21" d="M42.7005 25.6119C37.9748 26.4136 35.5697 28.9874 35.5697 28.9874C35.5697 28.9874 38.017 31.5613 42.7427 32.4052C42.9959 31.3081 43.1647 30.2111 43.1647 29.0296C43.1647 27.8482 42.9959 26.7089 42.7005 25.6119Z" fill="var(--fill-0, #299FC0)"/>
<path id="Vector_22" d="M22.532 29.0717C22.532 29.0717 20.0848 26.4978 15.359 25.6539C15.1059 26.751 14.9371 27.848 14.9371 29.0295C14.9371 30.2109 15.1059 31.3501 15.359 32.4472C20.1269 31.6033 22.532 29.0717 22.532 29.0717Z" fill="var(--fill-0, #299FC0)"/>
<path id="Vector_23" d="M35.9914 16.7511C33.5864 20.4642 33.6708 23.671 33.6708 23.671C33.6708 23.671 37.0463 23.7554 40.8437 21.2237C39.5779 19.4094 37.9324 17.8482 35.9914 16.7511Z" fill="var(--fill-0, #299FC0)"/>
<path id="Vector_24" d="M24.4728 32.9537C24.4728 32.9537 20.7597 32.8693 16.7091 35.8229C17.8483 37.8904 19.4939 39.6203 21.4348 40.8862C24.5572 36.7511 24.4728 32.9537 24.4728 32.9537Z" fill="var(--fill-0, #299FC0)"/>
<g id="Group 24">
<g id="Group 25">
<path id="Vector_25" d="M152.152 27.976C152.152 29.8747 152.784 31.4359 154.008 32.7439C155.274 34.0098 156.793 34.6849 158.607 34.6849C160.253 34.6849 161.73 34.052 162.995 32.7439C164.261 31.4359 164.894 29.9591 164.894 28.2292C164.894 26.4148 164.261 24.8114 162.995 23.5034C161.73 22.1954 160.253 21.5203 158.523 21.5203C156.751 21.5203 155.232 22.1532 154.008 23.3768C152.784 24.6427 152.152 26.1616 152.152 27.976ZM165.147 38.7355V35.6131C164.219 36.5836 163.206 37.3009 162.067 37.7651C160.928 38.2714 159.746 38.4823 158.438 38.4823C155.443 38.4823 152.953 37.4697 150.97 35.4866C148.987 33.5034 148.017 30.9718 148.017 27.976C148.017 26.5836 148.27 25.2334 148.776 23.9676C149.282 22.7017 149.957 21.6047 150.886 20.6342C151.898 19.5794 152.995 18.8199 154.177 18.3135C155.358 17.8072 156.709 17.554 158.227 17.554C159.578 17.554 160.844 17.8072 161.983 18.2713C163.122 18.7777 164.177 19.495 165.105 20.4654V18.0604H169.071V38.6511H165.147" fill="var(--fill-0, #1E68A1)"/>
<path id="Vector_26" d="M196.624 27.976C196.624 29.8747 197.257 31.4359 198.481 32.7439C199.746 34.0098 201.265 34.6849 203.08 34.6849C204.725 34.6849 206.202 34.052 207.468 32.7439C208.734 31.4359 209.367 29.9591 209.367 28.2292C209.367 26.4148 208.734 24.8114 207.468 23.5034C206.202 22.1954 204.725 21.5203 202.995 21.5203C201.223 21.5203 199.704 22.1532 198.481 23.3768C197.215 24.6427 196.624 26.1616 196.624 27.976ZM207.215 47.6807C202.869 49.706 195.907 46.4149 195.907 46.4149L197.595 42.5752C197.595 42.5752 200.928 44.8115 205.569 43.6722C210 41.9001 209.62 38.0604 209.62 38.0604V35.6131C208.692 36.5836 207.679 37.3009 206.54 37.7651C205.4 38.2714 204.219 38.4823 202.911 38.4823C199.915 38.4823 197.426 37.4697 195.443 35.4866C193.46 33.5034 192.489 30.9718 192.489 27.976C192.489 26.5836 192.742 25.2334 193.249 23.9676C193.755 22.7017 194.43 21.6047 195.358 20.6342C196.371 19.5794 197.468 18.8199 198.649 18.3135C199.831 17.8072 201.181 17.554 202.7 17.554C204.05 17.554 205.316 17.8072 206.455 18.2713C207.595 18.7355 208.649 19.495 209.578 20.4654V18.0604H213.544V37.976C213.544 42.1954 211.561 45.6132 207.215 47.6807Z" fill="var(--fill-0, #1E68A1)"/>
<path id="Vector_27" d="M222.953 38.6942H219.156V17.9769H222.658V20.2554C223.418 19.3693 224.346 18.6942 225.232 18.2723C226.118 17.8503 227.173 17.6393 228.312 17.6393C230.928 17.6393 232.953 18.3988 234.346 19.96C235.738 21.5212 236.456 23.7153 236.456 26.5845V38.6942H232.574V27.3862C232.574 25.2765 232.194 23.6731 231.392 22.6604C230.591 21.6478 229.409 21.0993 227.764 21.0993C225.991 21.0993 224.979 21.69 224.177 22.9136C223.375 24.1372 222.953 26.1204 222.953 28.9052V38.6942Z" fill="var(--fill-0, #1E68A1)"/>
<path id="Vector_28" d="M85.7384 38.6942H81.941V17.9769H85.4431V20.2554C86.2026 19.3693 87.1308 18.6942 88.0169 18.2723C88.903 17.8503 89.9578 17.6393 91.0971 17.6393C93.7131 17.6393 95.7384 18.3988 97.1308 19.96C98.5232 21.5212 99.2405 23.7153 99.2405 26.5845V38.6942H95.3587V27.3862C95.3587 25.2765 94.9789 23.6731 94.1772 22.6604C93.3756 21.6478 92.1941 21.0993 90.5486 21.0993C88.7764 21.0993 87.7637 21.69 86.9621 22.9136C86.1604 24.1372 85.7384 26.1204 85.7384 28.9052V38.6942Z" fill="var(--fill-0, #299FC0)"/>
<path id="Vector_29" d="M189.282 17.8915H184.936V38.6932H189.282V17.8915Z" fill="var(--fill-0, #1E68A1)"/>
<path id="Vector_30" d="M184.093 11.3938C184.093 9.70603 185.443 8.35581 187.131 8.35581C188.777 8.35581 190.169 9.70603 190.169 11.3938C190.169 13.0816 188.819 14.4318 187.131 14.4318C185.443 14.4318 184.093 13.0816 184.093 11.3938Z" fill="var(--fill-0, #1E68A1)"/>
<path id="Vector_31" d="M179.114 8.60799H174.768V38.6924H179.114V8.60799Z" fill="var(--fill-0, #1E68A1)"/>
<path id="Vector_32" d="M127.553 17.8915H123.207V38.6932H127.553V17.8915Z" fill="var(--fill-0, #299FC0)"/>
<path id="Vector_33" d="M122.363 11.3938C122.363 9.70603 123.713 8.35581 125.401 8.35581C127.088 8.35581 128.439 9.70603 128.439 11.3938C128.439 13.0816 127.088 14.4318 125.401 14.4318C123.713 14.4318 122.363 13.0816 122.363 11.3938Z" fill="var(--fill-0, #299FC0)"/>
<path id="Vector_34" d="M76.1183 17.8915H71.7724V38.6932H76.1183V17.8915Z" fill="var(--fill-0, #299FC0)"/>
<path id="Vector_35" d="M70.886 11.3938C70.886 9.70603 72.2362 8.35581 73.924 8.35581C75.5696 8.35581 76.962 9.70603 76.962 11.3938C76.962 13.0816 75.6118 14.4318 73.924 14.4318C72.2362 14.4318 70.886 13.0816 70.886 11.3938Z" fill="var(--fill-0, #299FC0)"/>
<path id="Vector_36" d="M100.506 17.8915H105.443L110.675 29.2839L116.371 17.8915H121.308L110.591 38.6932L100.506 17.8915Z" fill="var(--fill-0, #299FC0)"/>
<path id="Vector_37" d="M139.241 26.4139C137.68 25.9076 135.654 25.1059 135.654 23.9245C135.654 22.6165 136.54 21.857 138.27 21.6038C139.747 21.3928 141.561 22.2789 141.983 22.7009L144.093 19.4097C142.574 18.4392 140.085 17.511 137.637 17.8485C133.84 18.3549 131.477 20.7177 131.477 23.9245C131.477 27.9751 136.287 29.4941 137.848 30.0005C140.338 30.8021 141.224 31.4772 141.224 32.5743C141.224 34.684 138.439 34.8528 137.595 34.8528C135.992 34.8528 133.756 33.8401 132.996 33.4604L130.929 36.7515C131.308 36.9625 134.599 38.6924 137.595 38.6924C141.308 38.6924 145.359 36.7937 145.359 32.6165C145.401 28.3971 140.929 26.9625 139.241 26.4139Z" fill="var(--fill-0, #299FC0)"/>
</g>
<path id="Vector_38" d="M252.363 22.195C252.363 24.2204 250.718 25.8659 248.692 25.8659C246.667 25.8659 245.021 24.2204 245.021 22.195C245.021 20.1697 246.667 18.5241 248.692 18.5241C250.718 18.5241 252.363 20.1697 252.363 22.195ZM248.692 17.7225C246.245 17.7225 244.22 19.7056 244.22 22.195C244.22 24.6423 246.203 26.6676 248.692 26.6676C251.14 26.6676 253.165 24.6845 253.165 22.195C253.165 19.7056 251.14 17.7225 248.692 17.7225Z" fill="var(--fill-0, #1C6CA2)"/>
<path id="Vector_39" d="M247.679 21.8989H248.396C249.156 21.8989 249.62 21.5613 249.62 21.055C249.62 20.5064 249.113 20.2533 248.354 20.2533C248.016 20.2533 247.763 20.2955 247.679 20.2955V21.8989ZM246.962 19.9157C247.299 19.8735 247.848 19.8313 248.312 19.8313C249.071 19.8313 249.535 19.9579 249.873 20.2111C250.126 20.3799 250.295 20.7174 250.295 21.055C250.295 21.6457 249.831 22.0254 249.282 22.1942C249.704 22.3208 249.957 22.6161 250.084 23.0803C250.253 23.7132 250.379 24.1351 250.506 24.3039H249.788C249.704 24.1773 249.578 23.7976 249.451 23.2491C249.282 22.6584 248.987 22.4052 248.354 22.4052H247.679V24.3039H246.962V19.9157Z" fill="var(--fill-0, #1C6CA2)"/>
</g>
</g>
</svg>
