<svg preserveAspectRatio="none" width="100%" height="100%" overflow="visible" style="display: block;" viewBox="0 0 427.001 97.9256" fill="none" xmlns="http://www.w3.org/2000/svg">
<g id="Group">
<path id="Vector" d="M56.7908 55.511C56.7908 55.511 56.2926 74.7973 83.6917 82.4122C75.7211 55.0128 56.7908 55.511 56.7908 55.511Z" fill="var(--fill-0, white)"/>
<path id="Vector_2" d="M41.2048 40.0668C41.2048 40.0668 41.703 20.8516 14.3039 13.1656C22.2745 40.565 41.2048 40.0668 41.2048 40.0668Z" fill="var(--fill-0, white)"/>
<path id="Vector_3" d="M49.0328 59.9222C49.0328 59.9222 35.0842 73.1593 49.0328 97.9256C62.8392 73.017 49.0328 59.9222 49.0328 59.9222Z" fill="var(--fill-0, white)"/>
<path id="Vector_4" d="M48.9633 38.0033C48.9633 38.0033 62.912 24.7662 48.9633 0C35.157 24.9797 48.9633 38.0033 48.9633 38.0033Z" fill="var(--fill-0, white)"/>
<path id="Vector_5" d="M59.9937 48.8914C59.9937 48.8914 73.2307 62.8402 97.9967 48.8914C73.0172 35.1561 59.9937 48.8914 59.9937 48.8914Z" fill="var(--fill-0, white)"/>
<path id="Vector_6" d="M38.003 49.0342C38.003 49.0342 24.766 35.0855 0 49.0342C24.9795 62.7695 38.003 49.0342 38.003 49.0342Z" fill="var(--fill-0, white)"/>
<path id="Vector_7" d="M56.7199 39.9959C56.7199 39.9959 75.9349 40.4941 83.6209 13.0947C56.2217 20.9943 56.7199 39.9959 56.7199 39.9959Z" fill="var(--fill-0, white)"/>
<path id="Vector_8" d="M41.2768 55.5819C41.2768 55.5819 21.9906 55.0837 14.3758 82.4831C41.7749 74.5124 41.2768 55.5819 41.2768 55.5819Z" fill="var(--fill-0, white)"/>
<path id="Vector_9" d="M77.9986 69.3176C69.1028 55.1553 56.791 55.4399 56.791 55.4399C56.791 55.4399 56.4351 68.0365 70.8108 76.8613C73.5863 74.7974 76.0059 72.2354 77.9986 69.3176Z" fill="var(--fill-0, white)"/>
<path id="Vector_10" d="M41.2053 40.067C41.2053 40.067 41.49 28.5379 28.9647 19.7843C25.9045 21.9194 23.129 24.5526 20.8517 27.4704C29.6764 40.3517 41.2053 40.067 41.2053 40.067Z" fill="var(--fill-0, white)"/>
<path id="Vector_11" d="M49.0337 59.9222C49.0337 59.9222 40.2802 68.2488 43.5539 83.9768C45.333 84.2614 47.1122 84.4038 48.9625 84.4038C50.8129 84.4038 52.592 84.2614 54.3712 83.9768C57.716 68.1776 49.0337 59.9222 49.0337 59.9222Z" fill="var(--fill-0, white)"/>
<path id="Vector_12" d="M48.9627 38.0037C48.9627 38.0037 57.7162 29.6771 54.4425 13.9491C52.6633 13.6644 50.8842 13.5221 49.0338 13.5221C47.1835 13.5221 45.4043 13.6644 43.6252 13.9491C40.2803 29.7483 48.9627 38.0037 48.9627 38.0037Z" fill="var(--fill-0, white)"/>
<path id="Vector_13" d="M59.9937 48.892C59.9937 48.892 68.3202 57.6455 84.048 54.3719C84.3327 52.5927 84.475 50.8135 84.475 48.9631C84.475 47.1128 84.3327 45.3336 84.048 43.5544C68.1779 40.2807 59.9937 48.892 59.9937 48.892Z" fill="var(--fill-0, white)"/>
<path id="Vector_14" d="M38.0033 49.0341C38.0033 49.0341 29.6768 40.2805 13.949 43.5542C13.6643 45.3334 13.522 47.1126 13.522 48.9629C13.522 50.8133 13.6643 52.5924 13.949 54.3716C29.8192 57.6453 38.0033 49.0341 38.0033 49.0341Z" fill="var(--fill-0, white)"/>
<path id="Vector_15" d="M56.7198 39.9958C56.7198 39.9958 68.3911 40.2805 77.1446 27.4704C74.8673 24.4814 72.163 21.8482 69.0316 19.7843C56.4351 28.5379 56.7198 39.9958 56.7198 39.9958Z" fill="var(--fill-0, white)"/>
<path id="Vector_16" d="M41.2757 55.5821C41.2757 55.5821 28.8215 55.2263 19.9969 69.3174C21.9895 72.1641 24.4804 74.7261 27.1847 76.9323C41.6315 67.9652 41.2757 55.5821 41.2757 55.5821Z" fill="var(--fill-0, white)"/>
<path id="Vector_17" d="M69.8849 60.349C63.0529 55.2961 56.8614 55.5096 56.8614 55.5096C56.8614 55.5096 56.7191 61.9858 61.9143 68.9602C65.1879 66.8252 67.9634 63.8362 69.8849 60.349Z" fill="var(--fill-0, white)"/>
<path id="Vector_18" d="M41.2051 40.067C41.2051 40.067 41.3475 34.5871 37.291 28.3244C34.0173 30.1747 31.2418 32.8079 29.178 35.9393C35.583 40.2093 41.2051 40.067 41.2051 40.067Z" fill="var(--fill-0, white)"/>
<path id="Vector_19" d="M49.0337 59.9222C49.0337 59.9222 44.6925 64.0499 43.2692 72.0206C45.1195 72.4476 46.9699 72.7323 48.9625 72.7323C50.9552 72.7323 52.8767 72.4476 54.727 72.0206C53.3748 64.0499 49.0337 59.9222 49.0337 59.9222Z" fill="var(--fill-0, white)"/>
<path id="Vector_20" d="M48.9625 38.0029C48.9625 38.0029 53.3037 33.8752 54.727 25.9044C52.8767 25.4774 50.9552 25.1928 49.0337 25.1928C47.041 25.1928 45.1195 25.4774 43.2692 25.9044C44.6214 33.8752 48.9625 38.0029 48.9625 38.0029Z" fill="var(--fill-0, white)"/>
<path id="Vector_21" d="M72.0209 43.1986C64.0502 44.5508 59.9937 48.892 59.9937 48.892C59.9937 48.892 64.1214 53.2332 72.092 54.6566C72.519 52.8062 72.8037 50.9559 72.8037 48.9632C72.8037 46.9705 72.519 45.049 72.0209 43.1986Z" fill="var(--fill-0, white)"/>
<path id="Vector_22" d="M38.0036 49.0341C38.0036 49.0341 33.8759 44.6928 25.9053 43.2695C25.4783 45.1199 25.1936 46.9702 25.1936 48.9629C25.1936 50.9556 25.4783 52.8771 25.9053 54.7274C33.9471 53.3041 38.0036 49.0341 38.0036 49.0341Z" fill="var(--fill-0, white)"/>
<path id="Vector_23" d="M60.7049 28.2535C56.6484 34.5162 56.7908 39.925 56.7908 39.925C56.7908 39.925 62.4841 40.0673 68.8891 35.7972C66.7541 32.7371 63.9786 30.1039 60.7049 28.2535Z" fill="var(--fill-0, white)"/>
<path id="Vector_24" d="M41.2771 55.5817C41.2771 55.5817 35.0144 55.4394 28.1824 60.4211C30.1039 63.9083 32.8794 66.8261 36.1531 68.9611C41.4194 61.9867 41.2771 55.5817 41.2771 55.5817Z" fill="var(--fill-0, white)"/>
<g id="Group 24">
<g id="Group 25">
<path id="Vector_25" d="M256.627 47.1843C256.627 50.3869 257.695 53.0201 259.759 55.2263C261.894 57.3613 264.456 58.4999 267.516 58.4999C270.291 58.4999 272.782 57.4325 274.917 55.2263C277.052 53.0201 278.12 50.5292 278.12 47.6114C278.12 44.5512 277.052 41.8468 274.917 39.6406C272.782 37.4344 270.291 36.2958 267.373 36.2958C264.384 36.2958 261.822 37.3633 259.759 39.4271C257.695 41.5621 256.627 44.1242 256.627 47.1843ZM278.547 65.332V60.0656C276.981 61.7025 275.273 62.9123 273.351 63.6952C271.43 64.5492 269.437 64.905 267.231 64.905C262.178 64.905 257.979 63.197 254.635 59.8521C251.29 56.5073 249.653 52.2372 249.653 47.1843C249.653 44.8358 250.08 42.5585 250.934 40.4235C251.788 38.2884 252.927 36.4381 254.492 34.8012C256.2 33.0221 258.051 31.741 260.043 30.887C262.036 30.033 264.313 29.606 266.875 29.606C269.153 29.606 271.288 30.033 273.209 30.8159C275.131 31.6699 276.91 32.8797 278.475 34.5166V30.46H285.165V65.1897H278.547" fill="var(--fill-0, white)"/>
<path id="Vector_26" d="M331.637 47.1843C331.637 50.3869 332.704 53.0201 334.768 55.2263C336.903 57.3613 339.465 58.4999 342.525 58.4999C345.301 58.4999 347.792 57.4325 349.927 55.2263C352.062 53.0201 353.129 50.5292 353.129 47.6114C353.129 44.5512 352.062 41.8468 349.927 39.6406C347.792 37.4344 345.301 36.2958 342.383 36.2958C339.394 36.2958 336.832 37.3633 334.768 39.4271C332.633 41.5621 331.637 44.1242 331.637 47.1843ZM349.5 80.4195C342.17 83.8355 330.427 78.2845 330.427 78.2845L333.274 71.8082C333.274 71.8082 338.896 75.5801 346.724 73.6586C354.197 70.6696 353.556 64.1933 353.556 64.1933V60.0656C351.991 61.7025 350.283 62.9123 348.361 63.6952C346.44 64.5492 344.447 64.905 342.241 64.905C337.188 64.905 332.989 63.197 329.644 59.8521C326.299 56.5073 324.663 52.2372 324.663 47.1843C324.663 44.8358 325.09 42.5585 325.944 40.4235C326.798 38.2884 327.936 36.4381 329.502 34.8012C331.21 33.0221 333.06 31.741 335.053 30.887C337.046 30.033 339.323 29.606 341.885 29.606C344.162 29.606 346.297 30.033 348.219 30.8159C350.14 31.5987 351.919 32.8797 353.485 34.5166V30.46H360.175V64.051C360.175 71.1677 356.83 76.9323 349.5 80.4195Z" fill="var(--fill-0, white)"/>
<path id="Vector_27" d="M376.045 65.2613H369.64V30.3182H375.547V34.1612C376.828 32.6667 378.394 31.528 379.888 30.8164C381.383 30.1047 383.162 29.7489 385.084 29.7489C389.496 29.7489 392.912 31.0299 395.26 33.6631C397.609 36.2962 398.819 39.997 398.819 44.8363V65.2613H392.271V46.1885C392.271 42.6301 391.631 39.9258 390.279 38.2178C388.927 36.5097 386.934 35.5846 384.158 35.5846C381.169 35.5846 379.461 36.5809 378.109 38.6448C376.757 40.7086 376.045 44.0535 376.045 48.7505V65.2613Z" fill="var(--fill-0, white)"/>
<path id="Vector_28" d="M144.612 65.2613H138.207V30.3182H144.113V34.1612C145.394 32.6667 146.96 31.528 148.455 30.8164C149.949 30.1047 151.728 29.7489 153.65 29.7489C158.062 29.7489 161.478 31.0299 163.827 33.6631C166.175 36.2962 167.385 39.997 167.385 44.8363V65.2613H160.838V46.1885C160.838 42.6301 160.197 39.9258 158.845 38.2178C157.493 36.5097 155.5 35.5846 152.725 35.5846C149.736 35.5846 148.028 36.5809 146.675 38.6448C145.323 40.7086 144.612 44.0535 144.612 48.7505V65.2613Z" fill="var(--fill-0, white)"/>
<path id="Vector_29" d="M319.254 30.1752H311.923V65.2607H319.254V30.1752Z" fill="var(--fill-0, white)"/>
<path id="Vector_30" d="M310.502 19.2158C310.502 16.3691 312.779 14.0917 315.626 14.0917C318.401 14.0917 320.75 16.3691 320.75 19.2158C320.75 22.0625 318.472 24.3398 315.626 24.3398C312.779 24.3398 310.502 22.0625 310.502 19.2158Z" fill="var(--fill-0, white)"/>
<path id="Vector_31" d="M302.103 14.5181H294.773V65.2604H302.103V14.5181Z" fill="var(--fill-0, white)"/>
<path id="Vector_32" d="M215.138 30.1752H207.808V65.2607H215.138V30.1752Z" fill="var(--fill-0, white)"/>
<path id="Vector_33" d="M206.384 19.2158C206.384 16.3691 208.661 14.0917 211.508 14.0917C214.354 14.0917 216.632 16.3691 216.632 19.2158C216.632 22.0625 214.354 24.3398 211.508 24.3398C208.661 24.3398 206.384 22.0625 206.384 19.2158Z" fill="var(--fill-0, white)"/>
<path id="Vector_34" d="M128.386 30.1752H121.056V65.2607H128.386V30.1752Z" fill="var(--fill-0, white)"/>
<path id="Vector_35" d="M119.561 19.2158C119.561 16.3691 121.838 14.0917 124.685 14.0917C127.46 14.0917 129.809 16.3691 129.809 19.2158C129.809 22.0625 127.531 24.3398 124.685 24.3398C121.838 24.3398 119.561 22.0625 119.561 19.2158Z" fill="var(--fill-0, white)"/>
<path id="Vector_36" d="M169.52 30.1752H177.846L186.671 49.3904L196.278 30.1752H204.605L186.528 65.2607L169.52 30.1752Z" fill="var(--fill-0, white)"/>
<path id="Vector_37" d="M234.851 44.5507C232.218 43.6967 228.802 42.3445 228.802 40.3518C228.802 38.1457 230.297 36.8646 233.215 36.4376C235.705 36.0818 238.766 37.5763 239.477 38.288L243.036 32.737C240.474 31.1001 236.275 29.5344 232.147 30.1038C225.742 30.9578 221.757 34.9431 221.757 40.3518C221.757 47.1839 229.87 49.7459 232.503 50.6C236.702 51.9521 238.196 53.0908 238.196 54.9411C238.196 58.4995 233.499 58.7842 232.076 58.7842C229.372 58.7842 225.6 57.0762 224.319 56.4357L220.832 61.9867C221.472 62.3426 227.023 65.2604 232.076 65.2604C238.339 65.2604 245.171 62.0579 245.171 55.0123C245.242 47.8956 237.698 45.4759 234.851 44.5507Z" fill="var(--fill-0, white)"/>
</g>
<path id="Vector_38" d="M425.649 37.4342C425.649 40.8502 422.873 43.6257 419.457 43.6257C416.041 43.6257 413.266 40.8502 413.266 37.4342C413.266 34.0181 416.041 31.2426 419.457 31.2426C422.873 31.2426 425.649 34.0181 425.649 37.4342ZM419.457 29.8904C415.33 29.8904 411.914 33.2353 411.914 37.4342C411.914 41.5619 415.258 44.9779 419.457 44.9779C423.585 44.9779 427.001 41.633 427.001 37.4342C427.001 33.2353 423.585 29.8904 419.457 29.8904Z" fill="var(--fill-0, white)"/>
<path id="Vector_39" d="M417.748 36.9367H418.958C420.239 36.9367 421.022 36.3673 421.022 35.5133C421.022 34.5881 420.168 34.1611 418.887 34.1611C418.317 34.1611 417.89 34.2323 417.748 34.2323V36.9367ZM416.538 33.5918C417.107 33.5206 418.033 33.4495 418.815 33.4495C420.096 33.4495 420.879 33.663 421.449 34.09C421.876 34.3746 422.16 34.944 422.16 35.5133C422.16 36.5097 421.377 37.1502 420.452 37.4348C421.164 37.6483 421.591 38.1465 421.804 38.9293C422.089 39.9969 422.303 40.7085 422.516 40.9932H421.306C421.164 40.7797 420.95 40.1392 420.737 39.214C420.452 38.2177 419.954 37.7907 418.887 37.7907H417.748V40.9932H416.538V33.5918Z" fill="var(--fill-0, white)"/>
</g>
</g>
</svg>
