<svg width="16" height="16" viewBox="0 0 16 16" fill="none" xmlns="http://www.w3.org/2000/svg">
<mask id="mask0_1326_3385" style="mask-type:alpha" maskUnits="userSpaceOnUse" x="0" y="0" width="16" height="16">
<rect width="16" height="16" fill="#D9D9D9"/>
</mask>
<g mask="url(#mask0_1326_3385)">
<path d="M8.00007 0C4.47127 0 1.60007 2.8712 1.60007 6.396C1.57687 11.552 7.75687 15.8272 8.00007 16C8.00007 16 14.4233 11.552 14.4001 6.4C14.4001 2.8712 11.5289 0 8.00007 0ZM8.00007 9.6C6.23207 9.6 4.80007 8.168 4.80007 6.4C4.80007 4.632 6.23207 3.2 8.00007 3.2C9.76807 3.2 11.2001 4.632 11.2001 6.4C11.2001 8.168 9.76807 9.6 8.00007 9.6Z" fill="#787B83"/>
</g>
</svg>
